<svg xmlns="http://www.w3.org/2000/svg" width="4121.43" height="3035.169" viewBox="0 0 4121.43 3035.169">
  <g id="Group_13" data-name="Group 13" transform="translate(3951.22 4924.169)">
    <path id="Path_266" data-name="Path 266" d="M411.1,1798.769H276.255L83.1,74.53H217.81Z" transform="translate(-3447.85 -4385.825)" fill="#fff"/>
    <path id="Path_267" data-name="Path 267" d="M417.187,1811.736H282.346a6.552,6.552,0,0,1-6.421-5.9L82.639,81.731a6.683,6.683,0,0,1,1.572-5.111A6.814,6.814,0,0,1,89.191,74H223.9a6.683,6.683,0,0,1,6.552,5.9L423.608,1804a6.159,6.159,0,0,1-1.573,5.111,6.288,6.288,0,0,1-4.848,2.62Zm-128.945-13.1H409.849L218,87.1H96.53Z" transform="translate(-3453.942 -4392.24)" fill="#231f20"/>
    <path id="Path_268" data-name="Path 268" d="M213.579,1096.837H61.44L109.794,170.77H261.933Z" transform="translate(-3710.026 -3220.925)" fill="#fff"/>
    <path id="Path_269" data-name="Path 269" d="M219.637,1109.441H67.5a6.289,6.289,0,0,1-4.718-1.965,6.552,6.552,0,0,1-1.835-4.849l48.354-926.2a6.552,6.552,0,0,1,6.552-6.159H267.991a6.291,6.291,0,0,1,4.718,2.1,6.159,6.159,0,0,1,1.834,4.848l-48.354,926.067A6.421,6.421,0,0,1,219.637,1109.441Zm-145.194-13.1H213.478l47.7-912.963H122.142Z" transform="translate(-3716.084 -3226.977)" fill="#231f20"/>
    <path id="Path_270" data-name="Path 270" d="M377.233,1096.837H529.372L273.449,170.77H121.31Z" transform="translate(-2985.352 -3220.925)" fill="#fff"/>
    <path id="Path_271" data-name="Path 271" d="M535.4,1109.442H383.26a6.552,6.552,0,0,1-6.29-4.717l-255.923-926.2a6.552,6.552,0,0,1,1.048-5.635,6.421,6.421,0,0,1,5.242-2.621H279.476a6.551,6.551,0,0,1,6.29,4.848l255.923,926.068a6.158,6.158,0,0,1-1.048,5.766A6.551,6.551,0,0,1,535.4,1109.442Zm-147.159-13.1H526.881L274.5,183.374H136.379Z" transform="translate(-2991.379 -3226.978)" fill="#231f20"/>
    <path id="Path_272" data-name="Path 272" d="M1538.878,1635.586H212.611L38.85,85.37H1365.117Z" transform="translate(-3983.458 -4254.616)" fill="#fff"/>
    <path id="Path_273" data-name="Path 273" d="M1544.985,1648.191H218.718a6.552,6.552,0,0,1-6.552-5.9L38.406,92.208a6.028,6.028,0,0,1,1.7-5.111,6.29,6.29,0,0,1,4.849-2.228H1371.225a6.683,6.683,0,0,1,6.552,5.766l173.629,1550.216a6.159,6.159,0,0,1-1.573,5.111,6.289,6.289,0,0,1-4.848,2.228Zm-1320.5-13.1H1537.647L1365.328,97.974H52.3Z" transform="translate(-3989.565 -4260.669)" fill="#231f20"/>
    <path id="Path_274" data-name="Path 274" d="M42.61,203.67H1617.724l16.118,143.49H58.728Z" transform="translate(-3937.946 -2822.7)" fill="#fff"/>
    <path id="Path_275" data-name="Path 275" d="M1639.393,360.248H64.8a6.683,6.683,0,0,1-6.552-5.766L42.133,210.337a6.814,6.814,0,0,1,1.7-5.11,6.682,6.682,0,0,1,4.848-2.1H1623.8a6.552,6.552,0,0,1,6.552,5.766l16.118,144.145a6.815,6.815,0,0,1-1.7,5.111A6.684,6.684,0,0,1,1639.393,360.248ZM70.175,347.144h1562.4L1618.033,216.1H56.023Z" transform="translate(-3944.021 -2829.237)" fill="#231f20"/>
    <path id="Path_276" data-name="Path 276" d="M1249.333,788.886H125.786a6.552,6.552,0,0,1-6.552-5.766L47.293,104.328A6.814,6.814,0,0,1,49,99.217a6.684,6.684,0,0,1,4.848-2.1H1177.26a6.552,6.552,0,0,1,6.552,5.766l71.942,678.793a6.814,6.814,0,0,1-1.7,5.111,6.684,6.684,0,0,1-4.718,2.1Zm-1117.519-13.1H1242.125l-70.631-665.558H61.052Z" transform="translate(-3881.563 -4112.394)" fill="#d1d3d4"/>
    <path id="Path_277" data-name="Path 277" d="M740.62,430.832a5.9,5.9,0,0,1-4.062-1.441L362.042,128.651,62.613,429a6.533,6.533,0,0,1-9.173-9.3L356.931,115.547a6.421,6.421,0,0,1,8.649,0l379.1,304.408a6.683,6.683,0,0,1,1.048,9.3A6.551,6.551,0,0,1,740.62,430.832Z" transform="translate(-3830.315 -3909.623)" fill="#d1d3d4"/>
    <path id="Path_278" data-name="Path 278" d="M599.949,431.47a6.682,6.682,0,0,1-4.718-1.966L304.452,130.6,111.3,386.392a6.552,6.552,0,0,1-9.173,1.31,6.683,6.683,0,0,1-1.31-9.173L298.555,116.448a6.683,6.683,0,0,1,4.848-2.621,6.815,6.815,0,0,1,5.111,1.966L604.667,420.2a6.683,6.683,0,0,1,0,9.3,6.421,6.421,0,0,1-4.717,1.965Z" transform="translate(-3248.691 -3910.261)" fill="#d1d3d4"/>
    <path id="Path_279" data-name="Path 279" d="M730.882,650.51H111.057a6.683,6.683,0,0,1-6.552-5.9L53.792,165.657a6.814,6.814,0,0,1,1.7-5.11,6.682,6.682,0,0,1,4.849-2.1H680.169a6.552,6.552,0,0,1,6.552,5.9L737.434,643.04a6.552,6.552,0,0,1-1.7,5.111,6.289,6.289,0,0,1-4.849,2.359Zm-613.928-13.1h606.72l-49.4-465.72H67.552Z" transform="translate(-3802.886 -3370.048)" fill="#d1d3d4"/>
    <path id="Path_280" data-name="Path 280" d="M533.634,173.864H114.3a6.552,6.552,0,1,1,0-13.1H533.634a6.683,6.683,0,0,1,6.552,6.552A6.552,6.552,0,0,1,533.634,173.864Z" transform="translate(-3149.484 -3342.087)" fill="#d1d3d4"/>
    <path id="Path_281" data-name="Path 281" d="M534.744,184.4H115.412a6.552,6.552,0,1,1,0-13.1H534.744a6.552,6.552,0,0,1,0,13.1Z" transform="translate(-3136.049 -3214.51)" fill="#d1d3d4"/>
    <g id="Group_12" data-name="Group 12" transform="translate(-57.352 -147.448)">
      <path id="Path_341" data-name="Path 341" d="M739.454,638.087c-28.845,1.17-47.3-11.375-72.1-20.308-48.3-17-70.825,23.417-112.371,44.942a318.846,318.846,0,0,1-395.694-82.762A238.328,238.328,0,0,1,105.561,460.21c-6.03-49.928,7.987-101.022-.639-150.371A169.579,169.579,0,0,0,0,182.9a404.166,404.166,0,0,1,137.29,12.913A139.548,139.548,0,0,0,32.9,146.085,259.736,259.736,0,0,1,193.448,92.169L91.786,68.413c86.562-55.607,192-72.26,293.957-67.7C588.8,11.139,928.823,94.076,922.767,357.3,919.394,458.177,863.919,632.246,739.454,638.087Z" transform="translate(205.857 -4161.505) rotate(150)" fill="#fff" stroke="#b5b0b0" stroke-width="1"/>
      <path id="Path_342" data-name="Path 342" d="M358.581,0C280.847.043,181.327,14.528,95.053,69.7a7.369,7.369,0,0,0-3.177,7.362,7.635,7.635,0,0,0,5.477,5.769l56.527,13.1A268.48,268.48,0,0,0,35.592,147.663a7.212,7.212,0,0,0,4.32,12.986,132.064,132.064,0,0,1,81.18,29.539A406.229,406.229,0,0,0,6.585,183.035a7.223,7.223,0,0,0-6.493,6.209,7.063,7.063,0,0,0,4.611,7.79A161.653,161.653,0,0,1,105.59,318.344a321.7,321.7,0,0,1,.823,78.216,385.82,385.82,0,0,0-.04,72.156,245.975,245.975,0,0,0,55.313,123.5A325.906,325.906,0,0,0,566.32,676.7a240.932,240.932,0,0,0,34.913-23.253c23.373-17.763,41.841-31.771,72.122-21.253,6.489,2.305,12.544,4.9,18.456,7.35a123.587,123.587,0,0,0,56.816,13.39h0c124.9-5.552,187.581-175.007,189.662-287.859C940.95,245.443,875.67,151.244,744.178,85.366S455.783,4.277,394.491,1.135C382.377.276,370.7-.006,358.581,0ZM117.695,72.287c93.2-54.167,200.066-61.441,274.914-57.875C452.6,17.555,606.044,31.757,736.528,97.2c126.157,63.139,188.7,152.722,186.186,266.44-2.51,107.369-60.142,268.6-175.81,274.287a113.791,113.791,0,0,1-50.614-12.239c-6.2-2.594-12.544-5.333-19.321-7.638-37.346-13.112-60.719,4.651-85.391,23.425a222.848,222.848,0,0,1-32.75,21.809A311.209,311.209,0,0,1,172.075,582.54a231.7,231.7,0,0,1-52.289-115.42A369.05,369.05,0,0,1,119.824,398a336.725,336.725,0,0,0-1.109-81.68A176.236,176.236,0,0,0,35.566,196.728,403.388,403.388,0,0,1,141.992,211.1a7.216,7.216,0,0,0,8.078-3.035,7.364,7.364,0,0,0,0-8.514A147.317,147.317,0,0,0,60.4,148.8a252.485,252.485,0,0,1,140.348-41.061,7.078,7.078,0,0,0,7.214-6.354,7.206,7.206,0,0,0-5.476-7.934Z" transform="translate(216.447 -4158.634) rotate(150)" fill="#231f20"/>
    </g>
    <path id="Path_282" data-name="Path 282" d="M535.864,194.934H116.532a6.552,6.552,0,0,1,0-13.1H535.864a6.552,6.552,0,1,1,0,13.1Z" transform="translate(-3122.492 -3087.054)" fill="#d1d3d4"/>
    <path id="Path_283" data-name="Path 283" d="M416.6,205.464h-298.9a6.552,6.552,0,0,1,0-13.1H416.6a6.683,6.683,0,0,1,6.552,6.552,6.552,6.552,0,0,1-6.552,6.552Z" transform="translate(-3108.451 -2959.598)" fill="#d1d3d4"/>
    <path id="Path_284" data-name="Path 284" d="M64.148,650.83a6.421,6.421,0,0,1-4.98-2.359,6.683,6.683,0,0,1,.786-9.3L629.066,160.474a6.552,6.552,0,1,1,8.387,9.959L68.342,649.257a6.42,6.42,0,0,1-4.193,1.573Z" transform="translate(-3755.978 -3370.368)" fill="#d1d3d4"/>
    <path id="Path_285" data-name="Path 285" d="M730.644,650.415a6.029,6.029,0,0,1-3.8-1.311L56.569,170.412a6.581,6.581,0,0,1,7.6-10.745L734.707,638.491a6.552,6.552,0,0,1,1.573,9.173A6.815,6.815,0,0,1,730.644,650.415Z" transform="translate(-3802.649 -3369.954)" fill="#d1d3d4"/>
    <path id="Path_286" data-name="Path 286" d="M254.005,234.073a58.576,58.576,0,0,1-1.7,40.361,75.742,75.742,0,0,1-69.452,43.375,90.418,90.418,0,0,1-84.915-58.444c-18.477-40.492-2.49-80.721,36.3-104.833a76.108,76.108,0,0,0,10.221-6.683,69.7,69.7,0,0,0,9.042-9.566A229.052,229.052,0,0,1,182.85,109.06c11.663,18.608,0,45.6,13.1,63.686,1.7,2.621,5.242,5.111,7.862,3.276,0-6.159,8.125-9.7,13.89-7.338a28.173,28.173,0,0,1,12.318,13.1,233.245,233.245,0,0,1,23.98,52.285Z" transform="translate(-3361.129 -3967.87)" fill="#12669e"/>
    <path id="Path_289" data-name="Path 289" d="M792.63,218.137C522.947,378.794,302.143,1067.022,202.944,1427.123c-7.469,26.208,114.53,38.264,108.5,60.934-24.111,90.68,33.416,128.158,33.416,128.158l1605.647,49.664s335.072-1282.5,179.919-1444.335S948.7,125.1,792.63,218.137Z" transform="translate(-2001.229 -3800.451)" fill="#12669e"/>
    <path id="Path_290" data-name="Path 290" d="M230.22,1143.75a6.944,6.944,0,0,1-3.145-.786,6.552,6.552,0,0,1-2.49-8.91c8.518-15.332,63.293-133.269,132.745-282.656,253.04-543.952,329.7-702.9,341.624-708.932a6.552,6.552,0,0,1,8.78,2.883,6.421,6.421,0,0,1-2.1,8.256C687.161,173.391,495.972,584.6,369.255,856.9c-69.583,149.649-124.489,267.717-133.269,283.442a6.42,6.42,0,0,1-5.766,3.407Z" transform="translate(-1745.456 -3571.984)" fill="#231f20"/>
    <path id="Path_291" data-name="Path 291" d="M366.773,185.274q-19.656,6.88-39.312,14.546c-20.967,8.125-43.375,18.87-52.416,39.312a88.846,88.846,0,0,0-2.883,45.471A1444.988,1444.988,0,0,0,331.392,559c15.725,49.14,37.478,155.415,100.508,168.65,126.193,26.208,252.385-67.879,350.928-135.1a1619.392,1619.392,0,0,0,285.538-247.93c42.982-47.306,85.439-114.006,55.824-170.353-28.043-53.334-100.508-59.755-160.656-59.23C762.386,117,556.258,120.933,366.773,185.274Z" transform="translate(-1180.022 -3895.876)" fill="#231f20"/>
    <path id="Path_292" data-name="Path 292" d="M482.635,744.343a230.641,230.641,0,0,1-46.126-4.717c-58.313-12.318-82.556-95.66-98.674-150.828l-6.552-22.277a1461.225,1461.225,0,0,1-59.624-275.186,92.78,92.78,0,0,1,3.538-48.748c9.7-22.277,32.629-33.808,55.954-42.85,13.1-5.111,26.208-10.09,40.1-14.677h0c196.562-66.7,409.9-68.8,598.334-70.5,61.983,0,136.676,6.028,166.422,62.507,31.843,60.672-13.1,130.255-56.741,178.085A1630.271,1630.271,0,0,1,792.547,604.13l-19.132,13.1C689.418,674.367,587.6,744.343,482.635,744.343ZM976.4,127.009h-6.683c-187.388,1.835-399.806,3.8-594.271,69.845h0c-13.1,4.586-26.208,9.435-39.312,14.414-20.7,8.125-40.885,18.084-48.747,36.036a83.077,83.077,0,0,0-2.49,42.064A1447.1,1447.1,0,0,0,343.862,562.59c2.228,6.552,4.455,14.283,6.814,22.539,15.2,52.416,38.133,131.041,88.846,141.655,115.447,24.243,232.6-56.217,326.816-120.951l19.132-13.1a1613.359,1613.359,0,0,0,284.36-246.881c40.622-44.685,83.211-109.288,54.775-163.146-25.683-48.485-91.466-55.693-148.207-55.693ZM373.608,190.695Z" transform="translate(-1186.595 -3901.297)" fill="#231f20"/>
    <path id="Path_293" data-name="Path 293" d="M376.711,604.224,321.15,846.781s50.844,162.884,215.038,148.994a327.6,327.6,0,0,0,241.9-144.145l66.962-446.588S737.336,324.32,811.113,74.949A792.406,792.406,0,0,1,391.781,68.79S276.858,333.624,277.12,459.555,376.711,604.224,376.711,604.224Z" transform="translate(-1099.411 -4455.303)" fill="#fff"/>
    <path id="Path_294" data-name="Path 294" d="M522.725,1008.576c-151.877,0-201.279-152.794-201.8-154.5a6.028,6.028,0,0,1,0-3.407L374.911,614.8c-22.932-7.207-98.15-39.312-98.281-149.387C276.63,340,386.574,83.033,391.291,72.288a6.551,6.551,0,0,1,7.862-3.669,795.552,795.552,0,0,0,416.056,6.29,6.552,6.552,0,0,1,8.255,7.994C752.047,324.28,854,405.132,855.045,405.918a6.289,6.289,0,0,1,2.49,6.159L790.573,858.666a7.871,7.871,0,0,1-.786,2.49c-.917,1.31-81.508,133.138-247.013,147.159C535.829,1008.183,529.146,1008.576,522.725,1008.576ZM333.895,851.327c6.028,17.691,57.527,155.284,207.569,142.7A323.277,323.277,0,0,0,777.338,854.21L843.513,412.6C825.954,397.007,745.1,310.913,807.084,89.323a819.006,819.006,0,0,1-406.227-7.731C384.87,119.462,289.34,351.405,289.472,464.363c0,118.723,93.3,138.117,94.219,138.248a7.47,7.47,0,0,1,4.324,2.883,6.551,6.551,0,0,1,.786,4.979Z" transform="translate(-1105.342 -4460.635)" fill="#231f20"/>
    <path id="Path_295" data-name="Path 295" d="M325.047,159.61a104.834,104.834,0,0,1,43.637-49.927A181.621,181.621,0,0,1,428.7,89.9a77.446,77.446,0,0,1,34.2-.917,63.546,63.546,0,0,1,21.229,11.662,80.592,80.592,0,0,1,31.712,45.865,96.579,96.579,0,0,1-4.848,45.471,189.773,189.773,0,0,1-19.656,46.257A126.848,126.848,0,0,1,315.35,277.546" transform="translate(-636.671 -4228.872)" fill="#fff"/>
    <path id="Path_296" data-name="Path 296" d="M389.8,310.236a134.446,134.446,0,0,1-72.2-21.1,6.552,6.552,0,0,1,7.076-11.007,120.165,120.165,0,0,0,166.816-37.74,183.442,183.442,0,0,0,19-44.685A90.289,90.289,0,0,0,515.2,153.38a75.221,75.221,0,0,0-29.616-41.933,57.269,57.269,0,0,0-18.87-10.614,70.889,70.889,0,0,0-31.318,1.048,178.35,178.35,0,0,0-57.658,18.477,98.676,98.676,0,0,0-40.885,46.782,6.552,6.552,0,1,1-12.055-5.111,111.645,111.645,0,0,1,46.257-52.417,192.765,192.765,0,0,1,61.851-20.049,82.949,82.949,0,0,1,37.216-.786,70.506,70.506,0,0,1,23.587,13.1,86.489,86.489,0,0,1,34.333,49.8,101.565,101.565,0,0,1-5.111,48.616,193.418,193.418,0,0,1-20.311,47.83,133.531,133.531,0,0,1-83.736,59.624A136.547,136.547,0,0,1,389.8,310.236Z" transform="translate(-642.452 -4234.436)" fill="#231f20"/>
    <path id="Path_297" data-name="Path 297" d="M362.286,248.413c-17.3,0-57-2.621-70.762-24.767-16.773-27.387,65.52-114.4,91.729-140.476a6.579,6.579,0,1,1,9.3,9.3c-49.4,50.058-97.1,111.909-89.37,124.227,10.876,17.821,52.417,19.394,66.962,18.346a6.564,6.564,0,1,1,.786,13.1S367,248.413,362.286,248.413Z" transform="translate(-952.111 -4304.571)" fill="#231f20"/>
    <path id="Path_298" data-name="Path 298" d="M316.735,862.858h-2.1a6.552,6.552,0,0,1-4.848-7.863c1.048-4.193,101.426-426.146,252.254-712.6a6.421,6.421,0,0,1,8.78-2.752,6.552,6.552,0,0,1,2.752,8.779C423.534,433.436,323.55,853.816,322.5,858.009A6.421,6.421,0,0,1,316.735,862.858Z" transform="translate(-706.066 -3607.032)" fill="#231f20"/>
    <path id="Path_299" data-name="Path 299" d="M391,236.475h-4.324a93.432,93.432,0,0,1-68.8-29.746c-36.036-39.312-32.629-104.047-32.367-106.8a6.564,6.564,0,0,1,13.1.786s-3.408,61.72,28.96,97.233a80.985,80.985,0,0,0,59.493,25.422h4.062c92.777,0,121.082-104.833,122.261-109.681a6.421,6.421,0,0,1,7.862-4.718,6.553,6.553,0,0,1,4.718,7.994C525.712,118.145,494.131,236.475,391,236.475Z" transform="translate(-1000.219 -4153.074)" fill="#231f20"/>
    <path id="Path_300" data-name="Path 300" d="M315.344,154.556s147.814,43.9,270.469-48.616c0,0-111.647,225.915-303.622,193.941Z" transform="translate(-1038.043 -4005.635)" fill="#231f20"/>
    <path id="Path_301" data-name="Path 301" d="M324.844,314.987a219.617,219.617,0,0,1-37.609-3.145,6.684,6.684,0,0,1-4.456-2.752,6.814,6.814,0,0,1-.917-5.111l33.153-145.325a6.686,6.686,0,0,1,3.145-4.193,6.29,6.29,0,0,1,5.111,0c1.441,0,146.242,41.8,264.7-47.568a6.552,6.552,0,0,1,8.124,0,6.683,6.683,0,0,1,1.7,7.863C596.361,116.59,496.115,314.987,324.844,314.987Zm-28.7-14.939C440.291,319.442,537.655,188.4,572.119,132.839c-103.26,62.769-217.4,41.933-245.833,35.25Z" transform="translate(-1043.874 -4011.175)" fill="#231f20"/>
    <path id="Path_302" data-name="Path 302" d="M788.777,726.627c-5.241-10.221-111.254-433.484-122.654-464.41C637.949,185.427,326.6,84.394,281.779,102.085S92.818,413.963,168.953,427.984a49.927,49.927,0,0,0,52.417-27.912s-53.727,85.57-4.062,105.881,79.935-32.367,79.935-32.367S262.91,537.141,307.2,535.7c24.243-.786,33.547-23.981,51.106-39.312-9.435,13.1-16.511,51.5,8.911,59.755s40.492-36.167,57.658-64.341c32.5,193.548,81.245,713.519,213.073,1177.142,43.506,152.663,214.907,219.756,343.983,95.136,169.043-163.277,10.614-435.056-50.582-615.893Z" transform="translate(-2672.632 -4076.998)" fill="#fff"/>
    <path id="Path_303" data-name="Path 303" d="M839.872,1842.324a192.372,192.372,0,0,1-49.4-6.552c-72.6-19.525-129.469-78.625-152.139-158.3C537.167,1321.7,485.406,937.616,451.335,683.4c-8.78-64.734-16.511-121.868-23.325-165.243,0,1.179-1.179,2.359-1.835,3.538-13.1,26.208-29.091,55.561-54.251,47.306a30.4,30.4,0,0,1-19.918-20.18,54.117,54.117,0,0,1-1.965-20.18,49.011,49.011,0,0,1-35.905,19.787,26.208,26.208,0,0,1-25.422-11.139,39.312,39.312,0,0,1-2.752-27.912,63.293,63.293,0,0,1-64.341,8.91,37.74,37.74,0,0,1-22.932-24.111,91.731,91.731,0,0,1,6.814-57.134,53.6,53.6,0,0,1-31.581,3.669c-10.745-1.966-24.243-9.7-26.863-35.381-3.538-35.774,15.463-101.426,50.975-175.464,27.387-57.265,65.52-118.854,87.4-127.765,32.629-13.1,167.077,26.208,261.034,68.4,52.417,23.718,118.723,59.624,131.959,95.66,6.29,16.9,38.657,142.835,69.976,264.7,24.374,94.612,49.665,192.5,52.417,199.182l143.1,422.346c10.745,31.712,24.5,65.521,39.312,102.736,67.879,170.354,152.27,382.247,9.828,519.709A221.068,221.068,0,0,1,839.872,1842.324ZM431.548,492.6h1.179a6.683,6.683,0,0,1,5.242,5.373c7.6,45.34,16.249,109.812,26.208,184.375,34.071,253.827,85.7,637.253,186.6,992.112,21.491,75.218,74.824,131.041,142.966,149.256,65.52,17.559,134.448-3.145,190.14-57,136.152-131.041,53.465-338.741-13.1-505.425-14.546-36.691-28.436-71.286-39.312-103.26L788.635,734.633c-3.407-8.911-19.132-69.714-52.416-200.755-29.878-115.84-63.686-247.144-69.714-263.393-9.042-24.9-53.465-56.217-125.013-88.322-104.833-47.044-227.618-77.183-250.813-68.141-35.119,13.89-137.724,214.645-130.124,289.732,2.1,21.229,13.1,23.063,16.118,23.718A41.016,41.016,0,0,0,219,409c2.1-3.8,3.538-6.028,3.8-6.552a6.552,6.552,0,0,1,11.532,6.159,46,46,0,0,1-4.325,7.6c-8.255,14.939-26.208,50.844-18.477,73.645a25.029,25.029,0,0,0,15.332,15.987c43.9,17.822,70.631-27.65,71.81-29.484a6.29,6.29,0,0,1,8.78-2.49,6.421,6.421,0,0,1,2.621,8.78c-7.076,13.1-15.987,37.608-9.828,47.437.786,1.31,3.276,5.373,13.1,4.98,13.89,0,22.146-10.09,31.712-21.229a126.731,126.731,0,0,1,15.987-15.07,6.421,6.421,0,0,1,8.648,0,6.814,6.814,0,0,1,.917,8.648,50.581,50.581,0,0,0-5.9,37.871,17.166,17.166,0,0,0,11.532,11.794c13.1,4.455,24.5-14.152,39.312-41.016,3.669-7.076,7.469-14.152,11.27-20.442a6.552,6.552,0,0,1,4.717-3.669Z" transform="translate(-2678.78 -4083.169)" fill="#231f20"/>
    <path id="Path_304" data-name="Path 304" d="M163.3,205.618a537.257,537.257,0,0,1,52.417-81.508" transform="translate(-2477.101 -3785.704)" fill="#fff"/>
    <path id="Path_305" data-name="Path 305" d="M169.372,218.065a6.942,6.942,0,0,1-3.145-.786,6.551,6.551,0,0,1-2.621-8.911,537.23,537.23,0,0,1,53.727-82.818,6.421,6.421,0,0,1,9.173,0,6.552,6.552,0,0,1,0,9.3,538.056,538.056,0,0,0-51.63,79.935A6.552,6.552,0,0,1,169.372,218.065Z" transform="translate(-2483.172 -3791.599)" fill="#231f20"/>
    <path id="Path_306" data-name="Path 306" d="M158.64,265.689s40.23-98.543,86.094-148.47" transform="translate(-2533.506 -3869.101)" fill="#fff"/>
    <path id="Path_307" data-name="Path 307" d="M164.657,277.268a8.255,8.255,0,0,1-2.49,0,6.552,6.552,0,0,1-3.538-8.518C160.2,264.688,199.776,168.5,245.9,118.315a6.552,6.552,0,0,1,9.566,8.78c-44.423,48.485-84.391,145.587-84.784,146.5a6.29,6.29,0,0,1-6.028,3.669Z" transform="translate(-2539.523 -3874.127)" fill="#231f20"/>
    <path id="Path_308" data-name="Path 308" d="M152.85,300.991S246.413,139.942,277.47,108.23" transform="translate(-2603.588 -3977.917)" fill="#fff"/>
    <path id="Path_309" data-name="Path 309" d="M158.981,313.621a6.291,6.291,0,0,1-3.407-.917,6.552,6.552,0,0,1-2.359-8.911c3.931-6.683,94.481-162.229,125.668-194.072a6.579,6.579,0,1,1,9.435,9.173c-30.139,30.664-122.785,189.878-123.7,191.451A6.552,6.552,0,0,1,158.981,313.621Z" transform="translate(-2609.719 -3983.994)" fill="#231f20"/>
    <path id="Path_310" data-name="Path 310" d="M941.067,286.787,154.82,208.162,168.841,104.64,948.274,237.516a25.291,25.291,0,0,1,21.36,28.043h0A25.291,25.291,0,0,1,941.067,286.787Z" transform="translate(-2579.743 -4021.37)" fill="#fff"/>
    <path id="Path_311" data-name="Path 311" d="M949.9,299.353H946.49L160.243,220.728a6.5,6.5,0,0,1-5.9-7.338l14.021-103.653a6.552,6.552,0,0,1,2.621-4.325,6.814,6.814,0,0,1,4.98-1.179L955.532,237.109a31.45,31.45,0,0,1-5.111,62.507Zm-2.1-13.1a18.384,18.384,0,0,0,4.979-36.429l-773.142-131.7L167.45,208.279Z" transform="translate(-2586.215 -4027.253)" fill="#231f20"/>
    <path id="Path_312" data-name="Path 312" d="M146.717,101.32,131.91,210.739l277.414,41.409L425.18,135Z" transform="translate(-2857.049 -4061.556)" fill="#fff"/>
    <path id="Path_313" data-name="Path 313" d="M415.429,264.8h-1.048L136.967,223.393a6.552,6.552,0,0,1-5.5-7.338L146.271,106.5a6.421,6.421,0,0,1,7.207-5.635L431.94,134.547a6.552,6.552,0,0,1,5.766,7.469L421.85,259.167a6.554,6.554,0,0,1-2.621,4.324,5.9,5.9,0,0,1-3.8,1.311ZM145.353,211.337,409.794,250.65l14.152-103.916L158.458,114.5Z" transform="translate(-2863.154 -4067.658)" fill="#231f20"/>
    <rect id="Rectangle_20" data-name="Rectangle 20" width="42.981" height="139.035" rx="1.38" transform="translate(-2451.169 -3943.258) rotate(7.69)" fill="#fff"/>
    <path id="Path_314" data-name="Path 314" d="M182.574,254.16H179.3l-6.945-.917a24.767,24.767,0,0,1-21.1-27.65l13.89-101.95a23.719,23.719,0,0,1,9.435-16.249,24.5,24.5,0,0,1,18.215-4.849l6.814.917a24.242,24.242,0,0,1,16.249,9.435,25.158,25.158,0,0,1,4.849,18.215L206.948,233.193a25.028,25.028,0,0,1-9.566,16.249A24.245,24.245,0,0,1,182.574,254.16Zm7.076-139.035a12.318,12.318,0,0,0-6.945,2.359,11.531,11.531,0,0,0-4.325,7.6L164.622,227.165a11.269,11.269,0,0,0,9.828,13.1l6.814.917h0a11.663,11.663,0,0,0,8.518-2.228,11.532,11.532,0,0,0,4.324-7.6L208,129.408a11.27,11.27,0,0,0-2.359-8.518,10.876,10.876,0,0,0-7.469-4.455l-6.945-.917Z" transform="translate(-2625.319 -4049.415)" fill="#231f20"/>
    <path id="Path_315" data-name="Path 315" d="M572.487,216.025S449.309,73.19,317.875,93.895,91.174,219.17,96.939,306.837c0,0,72.859-104.833,177.3-56.479,87.011,39.312,32.367,164.719,283.966,74.956Z" transform="translate(-3283.343 -4176.261)" fill="#12669e"/>
    <path id="Path_316" data-name="Path 316" d="M423.92,369.788c-57.92,0-76.659-28.436-96.184-57.789a118.856,118.856,0,0,0-50.189-49.533c-98.15-45.078-166.291,50.058-169.174,54.12a6.552,6.552,0,0,1-7.076,2.621,6.683,6.683,0,0,1-4.849-5.9C90.682,227.215,182.28,115.83,322.887,93.553c133.531-21.229,256.054,117.937,261.165,124.1a6.814,6.814,0,0,1,1.572,5.242L570.816,332.31a6.814,6.814,0,0,1-4.324,5.373C501.758,360.746,456.549,369.788,423.92,369.788ZM225.654,237.436a137.2,137.2,0,0,1,57.4,13.1,131.829,131.829,0,0,1,55.693,54.251c28.567,43.113,53.334,80.328,219.625,21.753l13.89-102.474C556.009,206.379,442.527,87.918,324.983,106.133,201.019,126.051,117.152,217.78,109.814,294.57,129.208,273.6,170.748,237.436,225.654,237.436Z" transform="translate(-3289.403 -4182.209)" fill="#231f20"/>
    <path id="Path_317" data-name="Path 317" d="M247.427,478.856s-4.98-18.739-19-103.391S130.014,133.17,176.009,110.892s70.107,13.1,95.4,68.272S399.3,413.2,399.3,413.2" transform="translate(-2487.713 -4027.492)" fill="#fff"/>
    <path id="Path_318" data-name="Path 318" d="M253.253,490.838a6.421,6.421,0,0,1-6.29-4.848c0-.786-5.242-20.049-19.132-104.047A740.457,740.457,0,0,0,196.25,277.11c-26.994-76.659-52.416-149.125-16.773-166.16a56.61,56.61,0,0,1,44.947-4.586c23.98,8.649,40.491,35.512,59.361,76,25.029,53.858,126.586,231.681,127.634,233.515a6.683,6.683,0,0,1-2.49,8.911,6.421,6.421,0,0,1-8.911-2.49c-4.193-7.338-102.867-180.05-128.158-234.433-16.9-36.429-32.236-62.113-52.416-69.19a44.554,44.554,0,0,0-34.857,4.062c-24.9,12.056.786,85.308,23.456,150.042A728.432,728.432,0,0,1,240.149,380.37c13.759,82.818,18.87,102.605,19,102.867a6.683,6.683,0,0,1-4.717,7.993Z" transform="translate(-2493.54 -4032.922)" fill="#231f20"/>
    <path id="Path_319" data-name="Path 319" d="M265.4,441.549S501.274,200.565,598.637,190.605s227.488,61.851,227.488,61.851l69.845,93.826L594.575,693.41Z" transform="translate(-1241.271 -2992.307)" fill="#fff"/>
    <path id="Path_320" data-name="Path 320" d="M600.774,706.06a6.551,6.551,0,0,1-4.062-1.31L267.536,452.758a6.027,6.027,0,0,1-2.621-4.718,6.425,6.425,0,0,1,1.835-4.979c9.7-9.959,238.364-242.819,337.3-252.91S829.7,249.775,835.337,252.658a4.718,4.718,0,0,1,2.1,1.835l69.845,93.825a6.552,6.552,0,0,1,0,8.124L605.884,703.7a6.287,6.287,0,0,1-5.11,2.359ZM281.427,446.992,599.856,690.6l293.794-338.61L828.13,263.535c-13.1-7.076-132.876-69.583-222.77-60.279C519,212.035,316.415,411.742,281.427,446.992Z" transform="translate(-1247.338 -2998.405)" fill="#231f20"/>
    <path id="Path_321" data-name="Path 321" d="M662.8,205s353.025,400.331,265.49,467.555C736.319,820.107,321.18,445.329,287.11,223.87Z" transform="translate(-978.49 -2806.602)" fill="#fff"/>
    <path id="Path_322" data-name="Path 322" d="M829.435,718.793a324.188,324.188,0,0,1-119.509-26.208c-189.485-76-399.151-304.67-423.262-461.658a6.811,6.811,0,0,1,1.31-5.242,6.682,6.682,0,0,1,4.849-2.358l375.563-18.87a6.422,6.422,0,0,1,5.242,2.1c11.924,13.1,291.7,332.321,280.821,445.54A43.245,43.245,0,0,1,938.2,683.8a173.889,173.889,0,0,1-108.764,34.988ZM301.34,236.3c28.7,153.056,230.894,370.977,413.959,444.36,61.851,24.9,149.387,43.768,215.432-6.945a30.271,30.271,0,0,0,11.138-22.539c9.96-102.867-248.977-403.344-275.185-433.222Z" transform="translate(-984.989 -2813.396)" fill="#231f20"/>
    <path id="Path_323" data-name="Path 323" d="M758.072,252.5c-188.306,53.6-366.915,144.145-483.28,268.9-47.306,50.582-87.535,121.213-64.341,186.471a174.808,174.808,0,0,0,71.679,81.769c124.751,83.211,284.752,83.473,434.4,91.729a82.948,82.948,0,0,1,49.926,14.152c19,15.987,20.049,44.292,29.878,67.093,28.7,66.569,120.689,71.548,192.238,59.624,139.558-23.457,277.807-72.859,386.44-163.8s184.244-227.094,180.837-368.619c-4.455-183.458-131.041-273.614-303.491-290.125C1104.545,186.189,927.377,204.4,758.072,252.5Z" transform="translate(-1988.162 -2923.287)" fill="#fff"/>
    <path id="Path_324" data-name="Path 324" d="M936.456,1040.13c-51.237,0-115.84-12.187-140.083-68.4a227.967,227.967,0,0,1-7.994-24.243A56.741,56.741,0,0,0,722.2,894.412l-44.423-2.489c-137.2-7.338-279.249-14.939-393.123-91.074-39.312-26.208-63.031-53.6-74.3-84.914-28.7-80.459,36.43-161.836,65.521-193.155,108.9-116.364,281.607-212.549,486.293-270.731h0c169.305-48.223,345.686-66.831,496.646-52.417,192.5,18.477,305.195,126.586,309.388,296.546,3.145,135.365-65.52,275.186-183.458,373.729-98.936,82.949-230.108,138.51-389.585,165.243A364.626,364.626,0,0,1,936.456,1040.13ZM766.1,264.629C563.775,322.156,393.16,417.03,285.837,531.691c-27.78,29.615-89.239,106.274-63.031,179.788C233.027,740.046,255.7,765.73,292,790.1c110.992,74.038,251.075,81.638,386.7,88.846l44.423,2.49a87.4,87.4,0,0,1,53.858,15.725,88.713,88.713,0,0,1,24.243,46.913,174.477,174.477,0,0,0,7.338,22.539c32.367,75.087,149.78,61.72,185.03,55.824,157.249-26.208,286.194-81.115,383.427-162.36C1491.94,763.9,1558.64,628.006,1555.495,496.572c-4.062-164.981-109.681-265.751-297.594-283.7-149.256-14.283-323.934,4.062-491.8,52.416Z" transform="translate(-1993.965 -2929.13)" fill="#231f20"/>
    <path id="Path_325" data-name="Path 325" d="M468.625,194.45c65.521,44.292,131.041,117.937,106.93,202.852C552.1,478.154,466,541.447,389.345,565.951a117.936,117.936,0,0,1-50.32,7.207c-20.574-2.621-48.485-19.132-43.506-43.112a116.626,116.626,0,0,1,33.153-54.382,397.058,397.058,0,0,1,50.189-44.685c-30.795-59.231-22.8-141.918,33.415-183.458" transform="translate(-883.771 -2934.3)" fill="#fff"/>
    <path id="Path_326" data-name="Path 326" d="M353.536,585.828a70.375,70.375,0,0,1-10.483,0,65.52,65.52,0,0,1-41.933-24.767,33.286,33.286,0,0,1-6.028-26.208,123.046,123.046,0,0,1,34.726-57.527,408.446,408.446,0,0,1,46.782-42.2c-27.912-58.706-21.622-142.835,37.74-186.6a6.683,6.683,0,0,1,9.173,1.441,6.552,6.552,0,0,1-1.441,9.173c-55.43,40.754-59.493,120.951-31.45,174.94a6.683,6.683,0,0,1-1.835,8.256,384.983,384.983,0,0,0-49.4,44.03,110.6,110.6,0,0,0-31.45,51.106,20.441,20.441,0,0,0,3.8,16.643,53.332,53.332,0,0,0,34.072,18.608,111.643,111.643,0,0,0,47.567-6.945c71.418-23.195,158.822-84.522,181.754-164.195C602.515,306.841,511.442,233.2,470.95,205.94a6.419,6.419,0,0,1-1.7-9.042,6.552,6.552,0,0,1,9.042-1.835c42.85,28.96,139.3,107.192,109.55,209.666-24.5,84.784-113.22,147.945-190.4,173.105a144.148,144.148,0,0,1-43.9,7.994Z" transform="translate(-889.109 -2939.893)" fill="#231f20"/>
    <ellipse id="Ellipse_9" data-name="Ellipse 9" cx="82.425" cy="47.044" rx="82.425" ry="47.044" transform="translate(-821.505 -2630.3)" fill="#231f20"/>
    <path id="Path_327" data-name="Path 327" d="M365.536,309.5c-49.8,0-88.846-23.587-88.846-53.6s39.312-53.6,88.846-53.6,88.977,23.588,88.977,53.6S415.462,309.5,365.536,309.5Zm0-94.087c-41.147,0-75.873,18.608-75.873,40.492S324.389,296.4,365.536,296.4s75.873-18.477,75.873-40.492-34.726-40.492-75.873-40.492Z" transform="translate(-1104.615 -2839.161)" fill="#231f20"/>
    <path id="Path_328" data-name="Path 328" d="M433.89,407.08S343.079,350.732,374,264.245c31.581-88.453-61.983-94.612-87.667-23.194-19.263,53.465-7.993,123.7,20.049,157.249C306.387,398.169,342.423,455.827,433.89,407.08Z" transform="translate(-1104.042 -2961.638)" fill="#fff"/>
    <path id="Path_329" data-name="Path 329" d="M372.21,439.147a78.624,78.624,0,0,1-65.52-31.45c-30.4-36.036-39.312-109.419-20.7-162.753,15.594-43.375,53.727-60.148,80.066-50.713,20.574,7.338,36.561,31.843,19.918,78.625-28.7,80.459,53.727,132.876,57.265,135.1a6.683,6.683,0,0,1,0,11.4,149.786,149.786,0,0,1-71.024,19.787Zm-21.228-234.3A61.327,61.327,0,0,0,298.565,249.4c-17.428,48.616-8.78,117.937,19,150.7,1.835,2.621,32.367,48.617,109.813,12.056-22.932-17.822-79.673-70.762-53.465-144.145,11.138-31.319,6.552-54.906-12.056-61.589a31.849,31.849,0,0,0-10.877-1.573Z" transform="translate(-1109.324 -2967.758)" fill="#231f20"/>
    <ellipse id="Ellipse_10" data-name="Ellipse 10" cx="29.615" cy="15.856" rx="29.615" ry="15.856" transform="translate(-463.73 -4219.329) rotate(-74.65)" fill="#231f20"/>
    <ellipse id="Ellipse_11" data-name="Ellipse 11" cx="29.615" cy="15.856" rx="29.615" ry="15.856" transform="translate(-671.878 -4245.95) rotate(-74.65)" fill="#231f20"/>
    <path id="Path_332" data-name="Path 332" d="M318.046,262.707c-35.25,6.159-74.431,15.725-93.563,46-15.856,25.291-13.1,58.444-1.441,85.963C251.609,463.331,325.254,503.823,398.375,516.8a374.78,374.78,0,0,0,245.178-42.064c56.216-31.057,155.546-106.8,138.641-183.458C752.71,159.054,400.078,248.293,318.046,262.707Z" transform="translate(-1870.236 -2626.207)" fill="#6c0"/>
    <path id="Path_333" data-name="Path 333" d="M420.964,218.157a129.2,129.2,0,0,0-52.416-12.187,117.146,117.146,0,0,0-44.03,13.1A332.455,332.455,0,0,0,259,259.435a77.708,77.708,0,0,0-21.228,22.67,31.056,31.056,0,0,0-.918,30.009A44.294,44.294,0,0,0,266.2,328.886,586.825,586.825,0,0,0,414.019,337.4a122.657,122.657,0,0,0,59.231-11.532C542.308,284.988,455.69,232.571,420.964,218.157Z" transform="translate(-1628.254 -2794.861)" fill="#fe4e4e"/>
    <path id="Path_334" data-name="Path 334" d="M265.027,235.085c43.375-28.3,97.757-31.581,149.518-33.154a59.1,59.1,0,0,1,40.623,8.911,39.309,39.309,0,0,1,12.056,20.574c7.862,30.532-10.876,63.555-38.133,79.673a128.419,128.419,0,0,1-117.15,4.062C288.352,301.916,230.17,257.886,265.027,235.085Z" transform="translate(-1377.181 -2851.101)" fill="#12669e"/>
    <path id="Path_335" data-name="Path 335" d="M389.5,517.569a458.246,458.246,0,0,1-52.341-3,104.832,104.832,0,0,1-59.306-21.107A78.624,78.624,0,0,1,256.1,423.482h0c9.3-63.686,65.52-153.58,131.958-180.837,43.113-17.691,87.667-15.987,119.247,4.586a96.578,96.578,0,0,1,42.85,84,352.886,352.886,0,0,1-14.939,95.4,129.864,129.864,0,0,1-27.257,60.279c-19.918,20.835-50.32,26.208-74.562,28.567C419.114,516.783,404.306,517.569,389.5,517.569ZM269.465,425.841a65.521,65.521,0,0,0,17.559,58.182,92.776,92.776,0,0,0,52.416,17.952,446.581,446.581,0,0,0,93.564.786c22.014-2.1,49.4-6.814,66.438-24.5a117.935,117.935,0,0,0,23.98-54.382,343.834,343.834,0,0,0,14.546-91.729,85.437,85.437,0,0,0-36.823-73.383C473.1,240.549,433,239.369,393.953,255.356,331.971,281.565,278.768,365.824,269.989,425.71Z" transform="translate(-1369.825 -2498.036)" fill="#d1d3d4"/>
    <path id="Path_336" data-name="Path 336" d="M358.493,456.515a46.252,46.252,0,0,1-20.835-4.586c-27.912-13.76-38.264-54.12-47.568-89.632v-2.621c-9.3-36.036-17.3-76.921,5.242-107.585s62.769-39.312,105.881-19.656c48.092,21.491,93.826,75.349,83.736,124.882-8.518,41.409-54.906,74.825-95.529,91.729A76.271,76.271,0,0,1,358.493,456.515Zm-3.8-221.459a58.444,58.444,0,0,0-49.4,24.9c-19.132,26.208-11.663,63.424-3.145,96.446h0l.655,2.621c8.518,32.891,18.084,70.107,40.623,81.115a46.782,46.782,0,0,0,40.1-2.621c37.609-16.118,80.46-46.258,87.928-82.818,8.518-41.933-32.5-90.811-76.266-110.337a104.833,104.833,0,0,0-40.491-9.3Z" transform="translate(-1055.508 -2601.832)" fill="#d1d3d4"/>
    <path id="Path_337" data-name="Path 337" d="M555.466,158.11A288.291,288.291,0,0,0,367.029,302.255C295.481,427.661,249.092,575.214,261.148,571.545S498.2,412.723,555.466,158.11Z" transform="translate(-1315.775 -3374.163)" fill="#231f20"/>
    <path id="Path_338" data-name="Path 338" d="M266.165,583.978a7.338,7.338,0,0,1-5.9-2.883c-11.4-14.283,44.816-167.733,106.536-276.235,72.2-126.717,188.306-146.373,193.154-147.159a6.552,6.552,0,0,1,7.469,7.863c-57.265,254.22-283.966,413.566-298.9,418.152Zm5.111-9.435ZM552.359,172.9A289.34,289.34,0,0,0,378.205,311.281C317.4,418.08,277.3,535.493,271.8,567.336,313.078,541.389,497.453,395.41,552.359,172.9Z" transform="translate(-1321.316 -3380.176)" fill="#231f20"/>
    <path id="Path_339" data-name="Path 339" d="M352.654,158.11S235.765,289.151,290.672,468.153C290.672,468.153,415.161,399.226,352.654,158.11Z" transform="translate(-1112.962 -3374.163)" fill="#231f20"/>
    <path id="Path_340" data-name="Path 340" d="M296.587,480.171a7.585,7.585,0,0,1-2.49,0,6.683,6.683,0,0,1-3.8-4.194c-55.3-180.968,62.244-314.5,63.424-316.2a6.814,6.814,0,0,1,6.421-1.966,6.16,6.16,0,0,1,4.718,4.718c63.03,243.213-59.886,314.5-65.521,317.251a6.946,6.946,0,0,1-2.751.394Zm58.837-301.394c-24.5,32.891-94.481,143.1-55.168,284.883C324.368,444.4,400.5,368.131,355.424,178.252Z" transform="translate(-1118.878 -3379.76)" fill="#231f20"/>
  </g>
</svg>
