<svg xmlns="http://www.w3.org/2000/svg" width="1846.35" height="1770.288" viewBox="0 0 1846.35 1770.288">
  <g id="Group_11" data-name="Group 11" transform="translate(-1756 3868)">
    <path id="Path_223" data-name="Path 223" d="M413.855,1270.955,76.56,1086.117c77.468-118.371,83.355-185.923,96.6-279.969,42.53-300.885,340.859-492.928,572.875-651.2A686.592,686.592,0,0,1,806.7,116.761c24.712-13.247,92.961-54.228,111.166-16.346,17.275,36.333-25.564,102.49-46.946,129.062A528.627,528.627,0,0,1,917.4,169.594a43.072,43.072,0,0,1,20.916-15.029c15.494-3.564,30.522,11.31,32.924,27.036s-4.183,31.452-11.465,45.706a446.063,446.063,0,0,1-64.221,94.666c17.043-19.212,80.024-91.567,78.707-18.36a175,175,0,0,1-53.53,122.012,320.111,320.111,0,0,1,46.481-34.163,21.381,21.381,0,0,1,16.733-4.338,20.064,20.064,0,0,1,11.233,16.191c10.536,46.946-15.494,80.489-33.466,120.618-13.867,30.987-22,60.657-39.741,90.792C857.9,723.645,791.2,799.253,717.839,902.208,699.712,928.7,414.862,1271.42,413.855,1270.955Z" transform="translate(1836.129 -3568.689)" fill="#fff"/>
    <path id="Path_224" data-name="Path 224" d="M416.824,1278.121a4.255,4.255,0,0,1-1.317-.387h0L78.057,1093.05a3.95,3.95,0,0,1-1.859-2.479,3.641,3.641,0,0,1,.542-3.1c72.665-110.779,81.961-177.711,93.736-262.461l2.247-15.881c41.135-290.969,321.8-481.928,547.388-635.237l27.114-18.515a662.647,662.647,0,0,1,61.045-38.734l5.423-2.944c23.24-12.7,66.313-36.255,92.961-27.579a28.974,28.974,0,0,1,17.9,15.958c9.374,19.6,2.711,46.016-8.289,69.721l1.7-1.937a46.481,46.481,0,0,1,23.24-16.191,27.346,27.346,0,0,1,21.536,4.571,38.734,38.734,0,0,1,16.114,25.719c2.556,16.733-4.106,32.924-11.775,48.03a453.168,453.168,0,0,1-29.438,49.889c11.775-8.754,22.776-13.557,30.987-10.226s13.324,15.571,13.324,35.325A178.174,178.174,0,0,1,950.965,403.2c5.81-4.028,11.775-7.747,17.9-11.543a24.557,24.557,0,0,1,19.832-4.726,23.241,23.241,0,0,1,13.867,19.057c8.6,38.734-6.2,67.707-21.846,98.694-4.028,7.747-7.747,16.036-11.853,24.4-4.88,10.845-9.064,21.769-13.17,32.3a385.634,385.634,0,0,1-26.8,58.8C886.28,692.7,842.665,750.177,796.494,811.145c-23.24,30.6-47.255,61.974-71.89,96.835-11.853,16.656-124.723,153.076-159.042,194.522-36.875,44.389-73.13,88.081-100.321,120.54C425.268,1271.3,419.536,1278.121,416.824,1278.121ZM85.494,1088.247l330.943,181.12c23.24-27.888,281.131-336.211,302.125-365.881,24.712-34.706,48.8-66.39,72.045-97.067,46.016-60.735,89.553-118.061,131.7-190.184a380.056,380.056,0,0,0,26.262-57.714c4.106-10.613,8.367-21.536,13.325-32.614,3.718-8.521,7.747-16.733,11.93-24.712,15.029-29.67,29.205-57.714,21.226-93.5-1.162-5.268-3.641-11.853-8.522-13.324a17.973,17.973,0,0,0-13.634,3.951,312.742,312.742,0,0,0-46.481,33.776,3.873,3.873,0,0,1-5.423,0,3.951,3.951,0,0,1,0-5.423,170.429,170.429,0,0,0,53.22-119.688c0-15.881-2.479-25.41-7.747-27.579-10.3-4.028-31.607,12.085-63.136,47.8l-.62.7h0a3.873,3.873,0,1,1-5.733-5.113,445.984,445.984,0,0,0,62.981-93.271c7.05-13.944,13.247-28.818,11-43.382a30.988,30.988,0,0,0-12.86-20.451,19.212,19.212,0,0,0-15.494-3.409,39.432,39.432,0,0,0-18.825,13.789c-9.916,11-19.444,22.388-28.431,34.241-9.374,14.409-17.275,24.4-18.282,25.564a3.877,3.877,0,0,1-6.2-4.648c6.12-9.064,12.472-17.973,19.135-26.649,20.142-30.987,39.586-73.362,27.579-98.617a21.459,21.459,0,0,0-13.092-12.24c-23.628-7.747-66.39,15.494-87,26.959l-5.5,3.021a663.11,663.11,0,0,0-60.347,37.959l-27.114,18.437C500.257,332.7,220.985,522.654,180.47,810.215l-2.247,15.494C166.371,911.233,157,978.01,85.494,1088.247Z" transform="translate(1832.773 -3571.982)" fill="#231f20"/>
    <path id="Path_225" data-name="Path 225" d="M627.266,673.532l47.953-290.815S227.609,206.323,220.56,202.372c-5.578-2.944-163.69,471.16-163.69,471.16Z" transform="translate(1703.285 -2775.117)" fill="#231f20"/>
    <path id="Path_226" data-name="Path 226" d="M630.885,680.8H60.178a3.873,3.873,0,0,1-3.641-5.113C213.255,205.842,220.072,203.131,222.319,202.2a4.184,4.184,0,0,1,3.331,0c7.282,3.641,300.576,119.455,454.582,180.19a3.8,3.8,0,0,1,2.4,4.183l-47.875,290.97A3.874,3.874,0,0,1,630.885,680.8ZM65.369,673.051H627.321L674.5,388.9c-40.051-15.494-410.038-161.676-449.314-178.176C211.938,238.688,124.322,496.889,65.6,673.051Z" transform="translate(1699.666 -2778.51)" fill="#231f20"/>
    <rect id="Rectangle_16" data-name="Rectangle 16" width="768.559" height="1308.046" rx="6.67" transform="matrix(0.957, -0.291, 0.291, 0.957, 1989.132, -3644.58)" fill="#231f20"/>
    <path id="Path_227" data-name="Path 227" d="M493.773,1494.108a55.541,55.541,0,0,1-53.139-39.419L90.088,302.031A55.544,55.544,0,0,1,127.04,232.31L763.594,38.641A55.467,55.467,0,0,1,832.85,75.593l350.387,1153.5a55.544,55.544,0,0,1-37.03,69.256h0l-636.476,193.67A55.312,55.312,0,0,1,493.773,1494.108ZM780.4,44.683a47.952,47.952,0,0,0-13.944,2.092L129.674,240.135a47.8,47.8,0,0,0-31.839,59.65L447.292,1452.12a47.875,47.875,0,0,0,59.65,31.839l636.477-193.67a47.8,47.8,0,0,0,32.072-58.953l-350-1152.722a47.875,47.875,0,0,0-45.706-33.931Zm365.106,1249.945Z" transform="translate(1910.372 -3895.958)" fill="#231f20"/>
    <rect id="Rectangle_17" data-name="Rectangle 17" width="687.838" height="1026.527" transform="matrix(0.957, -0.291, 0.291, 0.957, 2059.942, -3555.824)" fill="#fff"/>
    <path id="Path_228" data-name="Path 228" d="M397.414,1239a3.561,3.561,0,0,1-1.782-.465,3.717,3.717,0,0,1-1.937-2.246L95.367,254.069a3.563,3.563,0,0,1,0-2.944,3.8,3.8,0,0,1,2.247-1.859L756.091,49.321a3.873,3.873,0,0,1,4.8,2.556L1059.3,1034.093a3.873,3.873,0,0,1-2.634,4.881L398.189,1238.841A3.019,3.019,0,0,1,397.414,1239ZM103.889,255.541,399.971,1230.32l650.73-197.7L754.619,57.843Z" transform="translate(1960.87 -3808.72)" fill="#231f20"/>
    <path id="Path_229" data-name="Path 229" d="M206.548,315.882a28.818,28.818,0,0,1-27.5-20.3l-9.219-30.6a28.74,28.74,0,0,1,19.057-35.79l120.075-36.41a28.586,28.586,0,0,1,35.79,19.057l9.219,30.987a28.586,28.586,0,0,1-19.057,35.79L214.837,315.03a27.966,27.966,0,0,1-8.289.852ZM317.327,199.215a20.613,20.613,0,0,0-6.12.93L191.132,236.632a20.994,20.994,0,0,0-13.944,26.107l9.3,30.6a20.994,20.994,0,0,0,26.107,13.944L332.666,270.8h0a20.839,20.839,0,0,0,13.944-26.107l-9.3-30.6A20.916,20.916,0,0,0,317.327,199.215Z" transform="translate(2457.037 -2848.266)" fill="#d1d3d4"/>
    <path id="Path_230" data-name="Path 230" d="M120.432,124.943a3.874,3.874,0,0,1-3.719-2.711,3.951,3.951,0,0,1,2.557-4.88L327.659,54.059a4.044,4.044,0,0,1,2.324,7.747L121.517,124.478Z" transform="translate(2105.924 -3776.816)" fill="#d1d3d4"/>
    <path id="Path_231" data-name="Path 231" d="M151.112,67.989a3.951,3.951,0,0,1-3.718-2.711,3.873,3.873,0,0,1,2.634-4.88l27.966-8.444a3.873,3.873,0,1,1,2.247,7.359l-27.966,8.521a3.023,3.023,0,0,1-1.162.155Z" transform="translate(2312.838 -3792.062)" fill="#d1d3d4"/>
    <rect id="Rectangle_18" data-name="Rectangle 18" width="462.251" height="462.251" transform="matrix(0.957, -0.291, 0.291, 0.957, 2263.436, -3319.599)" fill="#68e1fd"/>
    <path id="Path_232" data-name="Path 232" d="M248.205,672.469a3.873,3.873,0,0,1-3.719-2.711L110.157,227.416a3.8,3.8,0,0,1,2.557-4.8L554.978,88.284a3.951,3.951,0,0,1,4.88,2.556L694.188,533.1a3.951,3.951,0,0,1-2.557,4.881L249.6,672.314A2.789,2.789,0,0,1,248.205,672.469ZM118.679,228.888l132.083,434.9,434.9-132.083L553.506,96.8Z" transform="translate(2149.584 -3545.867)" fill="#231f20"/>
    <rect id="Rectangle_19" data-name="Rectangle 19" width="462.251" height="117.519" transform="matrix(0.957, -0.291, 0.291, 0.957, 2397.809, -2877.389)" fill="#fff"/>
    <path id="Path_233" data-name="Path 233" d="M165.22,399.766a4.573,4.573,0,0,1-1.7-.465,3.718,3.718,0,0,1-1.859-2.324L127.494,284.571a3.951,3.951,0,0,1,2.556-4.881L572.392,145.361a3.873,3.873,0,0,1,4.8,2.556L611.358,260.4a3.951,3.951,0,0,1,0,2.944,4.028,4.028,0,0,1-2.324,1.859L166.382,399.3a3.023,3.023,0,0,1-1.162.465ZM135.938,286.12l31.917,104.969,434.9-132.083L570.843,153.96Z" transform="translate(2266.655 -3160.758)" fill="#231f20"/>
    <path id="Path_234" data-name="Path 234" d="M139.042,262.689a3.873,3.873,0,0,1-3.718-2.711,3.951,3.951,0,0,1,2.556-4.881L478.739,151.6a4.044,4.044,0,0,1,2.324,7.747L140.2,262.843Z" transform="translate(2319.482 -3118.734)" fill="#d1d3d4"/>
    <path id="Path_235" data-name="Path 235" d="M140.58,261.889a3.8,3.8,0,0,1-3.719-2.789,3.873,3.873,0,0,1,2.557-4.8L457.811,157.54a4.033,4.033,0,0,1,2.247,7.747l-318.393,96.68a2.711,2.711,0,0,1-1.084-.077Z" transform="translate(2329.875 -3078.581)" fill="#d1d3d4"/>
    <path id="Path_236" data-name="Path 236" d="M184.919,379.663a3.951,3.951,0,0,1-3.719-2.789L126.353,196.142a3.874,3.874,0,0,1,0-2.944,4.261,4.261,0,0,1,2.324-1.859l272.3-82.736a3.873,3.873,0,0,1,2.944,0,3.718,3.718,0,0,1,1.859,2.324l55.157,180.888a3.952,3.952,0,0,1,0,2.944,4.106,4.106,0,0,1-2.247,1.859l-272.3,82.736Zm-50.044-182.05,52.678,173.3L452.493,290.5,399.815,117.125Z" transform="translate(2258.112 -3409.624)" fill="#fff"/>
    <path id="Path_237" data-name="Path 237" d="M137.029,263.549a3.563,3.563,0,0,1-1.782-.465,3.874,3.874,0,0,1-1.627-5.268l69.256-130.069a3.95,3.95,0,0,1,2.247-1.937,4.1,4.1,0,0,1,3.021,0l129.914,69.721a3.883,3.883,0,0,1-3.719,6.817L207.912,134.565l-67.475,126.66A3.873,3.873,0,0,1,137.029,263.549Z" transform="translate(2306.001 -3293.51)" fill="#fff"/>
    <path id="Path_238" data-name="Path 238" d="M158.4,190.76a3.485,3.485,0,0,1-1.937-.542,3.873,3.873,0,0,1-1.472-5.268l33.156-58.333a3.951,3.951,0,0,1,4.88-1.7l66.158,28.276a3.873,3.873,0,0,1-3.021,7.127l-62.981-26.881-31.452,55.39a3.873,3.873,0,0,1-3.331,1.937Z" transform="translate(2449.946 -3299.506)" fill="#fff"/>
    <path id="Path_239" data-name="Path 239" d="M176.257,173.532a28.074,28.074,0,1,1,26.881-36.178h0a28.043,28.043,0,0,1-18.67,34.938A27.423,27.423,0,0,1,176.257,173.532Zm0-48.34a19.522,19.522,0,0,0-5.965.852,20.3,20.3,0,0,0,11.775,38.734,20.529,20.529,0,0,0,12.085-9.916,20.142,20.142,0,0,0,1.472-15.494h0a20.3,20.3,0,0,0-19.367-14.409Z" transform="translate(2407.688 -3348.358)" fill="#fff"/>
    <circle id="Ellipse_8" data-name="Ellipse 8" cx="45.629" cy="45.629" r="45.629" transform="translate(2148.501 -3494.613)" fill="#d1d3d4"/>
    <path id="Path_256" data-name="Path 256" d="M126.132,199.028a3.874,3.874,0,0,1-3.719-2.711,3.951,3.951,0,0,1,2.557-4.88L542.6,64.621a3.873,3.873,0,0,1,4.8,2.556,3.951,3.951,0,0,1-2.556,4.88L127.217,198.873Z" transform="translate(2144.381 -3705.494)" fill="#d1d3d4"/>
    <path id="Path_257" data-name="Path 257" d="M128.038,203.471a3.917,3.917,0,0,1-1.162-7.747L544.505,69.141a3.873,3.873,0,0,1,4.8,2.556,3.951,3.951,0,0,1-2.556,4.88L129.122,203.316Z" transform="translate(2153.089 -3674.999)" fill="#d1d3d4"/>
    <path id="Path_258" data-name="Path 258" d="M128.872,197.939a3.873,3.873,0,0,1-3.719-2.711,3.951,3.951,0,0,1,2.556-4.88L505.986,75.152a3.8,3.8,0,0,1,4.8,2.634,3.718,3.718,0,0,1-2.556,4.8L129.957,197.784a2.634,2.634,0,0,1-1.085.155Z" transform="translate(2162.867 -3634.528)" fill="#d1d3d4"/>
    <path id="Path_259" data-name="Path 259" d="M140.442,344.223a3.873,3.873,0,0,1-3.718-2.711,3.951,3.951,0,0,1,2.556-4.88l559.163-169.81a3.873,3.873,0,0,1,4.8,2.556,3.951,3.951,0,0,1-2.557,4.88L141.527,344.068A2.787,2.787,0,0,1,140.442,344.223Z" transform="translate(2240.928 -3015.972)" fill="#d1d3d4"/>
    <path id="Path_260" data-name="Path 260" d="M1138.825,879.039S960.261,437.472,840.341,278.508c-16.346-21.691-38.734-26.649-55.39-17.043-19.6,11.31-23.24,53.3-23.24,53.3s-47.41-31.452-71.426-27.191-29.128,40.9-29.128,40.9-51.516-20.529-74.369-3.486S561.146,375.5,561.146,375.5s-262.616-237.9-291.9-258.355-86.377,8.754-61.974,49.5c15.494,25.332,146.1,171.9,188.557,218.537S535.814,557.238,545.265,592.951s16.888,76-55.312,76.151-137.118,8.444-170.429,32.614-56.552,62.517-41.29,71.27,245.728,17.043,339.7,61.974,206.994,201.959,206.994,201.959Z" transform="translate(2298.625 -3395.543)" fill="#fff"/>
    <path id="Path_261" data-name="Path 261" d="M828.477,1044.413a3.8,3.8,0,0,1-3.1-1.549c-1.162-1.549-113.568-156.563-205.6-200.719-64.066-30.987-194.367-44.544-272.222-52.678-42.065-4.416-62.439-6.662-67.707-9.683a13.48,13.48,0,0,1-6.662-11.62c-.852-16.81,20.529-46.481,47.643-66.235,30.29-22,88.391-33.234,172.6-33.311,25.8,0,42.995-5.5,51.129-16.036,10.381-13.557,5.965-34.706.465-55.235C535.881,563.027,440.6,439.775,396.439,391.2S222.833,197.533,207.417,172.046a36.333,36.333,0,0,1,5.655-47.953c14.641-13.712,42.452-20.219,61.974-6.74,27.191,18.98,248.439,218.924,286.631,253.785a75.917,75.917,0,0,1,26.107-45.861c20.529-15.494,60.425-3.254,73.75,1.394,2.324-10.613,10.148-35.713,30.987-39.509s55.7,16.268,69.024,24.4c1.859-12.627,7.747-40.593,24.325-50.122,19.444-11.233,43.692-3.951,60.347,18.128,118.836,157.57,297.167,597.045,298.949,601.461a3.8,3.8,0,0,1-1.782,4.88l-313.59,158.112a3.564,3.564,0,0,1-1.317.388ZM249.947,118.129a47.8,47.8,0,0,0-31.607,12.008,28.431,28.431,0,0,0-4.261,38.734C228.953,193.583,359.022,339.3,402.171,386.788c39.663,43.614,140.217,171.2,150.365,209.163,5.965,22.388,10.691,45.629-1.782,61.974-9.839,12.782-28.586,18.98-57.326,19.057-82.5,0-139.055,10.845-168.028,31.839-27.036,19.6-45.164,47.1-44.467,59.5a5.81,5.81,0,0,0,2.789,5.345c4.028,2.324,33.466,5.423,64.608,8.676,78.32,8.212,209.163,22,274.856,53.375,88.081,42.375,190.649,178.951,206.529,200.564l307.393-154.936c-16.656-40.98-183.832-446.912-296.625-596.5-14.177-18.825-34.4-25.177-50.277-16.036-14.719,8.444-20.3,38.734-21.3,50.277a3.8,3.8,0,0,1-5.965,2.866c-.465,0-46.481-30.445-68.559-26.494-20.994,3.719-25.952,37.262-26.029,37.572a3.874,3.874,0,0,1-1.859,2.866,4.029,4.029,0,0,1-3.409,0c-.465,0-49.734-19.522-70.651-4.028s-24.015,47.41-24.093,47.72a3.8,3.8,0,0,1-2.4,3.331,3.873,3.873,0,0,1-4.028-.775c-2.634-2.4-262.771-237.981-291.512-258.045A35.326,35.326,0,0,0,249.947,118.129Z" transform="translate(2295.382 -3398.931)" fill="#231f20"/>
    <path id="Path_262" data-name="Path 262" d="M828.332,708.476c-40.051-121.935-162.683-513.535-168.26-511.288S271.26,381.717,271.26,381.717l23.24,327.07Z" transform="translate(2770.251 -2810.372)" fill="#231f20"/>
    <path id="Path_263" data-name="Path 263" d="M831.778,715.383H297.87A3.873,3.873,0,0,1,294,711.742L270.756,384.75a3.95,3.95,0,0,1,2.246-3.8C288.5,373.6,655,200.144,661.891,197.046a4.337,4.337,0,0,1,3.253,0c5.423,2.4,22.621,51.826,119.688,356.352,20.917,65.46,38.734,121.934,50.509,157.182a3.874,3.874,0,0,1-3.641,5.113Zm-530.345-7.747h525c-11.62-35.48-28.973-89.785-48.882-152.224C733.317,416.977,673.434,229.427,662.2,205.49c-34.473,16.191-352.479,166.633-383.389,181.352Z" transform="translate(2766.804 -2813.405)" fill="#231f20"/>
    <path id="Path_264" data-name="Path 264" d="M85.51,774.674s69.334-521.127,129.216-577.058c71.116-66.312,135.879-111.4,147.731-73.44s23.24,101.1-74.214,172.211L302.42,422.814s95.673,66.08,45.861,274.7" transform="translate(1896.513 -3396.146)" fill="#fff"/>
    <path id="Path_265" data-name="Path 265" d="M88.577,781.3h-.465a3.564,3.564,0,0,1-3.021-4.028c2.789-21.3,70.186-523.063,130.3-579.15,68.714-64.143,115.35-93.659,138.59-87.461a21.226,21.226,0,0,1,14.951,15.494c26.959,86.222-24.867,138.823-73.9,175l13.789,122.787c12.085,9.219,92.961,79.869,45.938,277.413a3.468,3.468,0,1,1-6.74-1.627c48.65-203.9-43.537-270.286-44.467-271.138a3.331,3.331,0,0,1-1.472-2.479L287.825,299.685a3.331,3.331,0,0,1,1.472-3.254c90.56-66.313,86.532-124.8,72.975-168.415A14.409,14.409,0,0,0,352.2,117.248c-20.142-5.268-66.932,25.177-131.7,85.834C162.249,257.31,93.07,772.781,92.373,777.972a3.563,3.563,0,0,1-3.8,3.331Z" transform="translate(1893.446 -3399.212)" fill="#231f20"/>
  </g>
</svg>
