<svg xmlns="http://www.w3.org/2000/svg" width="2839.703" height="2451.792" viewBox="0 0 2839.703 2451.792">
  <g id="Group_9" data-name="Group 9" transform="translate(-1013.607 -226.21)">
    <path id="Path_1" data-name="Path 1" d="M1269.29,1214.212S1612.345,319.33,1434.62,182.858,511.506,101.5,470.668,150.251,189.39,1276.2,189.39,1276.2Z" transform="translate(2133.516 801.64)" fill="#8f8f8f" stroke="#fff" stroke-width="1"/>
    <path id="Path_2" data-name="Path 2" d="M194,1286a5.418,5.418,0,0,1-3.959-1.771,5,5,0,0,1-1.042-4.48c9.793-44.067,241.587-1079.067,282.841-1128.239,22.607-26.982,221.585-52.089,434.523-54.9,125.013-1.667,428.064,3.438,536.617,86.675,75.529,57.923,70.736,250.025-14.168,572.141-62.506,238.253-148.661,462.755-149.494,464.943a5.1,5.1,0,0,1-4.583,3.334L194.313,1286.211ZM945.743,106.717H906.572c-218.772,2.917-408.9,29.9-427.126,51.255-31.253,37.608-195.436,743.1-279.195,1117.092l1070.212-61.673c21.981-58.235,333.367-893.632,165.85-1022.082C1365.785,137.241,1187.955,106.717,945.743,106.717ZM1274.422,1218.6Z" transform="translate(2128.385 797.252)" fill="#fff"/>
    <path id="Path_3" data-name="Path 3" d="M299.1,150.411,144.5,669.317s318.886,41.15,318.886,29.378,62.506-571,62.506-571Z" transform="translate(1710.755 1092.239)" fill="#fff"/>
    <path id="Path_4" data-name="Path 4" d="M452.035,710.478c-53.859,0-206.687-18.543-303.468-31.253a5.314,5.314,0,0,1-4.376-6.668l154.6-518.906a5.209,5.209,0,0,1,4.479-3.751l226.9-22.711a5.1,5.1,0,0,1,4.167,1.563,4.791,4.791,0,0,1,1.458,4.167c-21.565,192.728-62.506,559.952-62.506,570.474a6.667,6.667,0,0,1-2.084,4.479A43.026,43.026,0,0,1,452.035,710.478Zm10.418-6.98ZM155.547,669.953c110.844,14.168,282.945,33.858,307.114,30.419,3.959-45,54.693-499.217,61.673-561.827l-216.9,21.773Z" transform="translate(1706.063 1087.228)" fill="#231f20"/>
    <path id="Path_5" data-name="Path 5" d="M176.34,119.252c1.354,1.458,56.256-13.23,84.592,20.836s-8.438,64.486-97.927,46.88S176.34,119.252,176.34,119.252Z" transform="translate(1540.463 994.53)" fill="#fff"/>
    <path id="Path_6" data-name="Path 6" d="M215.015,201.3a254.506,254.506,0,0,1-48.234-5.1c-25.836-5.1-39.171-13.439-40.733-25.628-3.021-23.544,43.442-47.4,52.818-52.089a5.21,5.21,0,0,1,3.334,0h3.438c14.585-1.771,58.964-7.4,84.175,22.815,11.251,13.335,13.647,26.982,6.98,38.441C268.145,193.387,245.747,201.3,215.015,201.3ZM182.3,128.381c-20.315,10.418-47.088,28.753-45.63,40.317,0,3.855,5.417,11.147,32.191,16.46,60.527,11.876,90.947.833,98.656-12.189a23.023,23.023,0,0,0-5.938-26.044c-21.461-25.628-60.11-20.835-74.591-18.96A20.831,20.831,0,0,1,182.3,128.381Z" transform="translate(1535.646 990.506)" fill="#231f20"/>
    <path id="Path_7" data-name="Path 7" d="M123.884,131.712s-11.251-12.918-4.167-21.981a15.314,15.314,0,0,1,24.794,2.292S126.8,118.378,123.884,131.712Z" transform="translate(1455.302 873.204)" fill="#fff"/>
    <path id="Path_8" data-name="Path 8" d="M128.721,141.85a5.418,5.418,0,0,1-4.063-1.771c-5.209-6.042-12.085-18.96-4.271-28.753a18.752,18.752,0,0,1,14.9-7.4,22.815,22.815,0,0,1,18.127,9.48,5.208,5.208,0,0,1,1.042,4.9,5.313,5.313,0,0,1-3.334,3.646c-4.167,1.458-15.314,7.292-17.189,15.731a5.314,5.314,0,0,1-3.855,4.063Zm6.772-27.19h0a8.542,8.542,0,0,0-6.563,3.23,8.021,8.021,0,0,0,0,7.4A40.937,40.937,0,0,1,140.18,115.7a8.438,8.438,0,0,0-4.584-.625Z" transform="translate(1450.464 868.379)" fill="#231f20"/>
    <path id="Path_9" data-name="Path 9" d="M143.339,105.12a28.128,28.128,0,0,0-25.419,23.127L341.38,419.006a62.507,62.507,0,0,1,53.443-55.735Z" transform="translate(1460.432 879.586)" fill="#fff"/>
    <path id="Path_10" data-name="Path 10" d="M346.149,429.216a5.313,5.313,0,0,1-4.167-2.084L118.522,136.374a5.417,5.417,0,0,1-.938-4.688A33.962,33.962,0,0,1,148.212,104.6a5.417,5.417,0,0,1,3.855,1.667L403.551,364.418a5.209,5.209,0,0,1,1.25,5.417,5.313,5.313,0,0,1-4.167,3.646,57.089,57.089,0,0,0-49.068,50.839,5.314,5.314,0,0,1-3.854,4.688ZM128.731,132.1,343.44,411.4a66.673,66.673,0,0,1,45.734-46.359l-242.941-249.4a22.919,22.919,0,0,0-17.5,16.46Z" transform="translate(1455.559 874.689)" fill="#231f20" stroke="#fff" stroke-width="0.5"/>
    <path id="Path_11" data-name="Path 11" d="M139.747,185.775l76.258,39.587,9.48-8.855L193.19,130.04S133.809,124.1,139.747,185.775Z" transform="translate(1662.064 1112.817)" fill="#fff"/>
    <path id="Path_12" data-name="Path 12" d="M221.275,235.627a5,5,0,0,1-2.5-.625l-76.258-39.587a5.313,5.313,0,0,1-2.917-4.271,55.421,55.421,0,0,1,13.439-46.671,62.506,62.506,0,0,1,45.942-14.9,5.417,5.417,0,0,1,4.584,3.542l32.191,86.467a5.312,5.312,0,0,1-1.354,5.834l-9.48,8.855A5.523,5.523,0,0,1,221.275,235.627Zm-71.153-48.338,70.216,36.462L224.5,220,194.71,140.2a50.943,50.943,0,0,0-34.17,11.876,43.754,43.754,0,0,0-10.417,35.212Z" transform="translate(1656.794 1107.865)" fill="#231f20"/>
    <path id="Path_13" data-name="Path 13" d="M146.69,147.055l14.585,15.627,6.876-7.813L156.17,138.2Z" transform="translate(1731.38 1191.125)" fill="#fff"/>
    <path id="Path_14" data-name="Path 14" d="M166.172,172.945a5,5,0,0,1-3.854-1.771l-14.689-15.627a5.729,5.729,0,0,1-1.459-3.855,5.52,5.52,0,0,1,1.771-3.75l9.48-8.855a5.417,5.417,0,0,1,8.022.833l11.98,16.669a5.313,5.313,0,0,1,0,6.667l-6.876,7.813a5.105,5.105,0,0,1-3.959,1.875Zm-6.98-20.835,6.876,7.4h0l-5.938-8.23Z" transform="translate(1726.482 1186.278)" fill="#231f20"/>
    <path id="Path_15" data-name="Path 15" d="M310.282,337.849c12.293-24.9,43.129-77.716,50.214-100.635,19.585-62.506-95.114-121.054-132.2-121.054S113.7,245.756,113.7,315.034,370.5,914.782,370.5,914.782L616.876,802.063Z" transform="translate(1420.689 983.558)" fill="#fff"/>
    <path id="Path_16" data-name="Path 16" d="M375.424,925.1a5.314,5.314,0,0,1-4.792-3.02C360.214,900.407,113.21,389.522,113.21,319.931S191.551,115.64,232.91,115.64c28.544,0,94.905,30.42,125.013,70.841a62.506,62.506,0,0,1,12.814,57.3,572.356,572.356,0,0,1-34.8,71.361c-5.521,10.418-10.418,19.794-14.377,27.19L626.7,803.834a5.627,5.627,0,0,1,.73,4.48,5.416,5.416,0,0,1-2.917,3.333L378.028,924.576a3.957,3.957,0,0,1-2.6.521ZM232.91,126.37c-32.607,0-108.865,125.013-108.865,193.561,0,63.756,228.461,539.742,253.88,592.768L613.885,804.563,310.417,346.184a5.626,5.626,0,0,1,0-5.417c3.959-7.917,9.688-18.648,15.939-30.316a568.959,568.959,0,0,0,33.962-69.486,52.088,52.088,0,0,0-11.147-47.713C320.106,153.769,256.87,126.37,232.91,126.37Z" transform="translate(1416.074 978.661)" fill="#231f20"/>
    <path id="Path_17" data-name="Path 17" d="M1222.774,740.541l303.676-77.4c-10.417-14.689-132.93-403.582-262.11-467.235C1151.308,120.9,883.261,70.89,646.466,87.871c0,0-62.506-2.292-172.1,41.15C207.464,235.073,156,604.381,156,604.381l208.354,71.986s-39.8,477.652-77.4,727.365c0,0,460.672,90.113,1131.364-20.835C1418.835,1382.689,1224.024,811.173,1222.774,740.541Z" transform="translate(1819.059 685.877)" fill="#12669e"/>
    <path id="Path_18" data-name="Path 18" d="M976.655,427.091c-40.213,41.671-71.57,91.676-115.949,130.951C765.071,642.634,639.954,709.62,508.8,701.494c-154.6-9.584-288.258-115.22-321.8-269.09-20.836-96.468.833-186.06,75.424-254.192,51.568-47.088,117.616-75.841,185.123-93.759,179.289-48.026,380.455-22.5,533.491,82.717a190.437,190.437,0,0,1,61.673,61.256c38.233,69.278-5.729,140.535-55.318,188.144C984.051,419.8,980.509,423.445,976.655,427.091Z" transform="translate(2040.175 465.418)" fill="#12669e"/>
    <path id="Path_19" data-name="Path 19" d="M234.094,175.688c-1.562,0-30.315,35-31.774,35.524,16.356,61.673,33.649,141.993,103.448,149.911C447.345,377.271,468.805,188.5,495.474,99.43,397.444,126.933,328.27,137.976,234.094,175.688Z" transform="translate(2255.287 826)" fill="#231f20"/>
    <path id="Path_20" data-name="Path 20" d="M327.084,372.35A161.551,161.551,0,0,1,310,371.308c-69.695-7.917-89.384-83.341-105.323-143.66l-2.709-10.418a5.209,5.209,0,0,1,2.084-5.521c1.667-1.563,9.272-10.418,14.793-16.877,16.148-18.544,16.356-18.648,18.023-19.377h0a1296.03,1296.03,0,0,1,177.1-54.276c26.565-6.667,53.964-13.543,84.383-22.086a5.209,5.209,0,0,1,5.1,1.354,5.417,5.417,0,0,1,1.25,5.1c-3.959,13.23-7.813,28.857-11.981,45.421C471.161,240.15,438.137,372.246,327.084,372.35ZM212.489,217.856l1.875,7.188c15.939,60.423,33.857,128.867,96.468,135.43,115.949,13.23,148.348-117.1,172.1-212.313,3.229-13.022,6.355-25.523,9.48-36.774-26.982,7.4-52.089,13.647-75.737,19.689a1257.087,1257.087,0,0,0-175.435,53.547c-2.084,2.084-9.376,10.418-14.793,16.773-7.292,9.376-11.355,13.96-13.647,16.46Zm-5.73-1.563ZM240.408,185.04Z" transform="translate(2250.535 821.023)" fill="#231f20"/>
    <path id="Path_21" data-name="Path 21" d="M701.565,76.52c-20.836-.833-34.17,8.23-52.089,14.689-34.9,12.293-51.151-16.877-81.154-32.4a230.544,230.544,0,0,0-285.862,59.9A172.2,172.2,0,0,0,243.6,205.179c-4.375,36.045,5.73,72.924-.521,108.553a122.617,122.617,0,0,1-75.841,91.676,292.214,292.214,0,0,0,99.177-9.376,100.948,100.948,0,0,1-75.424,35.941,187.52,187.52,0,0,0,115.949,38.858L233.5,488.02C296,528.128,372.156,540.109,445.81,536.775c146.681-7.6,392.331-67.611,388.06-257.63C831.473,206.325,791.47,80.687,701.565,76.52Z" transform="translate(1924.914 198.531)" fill="#fff" stroke="#b5b0b0" stroke-width="1"/>
    <path id="Path_22" data-name="Path 22" d="M425.65,547.555c-56.151,0-128.034-10.418-190.332-50.214a5.313,5.313,0,0,1-2.292-5.313,5.521,5.521,0,0,1,3.959-4.167l40.837-9.48a193.769,193.769,0,0,1-85.425-37.3,5.209,5.209,0,0,1,3.125-9.376,95.531,95.531,0,0,0,58.652-21.356,293.68,293.68,0,0,1-82.717,5.209,5.209,5.209,0,0,1-4.688-4.48,5.1,5.1,0,0,1,3.334-5.626,116.887,116.887,0,0,0,72.924-87.613,232.1,232.1,0,0,0,.625-56.464,278.349,278.349,0,0,1,0-52.089,177.727,177.727,0,0,1,40-89.176A235.649,235.649,0,0,1,575.977,58.964a173.78,173.78,0,0,1,25.211,16.773C618.065,88.55,631.4,98.655,653.277,91.05c4.688-1.667,9.063-3.542,13.335-5.313a89.383,89.383,0,0,1,41.046-9.688h0c90.217,3.959,135.43,126.263,136.889,207.729,1.875,86.363-45.317,154.391-140.327,202s-208.354,58.652-252.63,60.944C442.839,547.347,434.4,547.555,425.65,547.555ZM251.674,495.466c67.3,39.066,144.494,44.275,198.562,41.671,43.338-2.292,154.182-12.605,248.462-59.9,91.155-45.63,136.368-110.324,134.6-192.415-1.771-77.508-43.338-193.874-126.888-197.937a82.3,82.3,0,0,0-36.566,8.855c-4.48,1.875-9.063,3.855-13.96,5.521-26.982,9.48-43.859-3.334-61.673-16.877A160.736,160.736,0,0,0,570.56,68.653a225.022,225.022,0,0,0-279.4,58.443,167.413,167.413,0,0,0-37.816,83.342,266.253,266.253,0,0,0,0,49.9,242.94,242.94,0,0,1-.833,58.964,127.409,127.409,0,0,1-60.11,86.363,291.688,291.688,0,0,0,76.883-10.418,5.209,5.209,0,0,1,5.834,2.188,5.314,5.314,0,0,1,0,6.146,106.574,106.574,0,0,1-64.8,36.67A182.31,182.31,0,0,0,311.68,469.839a5.1,5.1,0,0,1,5.209,4.584,5.209,5.209,0,0,1-3.959,5.73Z" transform="translate(1919.863 193.898)" fill="#231f20"/>
    <path id="Path_23" data-name="Path 23" d="M357.277,527.662,367.7,707.055s81.987,93.76,187.519,36.15S656.683,594.231,656.683,594.231L587.4,257.426S491.666,235.341,467.289,46.78A578.809,578.809,0,0,1,184.76,166.688s1.875,210.959,39.067,294.821S357.277,527.662,357.277,527.662Z" transform="translate(2089.912 330.157)" fill="#fff"/>
    <path id="Path_24" data-name="Path 24" d="M490.927,771.994c-71.674,0-121.575-55.735-122.2-56.568a4.9,4.9,0,0,1-1.25-3.125L357.06,538.429c-21.981,2.188-100.322,4.271-133.347-70.215-37.191-83.342-39.379-288.258-39.483-296.9a5.313,5.313,0,0,1,4.479-5.209A579.643,579.643,0,0,0,468.53,47.546a5.209,5.209,0,0,1,5.313-.938,5.313,5.313,0,0,1,3.334,4.167c12.293,95.426,43.338,146.369,67.194,172.413a109.386,109.386,0,0,0,48.963,33.753A5.313,5.313,0,0,1,597.188,261L666.57,598.122c0,1.771,3.125,96.051-104.177,154.6a147.931,147.931,0,0,1-71.465,19.273ZM377.687,709.488c10.418,11.355,85.009,85.738,180.122,33.753,101.26-55.422,98.76-143.452,98.76-144.285L587.916,265.589c-17.293-5.73-95.635-40.317-119.491-204.916A599.125,599.125,0,0,1,195.064,175.267c0,31.253,5.209,213.146,38.441,288.258,35.108,78.966,124.075,64.069,127.825,63.444a5.314,5.314,0,0,1,4.167.937,5.625,5.625,0,0,1,1.979,3.855Z" transform="translate(2084.921 325.224)" fill="#231f20"/>
    <path id="Path_25" data-name="Path 25" d="M227.477,226.585A93.76,93.76,0,0,0,296.859,209.5a100.322,100.322,0,0,0,37.3-90.842A83.344,83.344,0,0,0,323.736,82.3a44.275,44.275,0,0,0-29.482-22.086,71.259,71.259,0,0,0-43.546,11.564C230.5,82.2,229.873,93.759,218.83,110.844c1.25-1.563,2.188-5.938,3.438-7.5" transform="translate(2410.773 455.382)" fill="#fff"/>
    <path id="Path_26" data-name="Path 26" d="M246.029,237.61a101.075,101.075,0,0,1-14.793-1.146,5.313,5.313,0,0,1-4.375-6.042,5.1,5.1,0,0,1,5.938-4.271,88.239,88.239,0,0,0,65.319-16.356,95.01,95.01,0,0,0,35.107-86.259,77.617,77.617,0,0,0-9.272-34.17,39.275,39.275,0,0,0-25.836-19.377C285.2,67.7,272.281,73.635,257.905,81.032a44.068,44.068,0,0,0-21.669,23.336c-2.188,3.959-4.584,8.438-7.813,13.335a4.586,4.586,0,0,1-.834,1.146,5.217,5.217,0,0,1-8.334-6.251h0a3.37,3.37,0,0,1,.729-2.083,20.854,20.854,0,0,1,2.6-5.313,5.421,5.421,0,0,1,1.979-1.458l1.98-3.75A54.8,54.8,0,0,1,252.8,72.281c12.293-6.355,29.274-15.106,46.671-12.085a49.693,49.693,0,0,1,33.753,24.586,88.239,88.239,0,0,1,10.418,38.65,104.906,104.906,0,0,1-39.379,95.322,98.449,98.449,0,0,1-58.235,18.856Z" transform="translate(2406.181 450.712)" fill="#231f20"/>
    <path id="Path_27" data-name="Path 27" d="M206.737,249.481a126.262,126.262,0,0,0,100.114-62.506c36.775-61.36,22.086-100.635,22.086-100.635s-49.589,63.236-127.617,68.34Z" transform="translate(2245.869 702.722)" fill="#231f20"/>
    <path id="Path_28" data-name="Path 28" d="M211.455,258.4a5.1,5.1,0,0,1-5.1-4.9l-5.521-93.759a5.209,5.209,0,0,1,4.9-5.521c74.7-4.792,123.346-65.632,123.866-66.257a5.21,5.21,0,0,1,4.9-1.979,5.313,5.313,0,0,1,4.063,3.334c.625,1.667,15.106,42.3-22.606,105.115a130.116,130.116,0,0,1-104.177,64.486Zm0-94.8,4.9,84.071a122.721,122.721,0,0,0,90.53-59.173c24.9-41.671,25.523-72.091,23.648-86.675A196.061,196.061,0,0,1,211.455,163.6Z" transform="translate(2241.151 698.903)" fill="#231f20"/>
    <path id="Path_29" data-name="Path 29" d="M223.471,65.57S184.4,168.5,202.114,180.79s55.11-7.292,55.11-7.292" transform="translate(2209.968 507.116)" fill="#fff"/>
    <path id="Path_30" data-name="Path 30" d="M221.984,194.781a31.252,31.252,0,0,1-18.439-5c-19.586-13.543,10.417-96.26,19.377-121.366a5.195,5.195,0,1,1,9.688,3.75c-18.127,47.817-31.253,103.135-23.127,108.969,12.4,8.542,40.108-2.5,49.693-7.5a5.313,5.313,0,0,1,7.084,2.188,5.209,5.209,0,0,1-2.292,6.98,102.927,102.927,0,0,1-41.983,11.98Z" transform="translate(2205.515 502.397)" fill="#231f20"/>
    <ellipse id="Ellipse_1" data-name="Ellipse 1" cx="15.106" cy="21.356" rx="15.106" ry="21.356" transform="matrix(0.952, -0.308, 0.308, 0.952, 2482.768, 534.089)" fill="#231f20"/>
    <ellipse id="Ellipse_2" data-name="Ellipse 2" cx="15.106" cy="21.356" rx="15.106" ry="21.356" transform="translate(2348.85 561.667) rotate(-0.78)" fill="#231f20"/>
    <path id="Path_31" data-name="Path 31" d="M258.545,197.921a47.921,47.921,0,0,1-28.128-8.23C197.6,165.73,195.206,112.808,195.1,110.517a5.313,5.313,0,0,1,4.167-5.313c134.805-29.482,136.264-28.44,138.66-26.669a5.625,5.625,0,0,1,2.188,3.75h0a134.391,134.391,0,0,1-8.438,61.881A85.217,85.217,0,0,1,277.4,195.213,68.856,68.856,0,0,1,258.545,197.921Zm-52.61-83.342c1.25,12.605,6.876,49.484,30.42,66.569a44.587,44.587,0,0,0,37.816,4.167,75.32,75.32,0,0,0,47.922-44.9,120.537,120.537,0,0,0,7.917-52.089c-17.918,3.229-81.154,16.773-124.075,26.148Z" transform="translate(2187.29 622.185)" fill="#231f20"/>
    <path id="Path_32" data-name="Path 32" d="M292.509,89.575c-20,48.338-70.111,59.9-93.759,43.129,5.313-18.439,15-37.608,33.024-44.588A87.926,87.926,0,0,1,292.509,89.575Z" transform="translate(2221.666 675.11)" fill="#231f20"/>
    <path id="Path_33" data-name="Path 33" d="M228.517,149.666a48.132,48.132,0,0,1-28.128-8.126,5.105,5.105,0,0,1-1.875-5.626c7.084-25.419,19.273-41.671,36.045-48.026a93.76,93.76,0,0,1,64.069,1.354,5.314,5.314,0,0,1,3.021,2.813,5.524,5.524,0,0,1,0,4.063,85.426,85.426,0,0,1-54.276,50.943A69.172,69.172,0,0,1,228.517,149.666Zm-18.96-14.689a46.567,46.567,0,0,0,34.587,2.083,74.175,74.175,0,0,0,45.63-39.8,81.57,81.57,0,0,0-51.464,0C225.5,102.473,216.12,115.183,209.557,134.977Z" transform="translate(2217.318 670.337)" fill="#231f20"/>
    <path id="Path_37" data-name="Path 37" d="M407.89,196.44H2549.773l343.681,627.667H64.21Z" transform="translate(954.606 1739.612)"/>
    <path id="Path_38" data-name="Path 38" d="M2898.106,834.025H68.863a5.312,5.312,0,0,1-4.48-2.5,5.417,5.417,0,0,1,0-5.208L408.168,198.649a5.1,5.1,0,0,1,4.584-2.708h2141.57a5.1,5.1,0,0,1,4.583,2.708L2902.69,826.317a5.417,5.417,0,0,1,0,5.209A5.312,5.312,0,0,1,2898.106,834.025ZM77.718,823.608H2889.251L2551.3,206.358H415.668Z" transform="translate(949.953 1734.903)" fill="#fff"/>
    <path id="Path_39" data-name="Path 39" d="M100.39,205.412l4.584-19.794c10.418-19.794,21.981-33.128,48.859-33.128H1173.415a57.089,57.089,0,0,1,54.693,41.046l165.746,569.432a50.839,50.839,0,0,1-28.232,63.652l-18.023,4.271Z" transform="translate(1295.339 1325.704)" fill="#fff"/>
    <path id="Path_40" data-name="Path 40" d="M1352.26,841a6.155,6.155,0,0,1-2.292-.521L102.759,214.789a5.1,5.1,0,0,1-2.709-5.834l4.584-19.794a6.782,6.782,0,0,1,0-1.354c10.418-18.856,22.4-35.837,53.443-35.837H1177.659a62.507,62.507,0,0,1,59.693,44.8L1403.2,766.927a56.048,56.048,0,0,1-31.254,70.007l-18.647,4.48ZM111.406,207.5,1353.3,830.267l16.148-3.75c25.107-9.792,30.316-36.566,24.377-57.193L1228.081,199.891a52.089,52.089,0,0,0-49.693-37.3H158.494c-23.023,0-32.92,10.418-43.963,29.795Z" transform="translate(1290.678 1320.806)" fill="#231f20"/>
    <path id="Path_41" data-name="Path 41" d="M1347.764,800.943H307.347a32.92,32.92,0,0,1-31.253-23.752L100.972,175.464a15.522,15.522,0,0,1,14.9-19.794H1184.1l180.956,622.25a17.919,17.919,0,0,1-17.293,23.023Z" transform="translate(1295.174 1355.652)" fill="#231f20"/>
    <path id="Path_42" data-name="Path 42" d="M1352.793,810.768H312.376a38.442,38.442,0,0,1-36.67-27.5L100.584,181.537a20.835,20.835,0,0,1,19.9-26.357H1189.131a5,5,0,0,1,4.9,3.646l181.06,622.251a23.232,23.232,0,0,1-22.294,29.69ZM120.482,165.494a10.418,10.418,0,0,0-9.9,13.126L285.6,780.348a28.024,28.024,0,0,0,26.774,20H1352.793a13.022,13.022,0,0,0,10.418-5.105,12.813,12.813,0,0,0,1.979-11.251l-180.227-618.5Z" transform="translate(1290.145 1351.037)" fill="#231f20"/>
    <path id="Path_43" data-name="Path 43" d="M1020.561,193,957.326,461.881a65.319,65.319,0,0,1-63.756,50.526H235.482a65.527,65.527,0,0,1-63.756-80.529L227.461,193H172.976L119.637,419.585A119.074,119.074,0,0,0,235.587,565.433h658.5a118.762,118.762,0,0,0,115.429-91.155L1075.567,193Z" transform="translate(1447.88 1707.215)" fill="#fff"/>
    <path id="Path_44" data-name="Path 44" d="M898.409,575.892H240.322a124.283,124.283,0,0,1-120.95-152.724l53.234-226.69a5.209,5.209,0,0,1,5.1-3.959h55.005a5.313,5.313,0,0,1,4.063,1.979,5.105,5.105,0,0,1,.938,4.375L181.566,437.753a60.423,60.423,0,0,0,58.756,74.174h658.5a60.215,60.215,0,0,0,58.756-46.567l63.235-268.881a5.1,5.1,0,0,1,5-3.959h55.006a5.313,5.313,0,0,1,5.1,6.355l-66.153,281.278A123.763,123.763,0,0,1,898.409,575.892ZM181.358,202.938,129.269,425.564a113.761,113.761,0,0,0,111.053,139.91h658.5a113.449,113.449,0,0,0,110.844-87.821l64.59-274.715h-44.275L967.479,467.756a70.319,70.319,0,0,1-68.861,54.589h-658.3a70.736,70.736,0,0,1-68.861-86.988L226.05,202.938Z" transform="translate(1443.04 1702.695)" fill="#231f20"/>
    <path id="Path_45" data-name="Path 45" d="M1000.444,140.37s93.135,413.583,16.877,519.219-608.811,88.968-608.811,88.968-86.363,103.656-161.371,96.781S215.885,696.572,304.123,637.5l-12.189-49.275,469.527-75.32L698.955,215.69" transform="translate(2316.625 1211.561)" fill="#fff"/>
    <path id="Path_46" data-name="Path 46" d="M259.082,855.21h-7.813a43.963,43.963,0,0,1-40.837-34.9c-11.772-46.151,25.94-134.18,92.3-180.435l-11.251-45.734a5.085,5.085,0,0,1,4.167-6.355L759.758,513.3,698.293,221.6a5.209,5.209,0,0,1,4.063-6.146,5.1,5.1,0,0,1,6.147,3.959l62.506,297.218a5.269,5.269,0,0,1-4.271,6.251l-463.9,74.486,10.418,43.754a5.106,5.106,0,0,1-2.083,5.522c-63.757,42.712-101.99,128.659-91.051,171.371A33.233,33.233,0,0,0,251.374,845c71.361,6.667,156.266-93.76,156.891-94.906a5.209,5.209,0,0,1,4.167-1.875c5.313,0,531.3,15.314,604.852-86.884s-16.669-510.468-17.606-514.948A5.333,5.333,0,1,1,1010.1,144.1c3.855,16.981,92.718,416.709,15.94,523.386-75.008,104.177-566.619,92.509-611.1,91.155C403.159,772.389,328.881,855.21,259.082,855.21Z" transform="translate(2311.557 1207.209)" fill="#464646" stroke="#707070" stroke-width="0.5"/>
    <path id="Path_47" data-name="Path 47" d="M236.025,365.511a4.793,4.793,0,0,1-2.292-.625,5.209,5.209,0,0,1-2.5-7.084C306.865,201.536,501.051,96.422,503.03,95.38a5.209,5.209,0,0,1,7.189,2.188,5.313,5.313,0,0,1-2.188,7.292c-1.875,1.042-193.04,104.177-267.11,257.63A5.521,5.521,0,0,1,236.025,365.511Z" transform="translate(2522.342 781.608)" fill="#fff"/>
    <path id="Path_48" data-name="Path 48" d="M386.584,367.911a5.628,5.628,0,0,1-2.292,0C202.816,284.569,180.834,101.426,180.626,99.655a5.417,5.417,0,0,1,4.792-5.938,5.313,5.313,0,0,1,5.938,4.688c0,1.771,21.669,178.976,197.937,258.776A5.417,5.417,0,0,1,392,364.265,5.522,5.522,0,0,1,386.584,367.911Z" transform="translate(2050.708 771.811)" fill="#fff"/>
    <path id="Path_49" data-name="Path 49" d="M124.552,196.513a5.417,5.417,0,0,1,0-10.418c78.55-2.4,116.678-46.776,117.1-47.192a5.313,5.313,0,0,1,7.5-.73,5.417,5.417,0,0,1,.729,7.605c-1.667,1.979-41.671,48.547-125.013,51.047Z" transform="translate(1485.887 1179.379)" fill="#231f20"/>
    <path id="Path_50" data-name="Path 50" d="M311.017,436.207a5.313,5.313,0,0,1-5.209-4.063c0-1.875-49.067-193.874-55.839-308.989a5.313,5.313,0,0,1,5-5.626,5.417,5.417,0,0,1,5.73,5c6.771,114.074,55.11,305.031,55.526,307.01a5.418,5.418,0,0,1-3.854,6.563Z" transform="translate(2703.938 996.357)" fill="#fff"/>
    <path id="Path_51" data-name="Path 51" d="M179.756,526.994h0a5.313,5.313,0,0,1-5-5.73l25.836-404.728a5.313,5.313,0,0,1,5.73-5,5.209,5.209,0,0,1,5,5.626L185.069,521.889a5.313,5.313,0,0,1-5.313,5.1Z" transform="translate(1995.531 939.845)" fill="#fff"/>
    <ellipse id="Ellipse_3" data-name="Ellipse 3" cx="257.213" cy="77.404" rx="257.213" ry="77.404" transform="translate(2975.784 2274.419)" fill="#fff"/>
    <path id="Path_53" data-name="Path 53" d="M513.982,393.645c-147.1,0-262.422-36.253-262.422-82.612S366.884,228.42,513.982,228.42,776.4,264.673,776.4,311.032,661.081,393.645,513.982,393.645Zm0-154.807c-150.744,0-252,37.3-252,72.195s101.26,72.194,252,72.194,252-37.3,252-72.194S664.727,238.838,513.982,238.838Z" transform="translate(2719.016 2040.791)" fill="#747474"/>
    <path id="Path_54" data-name="Path 54" d="M316.344,216.39l-6.147,1.146a76.359,76.359,0,0,0-47.5,26.773,65.737,65.737,0,0,0-1.563,69.487c27.295,49.172,93.76,62.506,145.015,67.611a46.044,46.044,0,0,0,21.668-1.667,17.71,17.71,0,0,0,11.98-16.46,18.127,18.127,0,0,0-10.417-13.856,55.737,55.737,0,0,0-16.981-4.792c-31.878-5.209-65.423-9.064-94.593-23.752-16.981-8.647-40.733-28.336-28.336-49.588a40.525,40.525,0,0,1,17.919-15.21c29.274-13.959,57.089-3.334,85.946,5.209a15.948,15.948,0,0,0,6.563.938,11.668,11.668,0,0,0,8.438-13.022c-.938-12.605-13.543-20.835-25.419-25.523A133.349,133.349,0,0,0,316.344,216.39Z" transform="translate(2722.781 1914.369)" fill="#fff"/>
    <path id="Path_55" data-name="Path 55" d="M419.534,391.855a84.842,84.842,0,0,1-9.063-.521c-78.238-7.4-126.992-30.316-149.182-70.32a70.736,70.736,0,0,1,1.98-75.112,81.78,81.78,0,0,1,50.63-28.753L320.357,216h0a137.722,137.722,0,0,1,69.59,7.6c10.418,3.854,27.4,12.918,28.753,29.9a16.98,16.98,0,0,1-12.917,18.648,22.607,22.607,0,0,1-8.751-1.147l-7.5-2.292c-25.627-7.813-49.8-15.106-74.7-3.23A34.906,34.906,0,0,0,299.1,278.718a17.71,17.71,0,0,0-1.979,14.584,55.942,55.942,0,0,0,28.128,27.607,276.8,276.8,0,0,0,81.362,21.46l11.772,1.875a57.926,57.926,0,0,1,18.648,5.313,20.835,20.835,0,0,1-2.6,39.8A41.668,41.668,0,0,1,419.534,391.855ZM321.92,226.317l-5.938,1.042a72.092,72.092,0,0,0-44.379,24.69,60.527,60.527,0,0,0-1.147,63.965c20.315,36.67,66.466,57.922,140.952,64.9a42.4,42.4,0,0,0,19.169-1.25,10.871,10.871,0,0,0,1.458-20.939,48.955,48.955,0,0,0-15.314-4.167l-11.772-1.875a283.564,283.564,0,0,1-84.383-22.5,65.424,65.424,0,0,1-33.441-33.858,28.232,28.232,0,0,1,3.022-22.919,44.691,44.691,0,0,1,20.21-17.293c28.545-13.647,55.839-5.417,82.2,2.6l7.5,2.292a11.982,11.982,0,0,0,4.375.729c2.5,0,4.063-4.271,3.855-7.4-.833-11.668-15.731-18.544-22.086-20.836a127.3,127.3,0,0,0-64.277-6.98Z" transform="translate(2718.038 1909.651)" fill="#231f20"/>
    <path id="Path_56" data-name="Path 56" d="M260.45,210.07S308.58,450.3,312.539,464.783s117.72,73.966,208.354,15.523L600.172,234.76Z" transform="translate(2802.739 1867.976)" fill="#fff"/>
    <path id="Path_57" data-name="Path 57" d="M436.98,515.472a225.534,225.534,0,0,1-79.592-15.21c-20-7.709-42.712-20.21-45.213-29.482-3.855-14.481-50.109-245.129-52.089-255.026a5,5,0,0,1,5.418-6.146l339.722,25.21a5.1,5.1,0,0,1,4.584,6.771L530.531,487.136a5.1,5.1,0,0,1-2.187,2.709A165.538,165.538,0,0,1,436.98,515.472ZM271.651,220.442c7.813,39.066,47.192,234.815,50.63,247.629,1.459,3.438,20.21,17.4,53.443,27.5,31.253,9.48,91.051,20.211,145.848-13.96l76.674-237.42Z" transform="translate(2797.997 1863.333)"/>
    <ellipse id="Ellipse_4" data-name="Ellipse 4" cx="73.757" cy="170.33" rx="73.757" ry="170.33" transform="translate(3060.322 2151.771) rotate(-87.65)" fill="#b26313"/>
    <path id="Path_58" data-name="Path 58" d="M448.75,361.161H432.186c-98.447-3.959-174.08-41.671-172.2-86.05s80.321-75.633,178.664-71.57,173.976,41.671,172.1,86.05c-.833,21.877-20.835,41.671-55.318,54.589A302.116,302.116,0,0,1,448.75,361.161ZM422.6,213.125c-82.612,0-150.849,27.086-152.307,62.506-1.458,37.087,72.924,71.57,162.308,75.216a307.634,307.634,0,0,0,119.6-16.773c30.212-11.563,47.922-28.128,48.651-45.317,1.562-37.191-72.924-71.674-162.2-75.32Z" transform="translate(2797.999 1803.143)" fill="#231f20"/>
    <rect id="Rectangle_1" data-name="Rectangle 1" width="2829.139" height="109.073" transform="translate(1018.816 2563.719)"/>
    <path id="Path_60" data-name="Path 60" d="M2898.163,375.681H68.919a5.209,5.209,0,0,1-5.209-5.209V261.4a5.313,5.313,0,0,1,5.209-5.209H2898.163a5.314,5.314,0,0,1,5.209,5.209V370.472A5.209,5.209,0,0,1,2898.163,375.681ZM74.128,365.263H2892.954V266.608H74.128Z" transform="translate(949.897 2302.321)" fill="#fff"/>
    <path id="Path_61" data-name="Path 61" d="M297.665,645.765h0a5.313,5.313,0,0,1-5.1-5.313c0-11.98,7.605-294.4,38.754-392.227S420.907,109.669,423.3,108.107a5.215,5.215,0,1,1,5.834,8.647c-.625,0-57.61,39.483-87.925,134.6s-38.129,386.393-38.233,389.31A5.208,5.208,0,0,1,297.665,645.765Z" transform="translate(3105.141 899.31)" fill="#fff"/>
  </g>
</svg>
