<svg xmlns="http://www.w3.org/2000/svg" width="701.393" height="605.581" viewBox="0 0 701.393 605.581">
  <g id="Group_8" data-name="Group 8" transform="translate(-1013.607 -226.21)">
    <path id="Path_1" data-name="Path 1" d="M456.12,372.828S540.853,151.8,496.956,118.089s-228-20.1-238.091-8.054-69.474,278.1-69.474,278.1Z" transform="translate(1147.608 295.414)" fill="#8f8f8f" stroke="#fff" stroke-width="1"/>
    <path id="Path_2" data-name="Path 2" d="M190.118,390.209a1.338,1.338,0,0,1-.978-.437,1.235,1.235,0,0,1-.257-1.106C191.3,377.781,248.554,122.141,258.744,110c5.584-6.664,54.73-12.866,107.325-13.56,30.878-.412,105.73.849,132.542,21.408,18.655,14.307,17.471,61.755-3.5,141.316-15.439,58.847-36.718,114.3-36.924,114.839a1.261,1.261,0,0,1-1.132.823L190.2,390.261ZM375.8,98.931H366.12c-54.036.72-101,7.385-105.5,12.66-7.719,9.289-48.272,183.541-68.96,275.916L456,372.274c5.429-14.384,82.34-220.723,40.964-252.449C479.544,106.471,435.62,98.931,375.8,98.931Zm81.182,274.63Z" transform="translate(1146.75 294.682)" fill="#fff"/>
    <path id="Path_3" data-name="Path 3" d="M182.685,133.309,144.5,261.477s78.763,10.164,78.763,7.256S238.7,127.7,238.7,127.7Z" transform="translate(1076.99 343.956)" fill="#fff"/>
    <path id="Path_4" data-name="Path 4" d="M220.085,271.243c-13.3,0-51.051-4.58-74.955-7.719a1.312,1.312,0,0,1-1.081-1.647l38.185-128.167a1.287,1.287,0,0,1,1.106-.926l56.043-5.609a1.261,1.261,0,0,1,1.029.386,1.183,1.183,0,0,1,.36,1.029c-5.326,47.6-15.439,138.305-15.439,140.9a1.647,1.647,0,0,1-.515,1.106A10.627,10.627,0,0,1,220.085,271.243Zm2.573-1.724Zm-75.8-8.285c27.378,3.5,69.886,8.363,75.856,7.513.978-11.116,13.509-123.3,15.233-138.769l-53.573,5.378Z" transform="translate(1076.206 343.119)" fill="#231f20"/>
    <path id="Path_5" data-name="Path 5" d="M138.748,117.8c.335.36,13.895-3.268,20.894,5.146s-2.084,15.928-24.187,11.579S138.748,117.8,138.748,117.8Z" transform="translate(1048.545 327.635)" fill="#fff"/>
    <path id="Path_6" data-name="Path 6" d="M147.916,137.746A62.862,62.862,0,0,1,136,136.485c-6.381-1.261-9.675-3.319-10.061-6.33-.746-5.815,10.73-11.708,13.046-12.866a1.287,1.287,0,0,1,.823,0h.849c3.6-.437,14.564-1.827,20.791,5.635,2.779,3.294,3.371,6.664,1.724,9.495C161.039,135.79,155.507,137.746,147.916,137.746Zm-8.08-18.012c-5.018,2.573-11.631,7.1-11.27,9.958,0,.952,1.338,2.753,7.951,4.066,14.95,2.933,22.463.206,24.367-3.011a5.687,5.687,0,0,0-1.467-6.433c-5.3-6.33-14.847-5.146-18.424-4.683A5.145,5.145,0,0,1,139.836,119.734Z" transform="translate(1047.74 326.962)" fill="#231f20"/>
    <path id="Path_7" data-name="Path 7" d="M118.983,111.178s-2.779-3.191-1.029-5.429a3.783,3.783,0,0,1,6.124.566S119.7,107.884,118.983,111.178Z" transform="translate(1034.319 307.369)" fill="#fff"/>
    <path id="Path_8" data-name="Path 8" d="M119.791,113.3a1.338,1.338,0,0,1-1-.437c-1.287-1.492-2.985-4.683-1.055-7.1a4.632,4.632,0,0,1,3.68-1.827,5.635,5.635,0,0,1,4.477,2.342,1.286,1.286,0,0,1,.257,1.209,1.312,1.312,0,0,1-.823.9c-1.029.36-3.782,1.8-4.246,3.885a1.312,1.312,0,0,1-.952,1Zm1.673-6.716h0a2.11,2.11,0,0,0-1.621.8,1.981,1.981,0,0,0,0,1.827,10.111,10.111,0,0,1,2.779-2.367,2.084,2.084,0,0,0-1.132-.154Z" transform="translate(1033.511 306.563)" fill="#231f20"/>
    <path id="Path_9" data-name="Path 9" d="M124.2,105.12a6.947,6.947,0,0,0-6.278,5.712l55.194,71.816a15.439,15.439,0,0,1,13.2-13.766Z" transform="translate(1035.176 308.435)" fill="#fff"/>
    <path id="Path_10" data-name="Path 10" d="M173.9,184.779a1.312,1.312,0,0,1-1.029-.515l-55.194-71.816a1.338,1.338,0,0,1-.232-1.158,8.388,8.388,0,0,1,7.565-6.69,1.338,1.338,0,0,1,.952.412l62.115,63.762a1.287,1.287,0,0,1,.309,1.338,1.312,1.312,0,0,1-1.029.9,14.1,14.1,0,0,0-12.119,12.557,1.312,1.312,0,0,1-.952,1.158Zm-53.7-73.386,53.032,68.985a16.468,16.468,0,0,1,11.3-11.45l-60.005-61.6a5.661,5.661,0,0,0-4.323,4.066Z" transform="translate(1034.362 307.617)" fill="#231f20" stroke="#fff" stroke-width="0.5"/>
    <path id="Path_11" data-name="Path 11" d="M139.433,143.69l18.835,9.778,2.342-2.187-7.977-21.357S137.966,128.457,139.433,143.69Z" transform="translate(1068.857 347.393)" fill="#fff"/>
    <path id="Path_12" data-name="Path 12" d="M159.149,155.607a1.235,1.235,0,0,1-.618-.154L139.7,145.675a1.312,1.312,0,0,1-.721-1.055,13.689,13.689,0,0,1,3.319-11.528,15.439,15.439,0,0,1,11.347-3.68,1.338,1.338,0,0,1,1.132.875l7.951,21.357a1.312,1.312,0,0,1-.335,1.441l-2.342,2.187A1.364,1.364,0,0,1,159.149,155.607Zm-17.574-11.939,17.343,9.006,1.029-.926-7.359-19.71a12.583,12.583,0,0,0-8.44,2.933,10.807,10.807,0,0,0-2.573,8.7Z" transform="translate(1067.976 346.566)" fill="#231f20"/>
    <path id="Path_13" data-name="Path 13" d="M146.69,140.387l3.6,3.86,1.7-1.93-2.959-4.117Z" transform="translate(1080.435 360.474)" fill="#fff"/>
    <path id="Path_14" data-name="Path 14" d="M151.11,146.394a1.235,1.235,0,0,1-.952-.437l-3.628-3.86a1.415,1.415,0,0,1-.36-.952,1.363,1.363,0,0,1,.437-.926l2.342-2.187a1.338,1.338,0,0,1,1.981.206l2.959,4.117a1.312,1.312,0,0,1,0,1.647l-1.7,1.93a1.261,1.261,0,0,1-.978.463Zm-1.724-5.146,1.7,1.827h0l-1.467-2.033Z" transform="translate(1079.617 359.664)" fill="#231f20"/>
    <path id="Path_15" data-name="Path 15" d="M162.255,170.916c3.036-6.15,10.653-19.2,12.4-24.856,4.837-15.439-23.493-29.9-32.653-29.9s-28.3,32.01-28.3,49.121,63.428,148.135,63.428,148.135l60.854-27.841Z" transform="translate(1028.538 325.802)" fill="#fff"/>
    <path id="Path_16" data-name="Path 16" d="M177.976,315.572a1.312,1.312,0,0,1-1.184-.746c-2.573-5.352-63.582-131.538-63.582-148.727s19.35-50.459,29.565-50.459c7.05,0,23.441,7.514,30.877,17.5a15.439,15.439,0,0,1,3.165,14.152,141.369,141.369,0,0,1-8.594,17.626c-1.364,2.573-2.573,4.889-3.551,6.716l75.367,113.989a1.39,1.39,0,0,1,.18,1.106,1.338,1.338,0,0,1-.721.823l-60.88,27.893a.977.977,0,0,1-.643.129Zm-35.2-197.282c-8.054,0-26.889,30.877-26.889,47.809,0,15.747,56.429,133.314,62.707,146.411L236.874,285.8,161.919,172.583a1.389,1.389,0,0,1,0-1.338c.978-1.956,2.393-4.606,3.937-7.488a140.531,140.531,0,0,0,8.388-17.163,12.866,12.866,0,0,0-2.753-11.785C164.312,125.058,148.693,118.29,142.775,118.29Z" transform="translate(1027.767 324.984)" fill="#231f20"/>
    <path id="Path_17" data-name="Path 17" d="M419.488,246.578l75.007-19.118c-2.573-3.628-32.833-99.683-64.74-115.4C401.836,93.528,335.63,81.177,277.143,85.371c0,0-15.439-.566-42.508,10.164C168.711,121.73,156,212.947,156,212.947l51.463,17.78S197.633,348.7,188.344,410.383c0,0,113.784,22.258,279.441-5.146C467.914,405.185,419.8,264.023,419.488,246.578Z" transform="translate(1095.081 276.078)" fill="#12669e"/>
    <path id="Path_18" data-name="Path 18" d="M376.377,151.53c-9.932,10.292-17.677,22.643-28.639,32.344-23.621,20.894-54.525,37.439-86.92,35.432-38.185-2.367-71.2-28.459-79.484-66.464-5.146-23.827.206-45.956,18.629-62.784C212.7,78.428,229.015,71.326,245.688,66.9c44.283-11.862,93.971-5.558,131.77,20.431a47.037,47.037,0,0,1,15.233,15.13c9.443,17.111-1.415,34.711-13.663,46.471C378.2,149.729,377.329,150.629,376.377,151.53Z" transform="translate(1132.016 239.252)" fill="#12669e"/>
    <path id="Path_19" data-name="Path 19" d="M210.168,118.265c-.386,0-7.488,8.646-7.848,8.774,4.04,15.233,8.311,35.072,25.551,37.027,34.969,3.988,40.269-42.637,46.857-64.637C250.515,106.223,233.429,108.951,210.168,118.265Z" transform="translate(1167.948 299.484)" fill="#231f20"/>
    <path id="Path_20" data-name="Path 20" d="M232.756,166.442a39.906,39.906,0,0,1-4.22-.257c-17.214-1.956-22.077-20.585-26.014-35.483l-.669-2.573a1.286,1.286,0,0,1,.515-1.364c.412-.386,2.29-2.573,3.654-4.168,3.988-4.58,4.04-4.606,4.451-4.786h0A320.114,320.114,0,0,1,254.216,104.4c6.561-1.647,13.329-3.345,20.842-5.455a1.287,1.287,0,0,1,1.261.335,1.338,1.338,0,0,1,.309,1.261c-.978,3.268-1.93,7.128-2.959,11.219C268.342,133.789,260.186,166.416,232.756,166.442Zm-28.3-38.159.463,1.775c3.937,14.924,8.363,31.83,23.827,33.451,28.639,3.268,36.641-28.922,42.508-52.44.8-3.216,1.57-6.3,2.342-9.083-6.664,1.827-12.866,3.371-18.707,4.863a310.494,310.494,0,0,0-43.331,13.226c-.515.515-2.316,2.573-3.654,4.143-1.8,2.316-2.8,3.448-3.371,4.066Zm-1.415-.386ZM211.348,120.177Z" transform="translate(1167.154 298.652)" fill="#231f20"/>
    <path id="Path_21" data-name="Path 21" d="M299.216,43.6c-5.146-.206-8.44,2.033-12.866,3.628-8.62,3.036-12.634-4.168-20.045-8a56.943,56.943,0,0,0-70.607,14.8,42.533,42.533,0,0,0-9.6,21.357c-1.081,8.9,1.415,18.012-.129,26.812a30.286,30.286,0,0,1-18.732,22.644,72.176,72.176,0,0,0,24.5-2.316,24.934,24.934,0,0,1-18.629,8.877,46.316,46.316,0,0,0,28.639,9.6l-18.141,4.246c15.439,9.907,34.248,12.866,52.44,12.042,36.23-1.878,96.9-16.7,95.849-63.633C331.3,75.663,321.422,44.631,299.216,43.6Z" transform="translate(1112.763 194.672)" fill="#fff" stroke="#b5b0b0" stroke-width="1"/>
    <path id="Path_22" data-name="Path 22" d="M230.662,159.574c-13.869,0-31.624-2.573-47.011-12.4a1.312,1.312,0,0,1-.566-1.312,1.364,1.364,0,0,1,.978-1.029l10.087-2.342a47.86,47.86,0,0,1-21.1-9.212,1.287,1.287,0,0,1,.772-2.316,23.6,23.6,0,0,0,14.487-5.275,72.538,72.538,0,0,1-20.431,1.287,1.287,1.287,0,0,1-1.158-1.106,1.261,1.261,0,0,1,.823-1.39,28.871,28.871,0,0,0,18.012-21.64,57.329,57.329,0,0,0,.154-13.946,68.749,68.749,0,0,1,0-12.866A43.9,43.9,0,0,1,195.59,54a58.2,58.2,0,0,1,72.2-15.1,42.923,42.923,0,0,1,6.227,4.143c4.168,3.165,7.462,5.661,12.866,3.782,1.158-.412,2.239-.875,3.294-1.312a22.077,22.077,0,0,1,10.138-2.393h0c22.283.978,33.451,31.186,33.811,51.308.463,21.331-11.193,38.134-34.66,49.893S248,158.8,237.069,159.368C234.908,159.523,232.824,159.574,230.662,159.574Zm-42.971-12.866c16.622,9.649,35.689,10.936,49.044,10.292,10.7-.566,38.082-3.113,61.369-14.8,22.515-11.27,33.682-27.249,33.245-47.526-.437-19.144-10.7-47.886-31.341-48.889a20.328,20.328,0,0,0-9.032,2.187c-1.106.463-2.239.952-3.448,1.364-6.664,2.342-10.833-.823-15.233-4.168a39.7,39.7,0,0,0-5.841-3.885,55.579,55.579,0,0,0-69.011,14.435,41.35,41.35,0,0,0-9.34,20.585,65.762,65.762,0,0,0,0,12.325A60,60,0,0,1,187.9,103.2a31.469,31.469,0,0,1-14.847,21.331,72.046,72.046,0,0,0,18.99-2.573,1.287,1.287,0,0,1,1.441.54,1.312,1.312,0,0,1,0,1.518,26.323,26.323,0,0,1-16,9.057,45.03,45.03,0,0,0,25.036,7.308,1.261,1.261,0,0,1,1.287,1.132,1.287,1.287,0,0,1-.978,1.415Z" transform="translate(1111.919 193.898)" fill="#231f20"/>
    <path id="Path_23" data-name="Path 23" d="M227.371,165.555l2.573,44.309s20.25,23.158,46.316,8.929S301.323,182,301.323,182L284.211,98.809s-23.647-5.455-29.668-52.029A142.963,142.963,0,0,1,184.76,76.4s.463,52.106,9.649,72.819S227.371,165.555,227.371,165.555Z" transform="translate(1140.324 216.658)" fill="#fff"/>
    <path id="Path_24" data-name="Path 24" d="M259.983,225.51c-17.7,0-30.028-13.766-30.183-13.972a1.209,1.209,0,0,1-.309-.772l-2.573-42.945c-5.429.54-24.779,1.055-32.936-17.343-9.186-20.585-9.726-71.2-9.752-73.334a1.312,1.312,0,0,1,1.106-1.287,143.169,143.169,0,0,0,69.114-29.282,1.287,1.287,0,0,1,1.312-.232,1.312,1.312,0,0,1,.823,1.029c3.036,23.57,10.7,36.152,16.6,42.585a27.018,27.018,0,0,0,12.094,8.337,1.312,1.312,0,0,1,.952,1l17.137,83.266c0,.437.772,23.724-25.731,38.185a36.538,36.538,0,0,1-17.652,4.76Zm-27.97-15.439c2.573,2.8,21,21.177,44.489,8.337,25.011-13.689,24.393-35.432,24.393-35.638l-16.957-82.34c-4.271-1.415-23.621-9.958-29.514-50.613a147.981,147.981,0,0,1-67.519,28.3c0,7.719,1.287,52.646,9.495,71.2,8.671,19.5,30.646,15.825,31.572,15.67a1.312,1.312,0,0,1,1.029.232,1.389,1.389,0,0,1,.489.952Z" transform="translate(1139.49 215.835)" fill="#231f20"/>
    <path id="Path_25" data-name="Path 25" d="M220.966,101.2a23.158,23.158,0,0,0,17.137-4.22,24.779,24.779,0,0,0,9.212-22.438,20.586,20.586,0,0,0-2.573-8.98,10.936,10.936,0,0,0-7.282-5.455A17.6,17.6,0,0,0,226.7,62.967c-4.992,2.573-5.146,5.429-7.874,9.649.309-.386.54-1.467.849-1.853" transform="translate(1193.92 237.576)" fill="#fff"/>
    <path id="Path_26" data-name="Path 26" d="M225.181,103.553a24.964,24.964,0,0,1-3.654-.283,1.312,1.312,0,0,1-1.081-1.492,1.261,1.261,0,0,1,1.467-1.055,21.8,21.8,0,0,0,16.134-4.04,23.467,23.467,0,0,0,8.671-21.306,19.171,19.171,0,0,0-2.29-8.44,9.7,9.7,0,0,0-6.381-4.786c-3.191-.566-6.381.9-9.932,2.728a10.885,10.885,0,0,0-5.352,5.764c-.54.978-1.132,2.084-1.93,3.294a1.133,1.133,0,0,1-.206.283,1.289,1.289,0,0,1-2.058-1.544h0a.832.832,0,0,1,.18-.515,5.151,5.151,0,0,1,.643-1.312,1.339,1.339,0,0,1,.489-.36l.489-.926a13.535,13.535,0,0,1,6.484-6.845c3.036-1.57,7.23-3.731,11.528-2.985a12.274,12.274,0,0,1,8.337,6.073,21.8,21.8,0,0,1,2.573,9.546A25.911,25.911,0,0,1,239.564,98.9a24.316,24.316,0,0,1-14.384,4.657Z" transform="translate(1193.153 236.796)" fill="#231f20"/>
    <path id="Path_27" data-name="Path 27" d="M202.658,126.635A31.186,31.186,0,0,0,227.386,111.2c9.083-15.156,5.455-24.856,5.455-24.856s-12.248,15.619-31.521,16.88Z" transform="translate(1166.375 278.891)" fill="#231f20"/>
    <path id="Path_28" data-name="Path 28" d="M203.446,128.534a1.261,1.261,0,0,1-1.261-1.209l-1.364-23.158a1.286,1.286,0,0,1,1.209-1.364c18.449-1.184,30.466-16.211,30.594-16.365a1.287,1.287,0,0,1,1.209-.489,1.312,1.312,0,0,1,1,.823c.154.412,3.731,10.447-5.584,25.963a32.138,32.138,0,0,1-25.731,15.928Zm0-23.415,1.209,20.765a30.311,30.311,0,0,0,22.36-14.615c6.15-10.293,6.3-17.806,5.841-21.408a48.426,48.426,0,0,1-29.411,15.259Z" transform="translate(1165.587 278.254)" fill="#231f20"/>
    <path id="Path_29" data-name="Path 29" d="M203.92,65.57s-9.649,25.422-5.275,28.459,13.612-1.8,13.612-1.8" transform="translate(1160.378 246.218)" fill="#fff"/>
    <path id="Path_30" data-name="Path 30" d="M203.2,97.107a7.719,7.719,0,0,1-4.554-1.235c-4.838-3.345,2.573-23.776,4.786-29.977a1.283,1.283,0,1,1,2.393.926C201.345,78.632,198.1,92.3,200.11,93.736c3.062,2.11,9.907-.618,12.274-1.853a1.312,1.312,0,0,1,1.75.54,1.287,1.287,0,0,1-.566,1.724,25.423,25.423,0,0,1-10.37,2.959Z" transform="translate(1159.634 245.429)" fill="#231f20"/>
    <ellipse id="Ellipse_1" data-name="Ellipse 1" cx="3.731" cy="5.275" rx="3.731" ry="5.275" transform="matrix(0.952, -0.308, 0.308, 0.952, 1376.483, 302.254)" fill="#231f20"/>
    <ellipse id="Ellipse_2" data-name="Ellipse 2" cx="3.731" cy="5.275" rx="3.731" ry="5.275" transform="translate(1343.406 309.066) rotate(-0.78)" fill="#231f20"/>
    <path id="Path_31" data-name="Path 31" d="M210.771,107.461a11.836,11.836,0,0,1-6.947-2.033c-8.105-5.918-8.7-18.99-8.723-19.556a1.312,1.312,0,0,1,1.029-1.312c33.3-7.282,33.656-7.025,34.248-6.587a1.389,1.389,0,0,1,.54.926h0a33.194,33.194,0,0,1-2.084,15.284,21.048,21.048,0,0,1-13.406,12.608A17.007,17.007,0,0,1,210.771,107.461ZM197.776,86.876c.309,3.113,1.7,12.222,7.514,16.442a11.013,11.013,0,0,0,9.34,1.029,18.6,18.6,0,0,0,11.836-11.09,29.772,29.772,0,0,0,1.956-12.866c-4.426.8-20.045,4.143-30.646,6.459Z" transform="translate(1156.59 265.439)" fill="#231f20"/>
    <path id="Path_32" data-name="Path 32" d="M221.908,84.931c-4.94,11.939-17.317,14.8-23.158,10.653,1.312-4.554,3.705-9.289,8.157-11.013A21.717,21.717,0,0,1,221.908,84.931Z" transform="translate(1162.332 274.279)" fill="#231f20"/>
    <path id="Path_33" data-name="Path 33" d="M205.755,99.392a11.888,11.888,0,0,1-6.947-2.007A1.261,1.261,0,0,1,198.344,96c1.75-6.278,4.76-10.293,8.9-11.862a23.158,23.158,0,0,1,15.825.335,1.312,1.312,0,0,1,.746.695,1.364,1.364,0,0,1,0,1,21.1,21.1,0,0,1-13.406,12.583A17.085,17.085,0,0,1,205.755,99.392Zm-4.683-3.628a11.5,11.5,0,0,0,8.543.515,18.321,18.321,0,0,0,11.27-9.829,20.147,20.147,0,0,0-12.711,0C205.008,87.736,202.693,90.875,201.072,95.764Z" transform="translate(1161.606 273.482)" fill="#231f20"/>
    <path id="Path_37" data-name="Path 37" d="M149.1,196.44H678.132l84.887,155.031H64.21Z" transform="translate(950.684 452.092)"/>
    <path id="Path_38" data-name="Path 38" d="M763.8,353.544H64.987a1.312,1.312,0,0,1-1.106-.618,1.338,1.338,0,0,1,0-1.286l84.913-155.031a1.261,1.261,0,0,1,1.132-.669H678.883a1.261,1.261,0,0,1,1.132.669L764.929,351.64a1.338,1.338,0,0,1,0,1.287A1.312,1.312,0,0,1,763.8,353.544ZM67.174,350.971H761.609L678.137,198.513H150.647Z" transform="translate(949.906 451.306)" fill="#fff"/>
    <path id="Path_39" data-name="Path 39" d="M100.39,165.561l1.132-4.889c2.573-4.889,5.429-8.183,12.068-8.183H365.422a14.1,14.1,0,0,1,13.509,10.138l40.938,140.647A12.557,12.557,0,0,1,412.9,319l-4.451,1.055Z" transform="translate(1007.599 382.954)" fill="#fff"/>
    <path id="Path_40" data-name="Path 40" d="M409.223,322.157a1.52,1.52,0,0,1-.566-.129L100.6,167.486a1.261,1.261,0,0,1-.669-1.441l1.132-4.889a1.675,1.675,0,0,1,0-.335c2.573-4.657,5.532-8.852,13.2-8.852H366.1a15.439,15.439,0,0,1,14.744,11.064l40.964,140.827a13.844,13.844,0,0,1-7.72,17.291l-4.606,1.106ZM102.738,165.685,409.48,319.506l3.988-.926c6.2-2.419,7.488-9.032,6.021-14.126L378.551,163.806a12.866,12.866,0,0,0-12.274-9.212H114.369c-5.687,0-8.131,2.573-10.859,7.359Z" transform="translate(1006.821 382.136)" fill="#231f20"/>
    <path id="Path_41" data-name="Path 41" d="M408.472,315.049H151.494a8.131,8.131,0,0,1-7.719-5.867L100.521,160.559a3.834,3.834,0,0,1,3.68-4.889H368.048l44.7,153.693a4.426,4.426,0,0,1-4.271,5.687Z" transform="translate(1007.572 387.956)" fill="#231f20"/>
    <path id="Path_42" data-name="Path 42" d="M409.312,317.107H152.334a9.495,9.495,0,0,1-9.057-6.793L100.023,161.69a5.146,5.146,0,0,1,4.915-6.51H368.888a1.235,1.235,0,0,1,1.209.9l44.721,153.693a5.738,5.738,0,0,1-5.506,7.333ZM104.937,157.727a2.573,2.573,0,0,0-2.444,3.242l43.229,148.624a6.922,6.922,0,0,0,6.613,4.94H409.312a3.217,3.217,0,0,0,2.573-1.261,3.165,3.165,0,0,0,.489-2.779L367.859,157.727Z" transform="translate(1006.732 387.185)" fill="#231f20"/>
    <path id="Path_43" data-name="Path 43" d="M339.864,193l-15.619,66.412a16.133,16.133,0,0,1-15.747,12.48H145.954A16.185,16.185,0,0,1,130.206,252l13.766-59H130.515l-13.174,55.965a29.411,29.411,0,0,0,28.639,36.024H308.627a29.334,29.334,0,0,0,28.51-22.515L353.451,193Z" transform="translate(1033.08 446.681)" fill="#fff"/>
    <path id="Path_44" data-name="Path 44" d="M309.306,287.211H146.762a30.7,30.7,0,0,1-29.874-37.722L130.037,193.5a1.287,1.287,0,0,1,1.261-.978h13.586a1.312,1.312,0,0,1,1,.489,1.261,1.261,0,0,1,.232,1.081l-13.869,59a14.924,14.924,0,0,0,14.512,18.321H309.409a14.873,14.873,0,0,0,14.513-11.5L339.541,193.5a1.261,1.261,0,0,1,1.235-.978h13.586a1.312,1.312,0,0,1,1.261,1.57l-16.339,69.474A30.569,30.569,0,0,1,309.306,287.211ZM132.2,195.093l-12.866,54.988a28.1,28.1,0,0,0,27.429,34.557H309.409a28.021,28.021,0,0,0,27.378-21.691l15.953-67.853H341.8L326.366,260.5a17.369,17.369,0,0,1-17.008,13.483h-162.6A17.471,17.471,0,0,1,129.754,252.5l13.483-57.406Z" transform="translate(1032.271 445.926)" fill="#231f20"/>
    <path id="Path_45" data-name="Path 45" d="M404.357,140.37s23,102.153,4.169,128.245-150.373,21.975-150.373,21.975-21.331,25.6-39.858,23.9-7.719-36.744,14.075-51.334l-3.011-12.171,115.971-18.6-15.439-73.411" transform="translate(1178.194 363.887)" fill="#fff"/>
    <path id="Path_46" data-name="Path 46" d="M220.839,316.584h-1.93a10.859,10.859,0,0,1-10.087-8.62c-2.908-11.4,6.407-33.142,22.8-44.567l-2.779-11.3a1.256,1.256,0,0,1,1.029-1.57l114.633-18.4-15.181-72.048a1.287,1.287,0,0,1,1-1.518,1.261,1.261,0,0,1,1.518.978l15.439,73.411a1.3,1.3,0,0,1-1.055,1.544L231.646,252.9l2.573,10.807a1.261,1.261,0,0,1-.515,1.364c-15.748,10.55-25.191,31.778-22.489,42.328a8.208,8.208,0,0,0,7.719,6.664c17.626,1.647,38.6-23.158,38.751-23.441a1.287,1.287,0,0,1,1.029-.463c1.312,0,131.229,3.782,149.4-21.46s-4.117-126.083-4.349-127.19a1.317,1.317,0,1,1,2.573-.566c.952,4.194,22.9,102.925,3.937,129.274-18.527,25.731-139.952,22.849-150.94,22.515C256.425,296.128,238.079,316.584,220.839,316.584Z" transform="translate(1177.347 363.16)" fill="#464646" stroke="#707070" stroke-width="0.5"/>
    <path id="Path_47" data-name="Path 47" d="M232,161.6a1.184,1.184,0,0,1-.566-.154,1.287,1.287,0,0,1-.618-1.75c18.681-38.6,66.644-64.56,67.133-64.817a1.287,1.287,0,0,1,1.776.54,1.312,1.312,0,0,1-.54,1.8c-.463.257-47.68,25.731-65.975,63.633A1.364,1.364,0,0,1,232,161.6Z" transform="translate(1212.557 292.068)" fill="#fff"/>
    <path id="Path_48" data-name="Path 48" d="M231.475,161.411a1.39,1.39,0,0,1-.566,0c-44.824-20.585-50.253-65.821-50.3-66.258a1.338,1.338,0,0,1,1.184-1.467,1.312,1.312,0,0,1,1.467,1.158c0,.437,5.352,44.206,48.889,63.916a1.338,1.338,0,0,1,.669,1.75A1.364,1.364,0,0,1,231.475,161.411Z" transform="translate(1133.776 290.432)" fill="#fff"/>
    <path id="Path_49" data-name="Path 49" d="M121.593,151.664a1.338,1.338,0,0,1,0-2.573c19.4-.592,28.819-11.553,28.922-11.656a1.312,1.312,0,0,1,1.853-.18,1.338,1.338,0,0,1,.18,1.878c-.412.489-10.293,11.991-30.878,12.608Z" transform="translate(1039.428 358.512)" fill="#231f20"/>
    <path id="Path_50" data-name="Path 50" d="M265.04,196.233a1.312,1.312,0,0,1-1.287-1c0-.463-12.119-47.886-13.792-76.319a1.312,1.312,0,0,1,1.235-1.389,1.338,1.338,0,0,1,1.415,1.235c1.672,28.176,13.612,75.341,13.715,75.83a1.338,1.338,0,0,1-.952,1.621Z" transform="translate(1242.89 327.94)" fill="#fff"/>
    <path id="Path_51" data-name="Path 51" d="M175.978,214.139h0a1.312,1.312,0,0,1-1.235-1.415l6.381-99.966a1.312,1.312,0,0,1,1.415-1.235,1.287,1.287,0,0,1,1.235,1.39l-6.484,99.966a1.312,1.312,0,0,1-1.312,1.261Z" transform="translate(1124.559 318.5)" fill="#fff"/>
    <ellipse id="Ellipse_3" data-name="Ellipse 3" cx="63.53" cy="19.118" rx="63.53" ry="19.118" transform="translate(1498.255 732.107)" fill="#fff"/>
    <path id="Path_53" data-name="Path 53" d="M316.377,269.23c-36.332,0-64.817-8.954-64.817-20.4s28.485-20.4,64.817-20.4,64.817,8.954,64.817,20.4S352.71,269.23,316.377,269.23Zm0-38.237c-37.233,0-62.244,9.212-62.244,17.832s25.011,17.832,62.244,17.832,62.244-9.212,62.244-17.832S353.61,230.993,316.377,230.993Z" transform="translate(1245.409 502.401)" fill="#747474"/>
    <path id="Path_54" data-name="Path 54" d="M267.862,215.34l-1.518.283a18.86,18.86,0,0,0-11.733,6.613,16.237,16.237,0,0,0-.386,17.163c6.742,12.145,23.158,15.439,35.818,16.7a11.373,11.373,0,0,0,5.352-.412,4.374,4.374,0,0,0,2.959-4.066,4.477,4.477,0,0,0-2.573-3.422,13.767,13.767,0,0,0-4.194-1.184c-7.874-1.287-16.159-2.239-23.364-5.867-4.194-2.136-10.061-7-7-12.248a10.009,10.009,0,0,1,4.426-3.757c7.23-3.448,14.1-.823,21.228,1.287a3.939,3.939,0,0,0,1.621.232,2.882,2.882,0,0,0,2.084-3.216c-.232-3.113-3.345-5.146-6.278-6.3A32.937,32.937,0,0,0,267.862,215.34Z" transform="translate(1246.038 481.284)" fill="#fff"/>
    <path id="Path_55" data-name="Path 55" d="M292.971,258.3a20.957,20.957,0,0,1-2.239-.129c-19.324-1.827-31.366-7.488-36.847-17.369a17.472,17.472,0,0,1,.489-18.552,20.2,20.2,0,0,1,12.505-7.1l1.6-.283h0a34.017,34.017,0,0,1,17.189,1.878c2.573.952,6.767,3.191,7.1,7.385a4.194,4.194,0,0,1-3.191,4.606,5.584,5.584,0,0,1-2.161-.283l-1.853-.566c-6.33-1.93-12.3-3.731-18.449-.8a8.621,8.621,0,0,0-3.885,3.268,4.374,4.374,0,0,0-.489,3.6,13.817,13.817,0,0,0,6.947,6.819,68.367,68.367,0,0,0,20.1,5.3l2.908.463a14.307,14.307,0,0,1,4.606,1.312,5.146,5.146,0,0,1-.643,9.829A10.292,10.292,0,0,1,292.971,258.3Zm-24.11-40.887-1.467.257a17.806,17.806,0,0,0-10.961,6.1,14.95,14.95,0,0,0-.283,15.8c5.018,9.057,16.417,14.307,34.814,16.031a10.473,10.473,0,0,0,4.735-.309,2.685,2.685,0,0,0,.36-5.172,12.092,12.092,0,0,0-3.783-1.029l-2.908-.463a70.039,70.039,0,0,1-20.842-5.558,16.159,16.159,0,0,1-8.26-8.363,6.973,6.973,0,0,1,.746-5.661A11.039,11.039,0,0,1,266,224.774c7.05-3.371,13.792-1.338,20.3.643l1.853.566a2.959,2.959,0,0,0,1.081.18c.618,0,1-1.055.952-1.827-.206-2.882-3.885-4.58-5.455-5.146a31.443,31.443,0,0,0-15.876-1.724Z" transform="translate(1245.245 480.495)" fill="#231f20"/>
    <path id="Path_56" data-name="Path 56" d="M260.45,210.07s11.888,59.336,12.866,62.913,29.076,18.269,51.462,3.834l19.581-60.649Z" transform="translate(1259.394 473.534)" fill="#fff"/>
    <path id="Path_57" data-name="Path 57" d="M303.673,285.132a55.706,55.706,0,0,1-19.659-3.757c-4.94-1.9-10.55-4.992-11.167-7.282-.952-3.577-12.377-60.546-12.866-62.99a1.235,1.235,0,0,1,1.338-1.518l83.91,6.227a1.261,1.261,0,0,1,1.132,1.672L326.78,278.133a1.261,1.261,0,0,1-.54.669A40.887,40.887,0,0,1,303.673,285.132Zm-40.835-72.871c1.93,9.649,11.656,58,12.505,61.163.36.849,4.992,4.3,13.2,6.793,7.719,2.342,22.489,4.992,36.024-3.448L343.5,218.127Z" transform="translate(1258.602 472.759)"/>
    <ellipse id="Ellipse_4" data-name="Ellipse 4" cx="18.218" cy="42.071" rx="18.218" ry="42.071" transform="translate(1519.136 701.814) rotate(-87.65)" fill="#b26313"/>
    <path id="Path_58" data-name="Path 58" d="M306.58,242.2h-4.091c-24.316-.978-43-10.293-42.534-21.254s19.839-18.681,44.129-17.677,42.971,10.293,42.508,21.254c-.206,5.4-5.146,10.293-13.663,13.483A74.622,74.622,0,0,1,306.58,242.2Zm-6.459-36.564c-20.4,0-37.259,6.69-37.619,15.439-.36,9.16,18.012,17.677,40.089,18.578a75.985,75.985,0,0,0,29.539-4.143c7.462-2.856,11.837-6.947,12.017-11.193.386-9.186-18.012-17.7-40.064-18.6Z" transform="translate(1258.602 462.705)" fill="#231f20"/>
    <rect id="Rectangle_1" data-name="Rectangle 1" width="698.784" height="26.941" transform="translate(1014.894 803.563)"/>
    <path id="Path_60" data-name="Path 60" d="M763.806,285.7H65a1.287,1.287,0,0,1-1.287-1.287V257.477A1.312,1.312,0,0,1,65,256.19H763.806a1.313,1.313,0,0,1,1.287,1.287v26.941A1.287,1.287,0,0,1,763.806,285.7ZM66.283,283.131H762.519V258.763H66.283Z" transform="translate(949.897 546.087)" fill="#fff"/>
    <path id="Path_61" data-name="Path 61" d="M293.821,240.234h0a1.312,1.312,0,0,1-1.261-1.312c0-2.959,1.878-72.717,9.572-96.878s22.129-34.223,22.721-34.609a1.288,1.288,0,1,1,1.441,2.136c-.154,0-14.229,9.752-21.717,33.245s-9.418,95.437-9.443,96.158A1.286,1.286,0,0,1,293.821,240.234Z" transform="translate(1309.907 311.729)" fill="#fff"/>
  </g>
</svg>
