<svg xmlns="http://www.w3.org/2000/svg" width="1690.622" height="1489.905" viewBox="0 0 1690.622 1489.905">
  <g id="Group_10" data-name="Group 10" transform="translate(-93.638 1930.306)">
    <path id="Path_138" data-name="Path 138" d="M1758.219,247.666H74.143a3.273,3.273,0,1,1,0-6.546H1758.219a3.273,3.273,0,0,1,0,6.546Z" transform="translate(22.768 -829.924)" fill="#d1d3d4"/>
    <rect id="Rectangle_9" data-name="Rectangle 9" width="375.948" height="645.455" transform="translate(1264.033 -1156.36)" fill="#fff"/>
    <path id="Path_139" data-name="Path 139" d="M628.381,805.922H252.433a3.273,3.273,0,0,1-3.273-3.273V157.193a3.273,3.273,0,0,1,3.273-3.273H628.381a3.273,3.273,0,0,1,3.273,3.273V802.518a3.273,3.273,0,0,1-3.273,3.4Zm-372.675-6.546h369.4V160.466h-369.4Z" transform="translate(1011.6 -1313.553)" fill="#231f20"/>
    <rect id="Rectangle_10" data-name="Rectangle 10" width="375.948" height="645.455" transform="translate(228.293 -1156.36)" fill="#fff"/>
    <path id="Path_140" data-name="Path 140" d="M470.161,805.922H94.213a3.273,3.273,0,0,1-3.273-3.273V157.193a3.273,3.273,0,0,1,3.273-3.273H470.161a3.273,3.273,0,0,1,3.273,3.273V802.518a3.273,3.273,0,0,1-3.273,3.4ZM97.486,799.375h369.4V160.466H97.486Z" transform="translate(134.08 -1313.553)" fill="#231f20"/>
    <path id="Path_141" data-name="Path 141" d="M367.835,125.83l74.43,149.45H240.97Z" transform="translate(966.177 -1469.346)" fill="#231f20"/>
    <path id="Path_142" data-name="Path 142" d="M444.9,281.3H243.8a3.339,3.339,0,0,1-3.011-1.9,3.208,3.208,0,0,1,.524-3.47l126.865-149.45a3.076,3.076,0,0,1,2.88-1.113,3.273,3.273,0,0,1,2.553,1.767l74.365,149.45a3.142,3.142,0,0,1,0,3.142A3.207,3.207,0,0,1,444.9,281.3Zm-194.226-6.546H439.594l-69.848-140.22Z" transform="translate(963.546 -1472.095)" fill="#231f20"/>
    <path id="Path_143" data-name="Path 143" d="M173.02,364.518H652.267L826.134,109.74H373.726Z" transform="translate(589.312 -1558.584)" fill="#231f20"/>
    <path id="Path_144" data-name="Path 144" d="M655.139,370.564H175.76a3.273,3.273,0,0,1-2.553-5.3L373.914,110.484a3.207,3.207,0,0,1,2.553-1.244H828.875a3.4,3.4,0,0,1,2.88,1.768,3.207,3.207,0,0,1,0,3.4L657.888,369.124a3.208,3.208,0,0,1-2.75,1.44Zm-472.5-6.546h471L823.049,115.786H378.169Z" transform="translate(586.441 -1561.357)" fill="#231f20"/>
    <path id="Path_145" data-name="Path 145" d="M327.231,113.52,184,299.1H539.655L674.245,113.52Z" transform="translate(650.21 -1537.619)" fill="#fff"/>
    <path id="Path_146" data-name="Path 146" d="M542.545,305.151H186.89a3.273,3.273,0,0,1-2.946-1.833,3.47,3.47,0,0,1,0-3.469l143.3-185.585a3.208,3.208,0,0,1,2.553-1.244H676.742a3.142,3.142,0,0,1,2.88,1.767,3.207,3.207,0,0,1,0,3.4L545.032,303.777A3.208,3.208,0,0,1,542.545,305.151Zm-348.978-6.546H540.515l130.2-179.169H331.757Z" transform="translate(647.32 -1540.393)" fill="#231f20"/>
    <path id="Path_147" data-name="Path 147" d="M386.62,235.321a3.273,3.273,0,0,1-3.077-2.226c-17.217-50.733-41.176-106.376-49.882-107.685h0c-10.408,0-77.18,55.184-136.488,109.125a3.29,3.29,0,0,1-4.452-4.844C213.276,211.035,315.463,118.93,334.25,118.93h.72c16.758,2.553,46.413,86.41,55.119,112.071a3.207,3.207,0,0,1-2.095,4.124,2.686,2.686,0,0,1-1.375.2Z" transform="translate(692.68 -1507.614)" fill="#d1d3d4"/>
    <path id="Path_148" data-name="Path 148" d="M337.133,218.9a3.273,3.273,0,0,1-3.142-2.422c-11.521-40.914-27.952-84.577-35.677-86.868s-43.6,30.113-72.794,61.272a3.288,3.288,0,0,1-4.779-4.517c14.925-15.907,64.677-67.426,79.471-62.974s36,76.852,40.063,91.647a3.273,3.273,0,0,1-2.226,4.059Z" transform="translate(849.001 -1484.384)" fill="#d1d3d4"/>
    <path id="Path_149" data-name="Path 149" d="M266.032,143.808c-8.052,0-14.4-3.862-14.4-8.772s6.546-8.706,14.4-8.706,14.4,3.8,14.4,8.706S274.083,143.808,266.032,143.808Zm0-15.842c-6.939,0-13.092,3.208-13.092,7.07s5.826,7.135,13.092,7.135S278.8,138.9,278.8,135.036s-5.826-6.874-12.765-6.874Z" transform="translate(1025.299 -1466.573)" fill="#a7a9ac"/>
    <path id="Path_150" data-name="Path 150" d="M287.86,119.047H258.8a.819.819,0,0,1,0-1.637H287.86a.819.819,0,0,1,0,1.637Z" transform="translate(1060.684 -1516.045)" fill="#a7a9ac"/>
    <path id="Path_151" data-name="Path 151" d="M249.018,262.616a3.47,3.47,0,0,1-1.964-.589,3.339,3.339,0,0,1-.72-4.582l92.825-127.389a3.273,3.273,0,0,1,4.582-.72,3.339,3.339,0,0,1,.72,4.582L251.636,261.568A3.338,3.338,0,0,1,249.018,262.616Z" transform="translate(992.562 -1453.408)" fill="#fff"/>
    <path id="Path_152" data-name="Path 152" d="M233.642,145.143a14.4,14.4,0,1,1,14.4-14.4A14.4,14.4,0,0,1,233.642,145.143Zm0-22.257a7.79,7.79,0,1,0,5.574,2.281,7.855,7.855,0,0,0-5.574-2.281Z" transform="translate(845.658 -1521.979)" fill="#d1d3d4"/>
    <rect id="Rectangle_11" data-name="Rectangle 11" width="1477.608" height="62.647" transform="translate(178.346 -1188.502)" fill="#fff"/>
    <path id="Path_153" data-name="Path 153" d="M1564.257,218.2H86.583a3.273,3.273,0,0,1-3.273-3.273V152.283a3.339,3.339,0,0,1,3.273-3.273H1564.257a3.339,3.339,0,0,1,3.273,3.273V214.93a3.273,3.273,0,0,1-3.273,3.273Zm-1474.4-6.546H1560.722V155.491H89.856Z" transform="translate(91.763 -1340.785)" fill="#231f20"/>
    <path id="Path_154" data-name="Path 154" d="M237.594,277.54c1.375,4.648-81.3,301.453-81.3,301.453l115.54,18.591L408.384,187.53Z" transform="translate(496.525 -1127.145)" fill="#fff"/>
    <path id="Path_155" data-name="Path 155" d="M274.626,603.549H274.1l-115.54-18.591a3.339,3.339,0,0,1-2.291-1.44,3.8,3.8,0,0,1-.393-2.684C188.15,465.228,236.2,290.379,237.116,280.559a3.273,3.273,0,0,1,1.767-3.142l170.79-90.01a3.4,3.4,0,0,1,3.666.393,3.47,3.47,0,0,1,.982,3.535L277.7,601.389A3.208,3.208,0,0,1,274.626,603.549ZM163.34,579,272.531,596.61l133.15-399.646L243.335,282.458c-3.6,18.788-30.505,118.355-80.125,296.543Z" transform="translate(493.729 -1129.837)" fill="#231f20"/>
    <path id="Path_156" data-name="Path 156" d="M170.139,247.034,152.53,302.415l276.708,21.406A115.017,115.017,0,0,0,366.394,267.2c-28.738-10.081-59.7-22.126-59.7-22.126l-14.009,33.386Z" transform="translate(475.671 -808.017)" fill="#231f20"/>
    <path id="Path_157" data-name="Path 157" d="M431.808,329.848h0L155.1,308.442a3.273,3.273,0,0,1-2.88-4.255l17.609-55.381a3.273,3.273,0,0,1,3.928-2.16l119.8,30.7,13.092-30.767a3.208,3.208,0,0,1,4.19-1.768c.327,0,31.225,12.111,59.636,22.061a117.833,117.833,0,0,1,64.742,58.392,3.274,3.274,0,0,1,0,3.208,3.142,3.142,0,0,1-3.4,1.375ZM159.421,302.223l266.758,20.686a112.268,112.268,0,0,0-58.261-49.882c-23.37-8.183-48.442-17.74-56.887-20.948l-12.765,30.374a3.339,3.339,0,0,1-3.862,1.964L174.87,253.912Z" transform="translate(473.1 -810.77)" fill="#231f20"/>
    <path id="Path_158" data-name="Path 158" d="M238.082,201.88,218.444,514.527s-66.378,2.291-83.006,13.943-30.178,64.415-30.178,64.415h20.686s12.045-39.277,25.268-43.99,88.374-6.546,88.374-6.546,36.266,14.009,42.092,38.033c4.582,18.919,3.273,23.3,3.273,23.3h22.912a116.916,116.916,0,0,0-4.582-31.814c-4.582-13.092-21.8-28.738-21.8-28.738s37.9.786,50.537.786,25.792,24.09,25.792,24.09h24.679s-25.792-43.467-42.485-46.543-59.5-10.539-59.5-10.539L268.85,219.62Z" transform="translate(213.502 -1047.557)" fill="#231f20"/>
    <path id="Path_159" data-name="Path 159" d="M310.647,609.576H287.735a3.535,3.535,0,0,1-2.684-1.309,3.4,3.4,0,0,1-.458-2.946,69.323,69.323,0,0,0-3.339-21.537c-4.91-20.49-34.957-33.647-39.277-35.48-21.275.458-76.394,2.422-86.672,6.546-8.51,3.142-18.788,27.363-23.239,41.83a3.339,3.339,0,0,1-3.142,2.357H108.042a3.338,3.338,0,0,1-3.142-4.124c.524-2.16,14.009-54.072,31.422-66.248,15.384-10.736,68.473-13.812,81.828-14.4L237.395,204.5a3.4,3.4,0,0,1,1.7-2.684,3.339,3.339,0,0,1,3.142,0l31.029,17.871a3.208,3.208,0,0,1,1.636,2.684l11.587,288.687c9.557,1.637,42.812,7.4,56.952,10.081,17.544,3.273,41.961,43.467,44.645,48.049a3.273,3.273,0,0,1,0,3.273,3.339,3.339,0,0,1-2.88,1.7H360.529a3.338,3.338,0,0,1-2.88-1.7c-4.713-8.641-15.187-22.388-22.912-22.388-8.9,0-30.505-.393-42.419-.589a75.61,75.61,0,0,1,16.758,24.155,116.584,116.584,0,0,1,4.779,32.731A3.273,3.273,0,0,1,310.647,609.576Zm-19.639-6.546h16.169a105.268,105.268,0,0,0-4.32-27.494c-4.255-12.241-20.751-27.167-20.948-27.363a3.339,3.339,0,0,1-.851-3.6,3.535,3.535,0,0,1,3.142-2.095c.393,0,37.968.786,50.471.786s24.156,18,27.69,24.09h16.889c-8.772-13.812-26.185-38.033-37.182-40.063-16.431-3.077-58.916-10.408-59.44-10.474a3.273,3.273,0,0,1-2.749-3.142L268.424,224.2l-24.876-14.336L224.5,517.536a3.273,3.273,0,0,1-3.142,3.077c-18.2.655-68.277,4.255-81.238,13.092-11.783,8.248-23.174,41.83-27.821,58.458h14.009c3.011-9.23,13.747-39.277,26.185-43.794s86.41-6.546,89.487-6.546h1.244c1.571.589,37.968,14.86,44.121,40.259a108.865,108.865,0,0,1,3.8,20.948Zm-69.913-85.952Z" transform="translate(210.982 -1050.109)" fill="#231f20"/>
    <path id="Path_160" data-name="Path 160" d="M276.213,171.42s261.455,13.943,277.952,51.191S449.426,669.455,449.426,669.455,577.4,713.707,556.456,723s-230.426-9.3-230.426-9.3l99.306-379.68L166.63,316.615Z" transform="translate(553.872 -1216.494)" fill="#fff"/>
    <path id="Path_161" data-name="Path 161" d="M526.222,731.687c-61.4,0-180.741-10.408-197.564-11.914a3.238,3.238,0,0,1-2.88-4.124L423.97,340.093,169.192,322.942a3.535,3.535,0,0,1-2.749-1.9,3.208,3.208,0,0,1,.393-3.339L276.484,172.249a2.815,2.815,0,0,1,2.749-1.309c.655,0,66.248,3.535,133.019,11.652,136.75,16.5,145.064,35.284,147.813,41.5,16.169,36.593-91.647,405.865-103.561,446.124,34.76,12.11,108.078,39.277,108.6,52.7a6.087,6.087,0,0,1-4.255,5.892A120.632,120.632,0,0,1,526.222,731.687ZM333.043,713.554c60.749,5.368,208.824,16.431,224.993,9.23h0c-4.321-7.921-58.13-30.505-106.965-47.329a3.273,3.273,0,0,1-2.029-4.059C482.558,557.82,566.874,256.433,553.781,226.778S353.86,181.61,280.412,177.617L175.673,316.854,428.356,333.94a3.338,3.338,0,0,1,2.488,1.309,3.732,3.732,0,0,1,.524,2.749ZM558.625,722.457Z" transform="translate(551.179 -1219.287)" fill="#231f20"/>
    <path id="Path_162" data-name="Path 162" d="M169.82,294.389S304.148,461.971,361.558,457.324,583.409,246.078,583.409,246.078c29.72-35.48,62.974-80.518,41.7-129.418-2.095-4.713-5.761-9.754-10.867-9.361a13.877,13.877,0,0,0-5.957,2.422l-18.329,11.26c.589-5.041-5.826-8.641-10.736-7.266a22.125,22.125,0,0,0-11.26,9.819c-19.049,27.1-31.356,52.893-30.309,86.279L345.454,308l-76.263-84.381" transform="translate(571.565 -1572.246)" fill="#fff"/>
    <path id="Path_163" data-name="Path 163" d="M361.894,463.612c-59.636,0-186.567-157.109-192-164.244A3.273,3.273,0,0,1,175,295.309c1.309,1.637,130.4,161.822,186.7,161.822h2.226C419.3,452.68,581.715,249.159,583.286,247.064c30.7-36.528,61.665-79.34,41.307-126.014-.786-1.833-3.535-7.659-7.594-7.4a10.8,10.8,0,0,0-4.517,1.964l-18.46,11.194a3.273,3.273,0,0,1-4.975-3.142,2.618,2.618,0,0,0-1.178-2.422,6.546,6.546,0,0,0-5.368-1.309,19.639,19.639,0,0,0-9.492,8.576c-16.1,22.912-30.833,48.966-29.72,84.315a3.273,3.273,0,0,1-1.767,3.011l-192.2,98.193a3.273,3.273,0,0,1-3.928-.72L269.2,228.8a3.273,3.273,0,0,1,0-4.648,3.338,3.338,0,0,1,4.648,0l74.5,82.351,188.2-95.9c-.589-36.2,14.467-62.844,30.9-86.213a25.529,25.529,0,0,1,13.092-11.129,13.092,13.092,0,0,1,11.456,2.684,10.8,10.8,0,0,1,2.226,2.684l14.663-8.968a16.692,16.692,0,0,1,7.463-2.88c5.7-.458,10.736,3.731,14.009,11.325,23.7,54.333-19.115,105.394-42.157,132.822-6.546,8.379-165.75,207.711-223.946,212.424Z" transform="translate(568.938 -1575.196)" fill="#231f20"/>
    <path id="Path_164" data-name="Path 164" d="M144.368,156.392s-69.193,156.781-43.532,173.54,181.853,0,181.853,0L269.138,127" transform="translate(157.309 -1462.856)" fill="#fff"/>
    <path id="Path_165" data-name="Path 165" d="M163,343.083c-27.952,0-52.37-1.964-61.272-7.855-4.451-2.88-18.068-11.718,10.932-96.622,13.943-40.914,31.291-80.322,31.487-80.715a3.273,3.273,0,1,1,5.957,2.618C123.915,220.145,88.435,318.8,105.324,329.729c19.639,13.092,130.924,4.451,176.747,0L268.979,130a3.281,3.281,0,1,1,6.546-.458l13.551,202.932a3.273,3.273,0,0,1-2.946,3.469C281.548,336.209,215.562,343.083,163,343.083Z" transform="translate(154.522 -1465.664)" fill="#231f20"/>
    <path id="Path_166" data-name="Path 166" d="M123.463,252.666s-33.844,75.15,2.226,122.545S662.477,428.3,662.477,428.3l35.939-179.955L488.938,219.8,476.762,157.55Z" transform="translate(234.576 -1293.42)" fill="#fff"/>
    <path id="Path_167" data-name="Path 167" d="M665.653,434.516h0c-1.244,0-126.734-1.506-255.3-8.772-173.147-9.819-268.852-25.2-284.432-45.823C89.129,331.61,121.86,257.245,123.3,254.1a3.207,3.207,0,0,1,2.16-1.833l353.495-95.116a3.077,3.077,0,0,1,2.618.393,3.207,3.207,0,0,1,1.44,2.095l11.718,60.029,206.925,28.149a3.143,3.143,0,0,1,2.226,1.375,3.077,3.077,0,0,1,.524,2.488L668.86,431.832A3.273,3.273,0,0,1,665.653,434.516ZM128.864,258.358c-4.255,10.408-29.327,76.067,2.488,117.832,27.625,36.266,358.208,49.751,531.617,51.846L697.729,254.1,491.916,226.085a3.273,3.273,0,0,1-2.749-2.618l-11.456-58.916Z" transform="translate(231.532 -1296.362)" fill="#231f20"/>
    <path id="Path_168" data-name="Path 168" d="M171.43,289.433a45.038,45.038,0,0,1-13.092-11.914,69.066,69.066,0,0,1-10.474-23.239c-17.74-64.153-17.871-146.308,39.277-190.233A132.757,132.757,0,0,1,307.2,42.772c27.756,9.034,51.322,47.2,63.695,72.008,10.147,20.1,17.02,41.961,29.065,60.945s31.225,35.611,53.744,36.724a67.819,67.819,0,0,1-58.916,3.535,38.426,38.426,0,0,0,38.95,14.6c-13.092,10.408-31.814,10.016-48.311,6.546s-32.731-8.706-49.686-6.546c-26.185,2.946-43.2,22.192-63.694,36.135C246.057,283.738,201.15,306.649,171.43,289.433Z" transform="translate(391.767 -1963.27)" fill="#fff"/>
    <path id="Path_169" data-name="Path 169" d="M198.691,302.088a51.258,51.258,0,0,1-26.185-6.546h0A46.935,46.935,0,0,1,158.3,282.449a72.923,72.923,0,0,1-11-24.614c-8.641-31.422-31.422-138.387,40.259-193.637A135.7,135.7,0,0,1,310.7,42.4c29.72,9.623,53.875,50.078,65.462,73.317,3.928,7.855,7.463,16.038,10.8,23.959a258.841,258.841,0,0,0,18.068,36.79c6.546,10.147,24.352,33.844,51.126,35.153a3.208,3.208,0,0,1,3.011,2.488,3.142,3.142,0,0,1-1.571,3.6,71.223,71.223,0,0,1-47.787,7.79,34.7,34.7,0,0,0,25.661,4.321,3.273,3.273,0,0,1,2.815,5.761c-11.718,9.23-28.869,11.718-50.995,7.463-3.928-.72-7.855-1.637-11.783-2.553a110.764,110.764,0,0,0-36.855-4.19c-18.526,2.095-32.273,13.092-46.871,24.155-4.975,3.862-10.081,7.79-15.384,11.456C261.142,282.514,228.411,302.088,198.691,302.088ZM270.372,42.924a129.811,129.811,0,0,0-78.947,26.708c-68.408,52.828-46.347,156.258-37.9,186.763a66.181,66.181,0,0,0,10.016,22.388,40.784,40.784,0,0,0,12.241,11.063h0c31.553,18.329,82.286-13.092,97.08-23.108,5.106-3.469,10.147-7.4,14.991-11.194,14.664-11.39,29.851-23.174,50.209-25.465a115.408,115.408,0,0,1,39.277,4.321c3.862.851,7.724,1.767,11.587,2.487a72.99,72.99,0,0,0,33.124,0,42.027,42.027,0,0,1-27.036-16.366,3.273,3.273,0,0,1,0-3.928,3.142,3.142,0,0,1,3.8-.982,65,65,0,0,0,46.216.982,79.928,79.928,0,0,1-45.234-36.462A258.221,258.221,0,0,1,381.2,142.426c-3.339-7.79-6.546-15.907-10.671-23.566-9.034-18-33.189-60.814-61.731-70.044a124.379,124.379,0,0,0-38.426-5.892Z" transform="translate(389.185 -1966.498)" fill="#231f20"/>
    <path id="Path_170" data-name="Path 170" d="M186.893,68.25s17.871,55.9,8.51,63.825-28.8-4.517-28.8-4.517" transform="translate(553.706 -1788.696)" fill="#fff"/>
    <path id="Path_171" data-name="Path 171" d="M190.213,140.776a48.769,48.769,0,0,1-22.453-7.725,3.273,3.273,0,1,1,3.535-5.5c4.582,2.88,18.918,10.016,24.875,4.779,4.517-3.862-1.309-34.3-9.688-60.291a3.339,3.339,0,0,1,2.16-4.124,3.273,3.273,0,0,1,4.124,2.095c4.321,13.616,17.74,58.916,7.659,67.295a14.925,14.925,0,0,1-10.212,3.469Z" transform="translate(550.975 -1791.439)" fill="#231f20"/>
    <path id="Path_172" data-name="Path 172" d="M360.929,89.13c15.253,21.733,0,54.333-6.546,76.525q-13.551,46.871-29.262,93.021c-6.546,19.639-58.13,5.433-65.462-3.011L245.651,336.25,137.18,298.74l34.891-97.735s34.891,10.081,66.313-24.679S291.67,52.93,291.67,52.93,346.069,67.855,360.929,89.13Z" transform="translate(390.537 -1873.664)" fill="#fff"/>
    <path id="Path_173" data-name="Path 173" d="M248.379,342.116h-1.047L138.8,304.737a3.142,3.142,0,0,1-1.9-1.637,3.8,3.8,0,0,1,0-2.553l34.629-98.062a3.208,3.208,0,0,1,3.928-2.029c1.375.327,33.451,8.968,63.04-23.763s52.37-121.039,52.37-121.956a3.142,3.142,0,0,1,1.506-2.029,3.273,3.273,0,0,1,2.487,0c2.291.655,55.774,15.515,71.157,37.444h0c13.616,19.639,4.844,45.823-2.291,67.426-1.375,4.19-2.684,8.183-3.8,11.914-9.034,31.094-18.853,62.451-29.327,93.152a18.067,18.067,0,0,1-15.056,10.932,89.355,89.355,0,0,1-51.126-9.557l-13.092,75.412a3.076,3.076,0,0,1-1.571,2.226,2.945,2.945,0,0,1-1.375.458ZM144.1,299.3l101.728,35.219,13.092-76.852a3.273,3.273,0,0,1,5.7-1.571c4.713,5.433,33.058,14.336,49.686,11.063,5.63-1.113,9.034-3.469,10.212-7,10.408-30.571,20.293-61.8,29.262-92.825,1.113-3.8,2.488-7.855,3.862-12.176,6.546-19.966,14.925-44.841,3.142-61.6s-52.37-30.374-64.284-33.909c-4.386,16.693-24.679,89.879-53.221,121.432-27.429,30.309-57.148,28.018-66.64,26.185Z" transform="translate(387.743 -1876.256)" fill="#231f20"/>
    <path id="Path_174" data-name="Path 174" d="M195.842,98.231s-28.476,8.117-34.3-20.621" transform="translate(525.642 -1736.783)" fill="#fff"/>
    <path id="Path_175" data-name="Path 175" d="M190.186,105.38a30.637,30.637,0,0,1-16.038-4.059,29.327,29.327,0,0,1-13.092-20.228,3.338,3.338,0,1,1,6.547-1.309,23.043,23.043,0,0,0,9.819,15.907,29.261,29.261,0,0,0,20.359,2.226,3.39,3.39,0,1,1,1.768,6.546A38.619,38.619,0,0,1,190.186,105.38Z" transform="translate(522.591 -1739.612)" fill="#231f20"/>
    <path id="Path_176" data-name="Path 176" d="M203.855,112.169a44.449,44.449,0,0,0-2.684-23.959A65.986,65.986,0,0,0,193.839,70.8a21.734,21.734,0,0,0-15.449-9.885A19.639,19.639,0,0,0,163.4,67.459a36.4,36.4,0,0,0-8.248,14.4,69.717,69.717,0,0,0,14.205,68.015l-1.244-2.357" transform="translate(471.086 -1829.408)" fill="#fff"/>
    <path id="Path_177" data-name="Path 177" d="M172.156,155.929a3.4,3.4,0,0,1-2.422-1.047,73.514,73.514,0,0,1-14.925-71.55,39.276,39.276,0,0,1,9.034-15.645,23.239,23.239,0,0,1,17.609-7.266,24.221,24.221,0,0,1,17.871,11.325,67.954,67.954,0,0,1,7.79,18.264,47.463,47.463,0,0,1,2.749,25.727,3.339,3.339,0,0,1-4.059,2.357,3.273,3.273,0,0,1-2.291-3.993,42.354,42.354,0,0,0-2.684-22.126,59.5,59.5,0,0,0-6.939-16.5,18,18,0,0,0-13.092-8.51,16.5,16.5,0,0,0-12.438,5.3,33.19,33.19,0,0,0-7.528,13.092,66.837,66.837,0,0,0,10.67,61.665,3.535,3.535,0,0,1,2.16,1.7l1.178,2.357a3.207,3.207,0,0,1-1.047,4.19,3.078,3.078,0,0,1-1.637.655Z" transform="translate(468.286 -1832.188)" fill="#231f20"/>
    <ellipse id="Ellipse_7" data-name="Ellipse 7" cx="11.587" cy="4.582" rx="11.587" ry="4.582" transform="translate(731.186 -1737.13) rotate(-77.39)" fill="#231f20"/>
    <path id="Path_178" data-name="Path 178" d="M190.786,109.579A400.174,400.174,0,0,1,150,79.27s-6.546,56.69,32.273,69.717Z" transform="translate(459.345 -1727.577)" fill="#231f20"/>
    <path id="Path_179" data-name="Path 179" d="M185.076,154.889a2.946,2.946,0,0,1-1.047,0c-40.717-13.682-34.76-70.764-34.5-73.187a3.338,3.338,0,0,1,2.029-2.684,3.4,3.4,0,0,1,3.339.524,405.869,405.869,0,0,0,40.456,30.112,3.338,3.338,0,0,1,1.44,3.4l-8.51,39.277a3.339,3.339,0,0,1-1.571,2.16,3.6,3.6,0,0,1-1.636.393ZM155.749,88.576c0,14.009,1.833,47.46,26.97,58.588l7.2-33.451a406.246,406.246,0,0,1-34.171-25.137Z" transform="translate(456.544 -1730.206)" fill="#231f20"/>
    <path id="Path_180" data-name="Path 180" d="M108.16,668.164s5.892-400.627,65.986-492.863S390.17,62.248,464.535,117.236,503.092,592.49,503.092,592.49,265.989,668.164,108.16,668.164Z" transform="translate(229.586 -1684.108)" fill="#12669e"/>
    <path id="Path_181" data-name="Path 181" d="M156.389,88.11A434.142,434.142,0,0,1,266.1,152.852C317.557,195.6,426.158,379.416,426.158,379.416L282.927,466.153,154.36,307.6Z" transform="translate(485.82 -1678.548)" fill="#12669e"/>
    <path id="Path_182" data-name="Path 182" d="M289.594,91.92s-74.954,8.445-114.624,90.73C153.5,227.3,98.51,371.443,98.51,371.443l165.357,19.049Z" transform="translate(176.065 -1657.417)" fill="#12669e"/>
    <path id="Path_183" data-name="Path 183" d="M283.34,297.253a3.208,3.208,0,0,1-2.619-1.375L153,121.946a3.273,3.273,0,0,1,.655-4.582,3.339,3.339,0,0,1,4.582.72L285.958,292.016a3.273,3.273,0,0,1-2.619,5.237Z" transform="translate(474.672 -1519.664)" fill="#231f20"/>
    <path id="Path_184" data-name="Path 184" d="M230.6,198.325,262.546,99.15l9.95,2.88-20.1,97.8S238.259,213.447,230.6,198.325Z" transform="translate(908.663 -1617.318)" fill="#231f20"/>
    <path id="Path_185" data-name="Path 185" d="M243.123,211.487H240.9a14.663,14.663,0,0,1-10.539-8.772,3.274,3.274,0,0,1,0-2.488l31.749-99.306a3.4,3.4,0,0,1,4.059-2.16l9.95,2.88a3.273,3.273,0,0,1,2.291,3.8l-20.1,98.193a3.143,3.143,0,0,1-.917,1.637A23.108,23.108,0,0,1,243.123,211.487Zm-6.546-10.8a7.79,7.79,0,0,0,5.172,4.19,14.4,14.4,0,0,0,10.081-3.993l19.311-93.807-3.993-1.113Z" transform="translate(905.959 -1620.072)" fill="#231f20"/>
    <path id="Path_186" data-name="Path 186" d="M323.945,84.786c-58.916-13.092-124.378-3.928-171.969,32.731a121.693,121.693,0,0,0-43.4,58.916A77.114,77.114,0,0,0,120.751,247c45.169,54.268,144.344,54.006,205.682,36.266,41.83-12.045,165.684-70.83,131.579-128.567C433.463,113.393,368.132,94.278,323.945,84.786Z" transform="translate(211.234 -1728.314)" fill="#12669e"/>
    <path id="Path_187" data-name="Path 187" d="M222.089,223.39a232.062,232.062,0,0,1-110.827-31.88,3.208,3.208,0,0,1-1.047-4.517,3.273,3.273,0,0,1,4.517-.982c.786.524,81.762,50.864,158.418,21.8,36.79-13.943,58.916-38.688,80.06-62.582,23.37-26.185,45.431-50.929,83.53-54.4a3.273,3.273,0,0,1,3.535,3.011,3.208,3.208,0,0,1-2.946,3.535c-35.48,3.208-55.774,26.185-79.209,52.37-20.817,23.37-44.383,49.817-82.679,64.349a150.561,150.561,0,0,1-53.351,9.3Z" transform="translate(238.071 -1663.528)" fill="#231f20"/>
    <path id="Path_188" data-name="Path 188" d="M111.725,374.653h0a3.273,3.273,0,0,1-3.142-3.4c4.779-103.626,26.185-252.749,26.185-254.254a3.339,3.339,0,0,1,3.731-2.749,3.273,3.273,0,0,1,2.749,3.666c0,1.506-21.668,150.563-26.185,253.6a3.273,3.273,0,0,1-3.339,3.142Z" transform="translate(231.913 -1533.762)" fill="#231f20"/>
    <path id="Path_189" data-name="Path 189" d="M194.069,285.691H333.176S348.3,251.978,380.9,247.33c0,0,126.865,53.613,108.209,64.611S184.25,321.76,184.25,321.76Z" transform="translate(651.596 -795.482)" fill="#231f20"/>
    <path id="Path_190" data-name="Path 190" d="M216.26,327.92H187a3.207,3.207,0,0,1-2.553-1.244,3.273,3.273,0,0,1-.589-2.88l9.819-36.07a3.273,3.273,0,0,1,3.208-2.422H333.961c3.862-7.528,19.639-34.106,49.293-38.361a3.013,3.013,0,0,1,1.7,0c26.185,11,111.285,48.18,112.136,64.415a6.546,6.546,0,0,1-3.469,6.023C477.715,326.938,292.13,327.92,216.26,327.92Zm-24.941-6.546c114.755.327,286-1.767,298.965-9.427,0-8.117-55.446-36.593-107.03-58.458-29.72,4.844-44.121,36.069-44.252,36.4a3.273,3.273,0,0,1-3.011,1.9H199.371Z" transform="translate(648.782 -798.304)" fill="#231f20"/>
    <path id="Path_191" data-name="Path 191" d="M699.236,649.857c88.57-18.657,147.944-60.094,113.118-116S527.4,514.22,478.5,472.782s-31.422-261.193-85.1-298.834S109.62,98.274,83.893,145.8s0,393.361,74.954,470.148S612.827,667.663,699.236,649.857Z" transform="translate(41.297 -1481.656)" fill="#231f20"/>
    <path id="Path_192" data-name="Path 192" d="M442.471,674.848H427.676c-99.5-.851-226.826-10.867-268.394-53.286C85.179,545.1,56.245,199.135,84.066,147.486c4.779-8.837,15.711-15.318,32.731-19.639,71.157-16.889,235.663,13.878,281.487,45.823,28.869,20.228,37.837,89.159,46.544,155.8,7.921,60.88,16.1,123.789,38.95,143.231,21.733,18.46,88.5,21.144,153.116,23.763,79.536,3.208,161.822,6.546,181.526,38.1,11.39,18.329,13.616,36,6.546,52.37-13.092,30.243-56.167,54.53-121.825,68.342h0C658.037,665.225,547.8,674.848,442.471,674.848ZM166.548,130.007a220.013,220.013,0,0,0-48.442,4.517c-14.925,3.535-24.483,8.968-28.28,16.1-25.4,46.936,2.291,392.183,74.43,466.286C237.64,692.26,614.7,667.647,701.569,649.645h0C764.216,636.552,806.9,612.986,818.746,585.1c6.153-14.4,4.124-30.047-6.088-46.478-17.871-28.672-98.193-31.88-176.224-35.022-68.735-2.749-133.673-5.368-157.109-25.334-24.745-21.079-32.731-82.417-41.176-147.355s-17.282-132.757-43.859-151.283C358.941,154.686,245.037,130.007,166.548,130.007Zm535.741,522.91Z" transform="translate(38.244 -1484.717)" fill="#231f20"/>
    <path id="Path_193" data-name="Path 193" d="M376.4,213.237h-.524l-211.05-36.921a3.32,3.32,0,1,1,1.113-6.546l211.05,36.921a3.286,3.286,0,0,1-.589,6.546Z" transform="translate(528.513 -1225.908)" fill="#d1d3d4"/>
    <path id="Path_194" data-name="Path 194" d="M331.4,479.488l-6.546-.72c0-1.9,20.62-191.411-44.972-275.595l5.172-3.993c28.28,36.266,44.71,94.527,48.7,173.147A737.872,737.872,0,0,1,331.4,479.488Z" transform="translate(1181.979 -1062.532)" fill="#231f20"/>
    <path id="Path_195" data-name="Path 195" d="M314.139,396.713a22.449,22.449,0,0,1,.655-6.546c15.646-99.175-10.867-145.391-35.873-166.732l4.255-4.975c26.185,22.388,54.2,70.568,38.1,172.754-.393,2.488-.655,4.124-.655,4.779Z" transform="translate(1176.655 -955.601)" fill="#231f20"/>
    <path id="Path_196" data-name="Path 196" d="M358.059,217.46a37.446,37.446,0,0,0-17.413-5.106,40.128,40.128,0,0,0-30.833,8.445c-2.16,2.095-4.059,5.63-2.095,7.921a7.789,7.789,0,0,0,4.19,1.964,26.185,26.185,0,0,1,18,18c-4.517-3.339-8.379-7.594-13.092-10.932a22.061,22.061,0,0,0-15.646-5.106A26.186,26.186,0,0,0,285.92,242.86a60.622,60.622,0,0,0-10.408,15.253,28.082,28.082,0,0,0-2.357,18.133A43.663,43.663,0,0,1,291.55,275a21.735,21.735,0,0,1,11.914,4.91,5.957,5.957,0,0,1,2.095,3.142,5.237,5.237,0,0,1-4.124,5.564,16.631,16.631,0,0,1-7.594,0,133.473,133.473,0,0,0-16.169-2.291,15.9,15.9,0,0,0-6.088.393,13.092,13.092,0,0,0-6.546,13.485,7.985,7.985,0,0,0,2.291,5.957c2.684,2.095,6.546.589,9.688-.72a47.526,47.526,0,0,1,17.282-3.666,3.994,3.994,0,0,1,1.964.327,2.88,2.88,0,0,1,.524,4.255,7.79,7.79,0,0,1-4.19,2.422,91,91,0,0,1-13.747,3.208c-2.684.392-5.826.982-7.135,3.4a7.4,7.4,0,0,0-.72,3.4,41.9,41.9,0,0,0,7.332,24.941,11.979,11.979,0,0,0,3.142,3.4,13.551,13.551,0,0,0,5.826,1.571,95.445,95.445,0,0,0,45.823-6.546,4.059,4.059,0,0,0,1.9-1.375c.851-1.506-.589-3.273-1.7-4.582-4.844-5.957-3.731-14.533-2.356-22.061a6.547,6.547,0,0,1,1.7-3.928,4.386,4.386,0,0,1,5.891.917,11.063,11.063,0,0,1,2.16,6.153,57.415,57.415,0,0,1-1.833,23.108,117.032,117.032,0,0,0,21.93-7.463,67.749,67.749,0,0,0,15.973-8.837,26.185,26.185,0,0,0,9.754-15.056,4.843,4.843,0,0,0-.327-3.339,5.435,5.435,0,0,0-1.964-1.7A41.373,41.373,0,0,1,368.8,285.8c-.655-1.571-.982-3.732.458-4.517a3.143,3.143,0,0,1,1.9,0c8.248,1.375,12.438,10.6,19.246,15.514a3.468,3.468,0,0,0,1.9.786,3.011,3.011,0,0,0,2.226-.982,17.61,17.61,0,0,0,5.3-9.558,34.5,34.5,0,0,0-1.178-21.8,24.679,24.679,0,0,0-15.973-14.336,28.21,28.21,0,0,0-10.212-.458c-1.178,0-7.463,2.226-8.314,1.44s2.488-5.5,3.273-7.07C371.675,235.135,365.98,222.7,358.059,217.46Z" transform="translate(1098.76 -991.718)" fill="#231f20"/>
    <path id="Path_197" data-name="Path 197" d="M320.529,230.569a31.552,31.552,0,0,0-26.185,13.551,36.136,36.136,0,0,0-4.582,22.65,104.753,104.753,0,0,0,5.63,22.715,32.011,32.011,0,0,1,25.006-16.3c10.67-.917-1.767,9.361-3.6,11.521-6.023,7.07-11.783,14.336-17.479,21.668a10.277,10.277,0,0,0-.982,13.943,66.9,66.9,0,0,0,19.639,25.072,8.117,8.117,0,0,0,8.51,1.375,9.491,9.491,0,0,0,2.88-4.19,74.634,74.634,0,0,1,12.111-18.067c1.178-1.375,3.077-2.749,4.582-1.768s1.244,2.488,1.113,3.928l-1.375,14.6a34.626,34.626,0,0,0,.917,15.776c3.469,9.3,13.943,13.943,23.7,15.776a15.512,15.512,0,0,0,8.117,0c5.237-1.833,7.4-8.052,8.314-13.551a40.258,40.258,0,0,1,8.576-19.639,73.248,73.248,0,0,0,8.968,27.036,36.593,36.593,0,0,0,9.623,11.587,34.563,34.563,0,0,0,14.205,5.892,106.708,106.708,0,0,0,26.185,1.44,65.469,65.469,0,0,0,17.937-2.292,24.287,24.287,0,0,0,14.14-10.67c5.172-9.3,1.178-21.275-5.5-29.523s-15.711-14.4-22.65-22.453a63.37,63.37,0,0,1,23.632,12.307,8.772,8.772,0,0,0,6.546,3.011,5.827,5.827,0,0,0,3.011-1.7c10.343-10.343-1.571-27.821-7.069-37.117a30.178,30.178,0,0,0-14.664-15.056,23.96,23.96,0,0,0-11.783,0c-5.892.982-35.088,14.271-22.65-3.208a34.3,34.3,0,0,1,27.1-11.849c5.04.458,12.7,4.517,12.569-4.91a17.677,17.677,0,0,0-3.8-9.23,202.508,202.508,0,0,0-13.092-17.479,8.574,8.574,0,0,0-4.909-3.469,8.379,8.379,0,0,0-4.91,1.375,111.674,111.674,0,0,1-38.884,14.533c-3.142,0-7.528-.982-7-4.058a4.583,4.583,0,0,1,2.03-2.684c8.313-6.546,20.751-3.731,29.261-9.754a10.212,10.212,0,0,0,4.648-7.332c0-4.386-3.6-7.855-7.135-10.539A62.058,62.058,0,0,0,400,199.016c-17.216-1.375-32.731,9.95-44.318,22.846-3.862,4.386-6.546,15.776-12.5,15.056a99.517,99.517,0,0,1-11-4.648,37.508,37.508,0,0,0-11.652-1.7Z" transform="translate(1235.203 -1064.07)" fill="#231f20"/>
    <path id="Path_198" data-name="Path 198" d="M414.557,210.965a28.543,28.543,0,0,0-8.575-17.413c-8.772-7.986-21.93-8.379-33.648-6.546a172.11,172.11,0,0,0-25.792,7.659c-8.445,2.422-10.932,4.321-3.4,11.194,5.3,4.779,19.639,21.864,13.092,30.047s-17.544-12.7-21.8-16.169a31.16,31.16,0,0,0-20.686-8.837,32.273,32.273,0,0,0-17.805,9.427,187.738,187.738,0,0,0-14.532,14.336,7.266,7.266,0,0,0-1.7,2.553c-1.047,3.8,4.124,6.023,7.986,6.546,11.063,2.029,23.435,7.79,25.661,18.788-11.39,2.815-22.126-8.707-33.778-7.463a26.512,26.512,0,0,0-18.657,16.562,42.028,42.028,0,0,0-2.815,23.37,62.451,62.451,0,0,1,30.636-2.619,5.3,5.3,0,0,1,3.4,1.506,3.8,3.8,0,0,1-1.505,5.106,10.082,10.082,0,0,1-5.761.982H265.893a8.247,8.247,0,0,0-5.3,1.244,7.462,7.462,0,0,0-2.095,4.91,102.643,102.643,0,0,0-.327,26.185,22.256,22.256,0,0,0,5.957,14.532,22.846,22.846,0,0,0,10.081,4.321,133.155,133.155,0,0,0,29.262,3.666,23.043,23.043,0,0,1-2.946-21.144c3.928-9.165,10.6-3.862,10.932,4.451,0,3.928-.72,7.79-.851,11.718a4.124,4.124,0,0,0,.393,2.16,3.929,3.929,0,0,0,1.506,1.178,24.025,24.025,0,0,0,17.02,2.226,10.934,10.934,0,0,0,4.517-2.029,14.2,14.2,0,0,0,2.75-13.092L334.1,316.686a3.666,3.666,0,0,1,.655-3.208c1.178-1.178,3.273,0,4.517.916a21.209,21.209,0,0,1,7.07,17.217c0,3.731-1.571,7.332-1.833,11a10.671,10.671,0,0,0,3.928,9.885,13.092,13.092,0,0,0,10.081.524,19.638,19.638,0,0,0,11.456-5.957,17.674,17.674,0,0,0,2.16-13.878,87.751,87.751,0,0,1-2.75-14.205c0-9.688,9.95-23.566,11.587-6.546a118.664,118.664,0,0,1-.982,16.627,4.845,4.845,0,0,0,0,2.16,4.452,4.452,0,0,0,3.731,1.768,41.37,41.37,0,0,0,22.323-4.321,34.825,34.825,0,0,0,12.176-9.819,57.534,57.534,0,0,0,6.088-10.932c7.921-16.824,20.555-29.982,5.826-47.984-5.04-6.153-14.4-7.79-19.115-14.074-5.564-7.463,3.011-19.311,3.339-28.672a40.036,40.036,0,0,0,.2-6.219Z" transform="translate(1057.776 -1135.065)" fill="#231f20"/>
    <path id="Path_199" data-name="Path 199" d="M274.27,239H441.2L428.106,364.294a37.313,37.313,0,0,1-37.182,33.517H324.218A37.313,37.313,0,0,1,287.1,364.3Z" transform="translate(1150.865 -841.682)" fill="#fff"/>
    <path id="Path_200" data-name="Path 200" d="M394.3,404.054H327.33a40.652,40.652,0,0,1-40.521-36.593L273.717,242.166a3.536,3.536,0,0,1,.851-2.553,3.4,3.4,0,0,1,2.553-1.113H444.049a3.208,3.208,0,0,1,2.488,1.113,3.077,3.077,0,0,1,.851,2.553L434.3,367.461A40.586,40.586,0,0,1,394.3,404.054ZM281.114,245.243l12.438,121.563a33.909,33.909,0,0,0,33.778,30.505H394.3a33.909,33.909,0,0,0,33.779-30.505l12.5-121.563Z" transform="translate(1147.753 -844.455)" fill="#231f20"/>
    <path id="Path_201" data-name="Path 201" d="M291.61,423.817c0-1.178-13.092-121.1,45.823-217.727l5.63,3.4c-57.672,94.658-44.841,212.359-44.71,213.537Z" transform="translate(1240.163 -1024.207)" fill="#231f20"/>
    <path id="Path_202" data-name="Path 202" d="M270.106,259.427a3.339,3.339,0,0,1-2.226-.916,3.273,3.273,0,0,1,0-4.648c34.171-36,87.981-57.934,90.272-58.916a3.276,3.276,0,1,1,2.422,6.088c-.524,0-54.792,22.257-87.981,57.279A3.273,3.273,0,0,1,270.106,259.427Z" transform="translate(1110.057 -1087.299)" fill="#fff"/>
    <path id="Path_203" data-name="Path 203" d="M273.671,288.743a3.273,3.273,0,0,1-2.88-4.779,272.26,272.26,0,0,1,46.74-63.5,3.208,3.208,0,0,1,4.582,0,3.273,3.273,0,0,1,0,4.582,267.415,267.415,0,0,0-45.43,61.862A3.338,3.338,0,0,1,273.671,288.743Z" transform="translate(1129.534 -949.817)" fill="#fff"/>
    <path id="Path_204" data-name="Path 204" d="M388.036,307.392a3.4,3.4,0,0,1-2.75-1.44c-1.571-2.422-39.277-58.916-83.988-92.3a3.274,3.274,0,0,1-.655-4.582,3.338,3.338,0,0,1,4.582-.655c44.645,33.713,81.435,87.85,85.493,93.873a3.273,3.273,0,0,1-.917,4.517A3.011,3.011,0,0,1,388.036,307.392Z" transform="translate(1293.513 -1014.813)" fill="#fff"/>
    <rect id="Rectangle_12" data-name="Rectangle 12" width="397.42" height="278.999" transform="translate(1266.783 -1844.496)" fill="#fff"/>
    <path id="Path_205" data-name="Path 205" d="M650.207,334.345H252.853a3.273,3.273,0,0,1-3.273-3.273v-279a3.273,3.273,0,0,1,3.273-3.273H650.207a3.273,3.273,0,0,1,3.273,3.273v279A3.273,3.273,0,0,1,650.207,334.345ZM256.126,327.8H646.934V55.346H256.126Z" transform="translate(1013.93 -1896.569)" fill="#d1d3d4"/>
    <path id="Path_206" data-name="Path 206" d="M333.417,229.783a3.339,3.339,0,0,1-3.273-2.749l-16.1-104.477-28.149,12.438a3.273,3.273,0,0,1-4.32-1.7,3.208,3.208,0,0,1,1.7-4.255l32.142-13.878a3.208,3.208,0,0,1,2.88,0,3.339,3.339,0,0,1,1.7,2.357l16.758,108.34a3.208,3.208,0,0,1-2.75,3.732Z" transform="translate(1189.846 -1530.421)" fill="#231f20"/>
    <path id="Path_207" data-name="Path 207" d="M370.95,298.98H288.991L284.54,122.56H375.4Z" transform="translate(1207.825 -1487.482)" fill="#fff"/>
    <path id="Path_208" data-name="Path 208" d="M373.945,304.961H291.987a3.273,3.273,0,0,1-3.273-3.142L284,125.464a3.338,3.338,0,0,1,.916-2.357,3.4,3.4,0,0,1,2.357-1.047h90.861a3.469,3.469,0,0,1,3.273,3.4l-4.451,176.747A3.273,3.273,0,0,1,373.945,304.961Zm-78.554-6.546h75.543l4.255-169.874H290.874Z" transform="translate(1204.829 -1490.255)" fill="#231f20"/>
    <rect id="Rectangle_13" data-name="Rectangle 13" width="107.489" height="17.871" transform="translate(1484.051 -1382.793)" fill="#fff"/>
    <path id="Path_209" data-name="Path 209" d="M393.532,143.747H286.043a3.273,3.273,0,0,1-3.273-3.273V122.6a3.273,3.273,0,0,1,3.273-3.273H393.532A3.273,3.273,0,0,1,396.8,122.6v17.871A3.273,3.273,0,0,1,393.532,143.747ZM289.316,137.2H390.259V125.876H289.316Z" transform="translate(1198.008 -1505.396)" fill="#231f20"/>
    <path id="Path_210" data-name="Path 210" d="M327.856,206.845a39.277,39.277,0,1,1,35.939-39.277A37.706,37.706,0,0,1,327.856,206.845Zm0-71.681A32.731,32.731,0,1,0,357.248,167.9,31.16,31.16,0,0,0,327.856,135.164Z" transform="translate(1211.707 -1454.917)" fill="#d1d3d4"/>
    <path id="Path_211" data-name="Path 211" d="M335.734,241.063A73.122,73.122,0,0,1,312.168,237a159.085,159.085,0,0,1-28.607-12.176h0c-2.226-1.244-4.386-2.684-6.546-4.124A47.655,47.655,0,0,1,256,189.217a20.948,20.948,0,0,1,2.226-13.747,31.489,31.489,0,0,1,14.4-10.932,37.38,37.38,0,0,0,10.474-6.546c6.546-7,3.993-17.216,1.375-28.018-.72-2.749-1.375-5.433-1.9-8.052a56.624,56.624,0,0,1,12.438-47.656,57.673,57.673,0,0,1,48.638-18.919c25.4,2.88,45.43,15.122,54.988,33.517a56.821,56.821,0,0,1-2.684,54.6,31.357,31.357,0,0,0-5.761,17.02,29.328,29.328,0,0,0,8.183,14.14,37.051,37.051,0,0,1,9.557,17.086c1.571,10.736-5.5,21.013-21.6,31.422a92.759,92.759,0,0,1-50.6,17.937Zm-48.9-22a151.03,151.03,0,0,0,27.429,11.718c27.625,9.427,49.293-.851,68.6-13.092,13.747-8.968,19.639-17.086,18.657-25.007a31.553,31.553,0,0,0-8.117-13.878,35.216,35.216,0,0,1-9.623-17.609A35.283,35.283,0,0,1,390,140.775a50.733,50.733,0,0,0,2.88-48.9C384.373,75.444,366.174,64.512,343,61.828a50.864,50.864,0,0,0-43.009,16.758,50.144,50.144,0,0,0-10.932,42.092c.524,2.488,1.178,5.106,1.833,7.725,2.815,11.456,6.023,24.483-2.946,34.04a42.222,42.222,0,0,1-12.372,8.117,26.186,26.186,0,0,0-11.652,8.445,14.664,14.664,0,0,0-1.375,9.557,41.7,41.7,0,0,0,18.4,26.97,70.08,70.08,0,0,0,5.891,3.862Z" transform="translate(1047.702 -1861.81)" fill="#d1d3d4"/>
    <path id="Path_212" data-name="Path 212" d="M451.557,179.746a131.446,131.446,0,0,1-48.9-10.147l-3.273-1.309a42.026,42.026,0,0,0-44.449,1.7,79.269,79.269,0,0,1-22.781,7.659,53.547,53.547,0,0,1-46.805-20.293h0a73.905,73.905,0,0,1-17.937-37.772,40.128,40.128,0,0,1,21.93-42.223c15.187-6.546,31.356-2.029,47.067,2.422a93.153,93.153,0,0,0,35.153,5.368,83.659,83.659,0,0,0,26.185-9.034,148.535,148.535,0,0,1,16.5-7c26.185-8.706,76.787,0,96.687,21.864a44.907,44.907,0,0,1,10.8,43.009,62.974,62.974,0,0,1-41.307,41.765A92.889,92.889,0,0,1,451.557,179.746ZM379.09,156.18h1.571a63.563,63.563,0,0,1,21.275,5.957l3.142,1.309a107.686,107.686,0,0,0,72.859,5.7,56.428,56.428,0,0,0,37.051-37.117,38.753,38.753,0,0,0-9.361-36.986C487.692,75.4,439.839,66.955,415.88,75.007A138.906,138.906,0,0,0,400.1,81.553a89.88,89.88,0,0,1-27.952,9.885,99.5,99.5,0,0,1-37.706-5.63c-15.187-4.321-29.589-8.445-42.616-2.684a33.844,33.844,0,0,0-17.871,35.415,67.754,67.754,0,0,0,16.627,34.5c6.939,7.79,21.472,20.621,41.11,18.133a74.5,74.5,0,0,0,20.817-7.135A65,65,0,0,1,379.09,156.18Z" transform="translate(1110.132 -1802.391)" fill="#d1d3d4"/>
    <path id="Path_213" data-name="Path 213" d="M363.275,167.184a28.345,28.345,0,0,1-23.239-9.754,43.53,43.53,0,0,0-10.867-7.921,44.775,44.775,0,0,0-15.252-4.124A33.713,33.713,0,0,1,289.237,133.6a38.818,38.818,0,0,1-7.266-31.553,52.37,52.37,0,0,1,24.221-34.826c34.5-20.293,98.52.851,119.4,30.833,7.4,10.6,15.842,31.618-10.474,52.893A83.268,83.268,0,0,1,367.4,167.315h0ZM339.708,65.456a59.636,59.636,0,0,0-30.178,7.07A45.824,45.824,0,0,0,288.452,102.9a31.748,31.748,0,0,0,5.957,26.185,27.494,27.494,0,0,0,20.424,9.427,44.122,44.122,0,0,1,29.72,14.14,23.37,23.37,0,0,0,22.453,7.79h0A79.339,79.339,0,0,0,411,145.582c16.693-13.551,19.639-28.8,9.23-44.056-14.009-20.162-50.013-36.07-80.518-36.07Z" transform="translate(1189.119 -1838.861)" fill="#d1d3d4"/>
    <rect id="Rectangle_14" data-name="Rectangle 14" width="277.952" height="183.555" transform="translate(938.949 -1879.126)" fill="#fff"/>
    <path id="Path_218" data-name="Path 218" d="M480.725,233.733H202.773a3.273,3.273,0,0,1-3.273-3.273V46.773a3.273,3.273,0,0,1,3.273-3.273H480.725A3.338,3.338,0,0,1,484,46.773V230.459a3.338,3.338,0,0,1-3.273,3.273Zm-274.94-6.546H477.714V50.112H206.046Z" transform="translate(736.176 -1925.964)" fill="#d1d3d4"/>
    <rect id="Rectangle_15" data-name="Rectangle 15" width="277.952" height="36.331" transform="translate(938.949 -1695.505)" fill="#fff"/>
    <path id="Path_219" data-name="Path 219" d="M480.725,114.438H202.773a3.273,3.273,0,0,1-3.273-3.273V74.833a3.273,3.273,0,0,1,3.273-3.273H480.725A3.273,3.273,0,0,1,484,74.833v36.331A3.273,3.273,0,0,1,480.725,114.438Zm-274.94-6.546H477.714V78.106H206.046Z" transform="translate(736.176 -1770.338)" fill="#d1d3d4"/>
    <path id="Path_220" data-name="Path 220" d="M207.684,147.208a3.208,3.208,0,0,1-2.553-5.3c3.142-3.928,78.554-96.426,148.861-90.861,28.018,2.226,47.133,16.889,51.191,39.277A44.253,44.253,0,0,1,380.9,138.5c-19.638,9.1-37.837,8.968-50.537-.393a38.034,38.034,0,0,1-13.485-37.575,28.607,28.607,0,0,1,20.49-26.185,34.237,34.237,0,0,1,33.517,9.492,14.271,14.271,0,0,1,2.16,16.038c-4.975,9.623-10.867,14.664-17.544,14.925-10.67,0-18.526-12.11-18.853-12.634a3.273,3.273,0,0,1,1.113-4.517,3.208,3.208,0,0,1,4.451,1.113c1.7,2.684,7.135,9.819,13.092,9.492s9.3-6.546,11.914-11.39a7.725,7.725,0,0,0-1.44-8.9,27.559,27.559,0,0,0-26.643-7.332,22.388,22.388,0,0,0-15.777,20.751,31.749,31.749,0,0,0,10.867,31.356c10.67,7.921,26.709,7.855,43.925,0a37.575,37.575,0,0,0,20.293-41.372c-3.469-19.18-20.359-31.815-45.234-33.778-66.575-5.5-142.249,87.457-142.969,88.439A3.339,3.339,0,0,1,207.684,147.208Z" transform="translate(763.079 -1885.459)" fill="#d1d3d4"/>
    <path id="Path_221" data-name="Path 221" d="M314.949,175.777h-107.1a3.273,3.273,0,0,1-3.273-3.273V87.4a3.273,3.273,0,0,1,3.273-3.273h107.1a3.273,3.273,0,0,1,3.273,3.273v85.1A3.273,3.273,0,0,1,314.949,175.777Zm-103.823-6.546h100.55V90.676H211.126Z" transform="translate(764.35 -1700.622)" fill="#d1d3d4"/>
    <path id="Path_222" data-name="Path 222" d="M216.033,109.795a3.273,3.273,0,0,1-3.273-3.273V86.163a3.273,3.273,0,1,1,6.546,0v20.228a3.273,3.273,0,0,1-3.273,3.4Z" transform="translate(809.718 -1707.499)" fill="#d1d3d4"/>
  </g>
</svg>
