<svg xmlns="http://www.w3.org/2000/svg" width="1731.841" height="1489.905" viewBox="0 0 1731.841 1489.905">
  <g id="Group_4" data-name="Group 4" transform="translate(-323 -2325.453)">
    <path id="Path_62" data-name="Path 62" d="M196.146,250.8s156.57-4.56,192.43-145.1l-112-6.909L114.13,227.169Z" transform="translate(602.531 2701.7)" fill="#00709d"/>
    <path id="Path_63" data-name="Path 63" d="M130.875,223.67,72.49,238.595l5.182,61.564,70.063-7.739Z" transform="translate(356.458 3439.679)" fill="#fff"/>
    <path id="Path_64" data-name="Path 64" d="M80.577,306.57a3.386,3.386,0,0,1-3.455-3.109l-5.113-61.633a3.524,3.524,0,0,1,2.556-3.662l58.385-14.855a3.178,3.178,0,0,1,2.626.345,3.317,3.317,0,0,1,1.589,2.142l16.859,68.75a3.248,3.248,0,0,1-.484,2.764,3.455,3.455,0,0,1-2.487,1.451L80.991,306.57Zm-1.52-62.186,4.629,55.276,62.6-6.909-15.063-61.495Z" transform="translate(353.554 3436.723)" fill="#231f20"/>
    <path id="Path_81" data-name="Path 81" d="M231.428,427.955c5.873-17.2,11.608-34.548,17.688-51.476,3.109-8.913,6.91-17.619,10.3-26.325a25.288,25.288,0,0,1,27.223-16.79c13.819,1.589,27.638,4.491,41.457,6.909a130.78,130.78,0,0,0,22.387,2.9,24.944,24.944,0,0,0,15.408-4.975c15.892-15.2,31.162-31.024,46.224-47.054a23.906,23.906,0,0,0,4.7-21.972c-3.524-16.79-7.6-33.442-10.986-50.232a67.31,67.31,0,0,1-1.866-19.9,18.517,18.517,0,0,1,6.495-12.714,304.015,304.015,0,0,1,82.914-37.864,20.729,20.729,0,0,1,23.7,8.568c10.572,14.51,21.765,28.674,31.922,43.6a33.511,33.511,0,0,0,32.682,16.445c18.379-1.313,36.828-1.658,55.276-2.487a20.728,20.728,0,0,0,16.583-10.019c6.564-9.673,12.783-19.692,19.209-29.435,5.527-8.43,10.917-16.859,16.79-25.012a21.074,21.074,0,0,1,25.358-8.775c25.5,8.775,50.923,17.827,76.005,27.638a22.318,22.318,0,0,1,13.819,24.6c-1.382,13.819-4.56,28.053-6.909,42.079-1.036,6.91-2.073,13.266-2.557,19.969a27.155,27.155,0,0,0,8.5,23.285c13.335,12.714,26.947,25.151,39.868,38.279a29.918,29.918,0,0,0,29.849,8.5c18.241-3.939,36.275-8.361,54.516-12.3a24.253,24.253,0,0,1,30.471,14.51q15.546,32.544,29.987,65.641c6.909,16.03,4.491,25.289-9.4,36.275-9.328,7.393-19.416,13.819-29.02,20.728-6.909,5.113-13.819,10.5-20.107,16.1a23.425,23.425,0,0,0-8.5,18.863c.484,19,.76,38.071,1.658,57.142a29.85,29.85,0,0,0,15.27,25.289c10.364,6.219,20.728,12.23,31.3,18.587A201.315,201.315,0,0,1,988.366,599.1a22.456,22.456,0,0,1,8.43,27.638q-12.576,34.548-25.635,68.681a51.587,51.587,0,0,1-5.666,9.812,20.245,20.245,0,0,1-21.35,10.019l-49.4-8.775-3.731-.622a35.515,35.515,0,0,0-37.864,13.266c-9.328,10.986-19.83,20.728-29.849,31.438a35.722,35.722,0,0,0-9.259,35.861c4.076,16.03,8.015,32.06,11.332,48.367s0,24.46-15.546,32.06q-33.58,16.1-68.059,30.609a22.732,22.732,0,0,1-30.125-7.877c-8.844-11.193-16.929-22.94-25.22-34.548-17.758-24.943-22.179-27.224-52.789-25.634l-35.722,2a32.958,32.958,0,0,0-28.053,16.375c-7.255,12.023-14.234,24.253-21.834,36A116.234,116.234,0,0,1,534.2,900.842a16.721,16.721,0,0,1-18.863,4.837c-24.114-8.982-48.366-17.826-72.2-26.947a49.4,49.4,0,0,1-9.259-5.32,20.246,20.246,0,0,1-10.157-21.351c2.626-16.307,5.389-32.613,7.946-48.919.76-4.975,1.244-10.019,1.52-14.994a25.981,25.981,0,0,0-8.292-22.11c-13.128-12.023-26.118-24.252-39.039-36.413a28.813,28.813,0,0,0-28.467-6.91c-16.03,3.939-32.2,7.462-48.367,11.193a16.888,16.888,0,0,1-1.8.415c-21.074,3.869-27.638,1.105-37.035-18.241-10.157-21.557-19.415-43.53-28.4-65.64-5.459-13.819-3.109-21.212,8.706-30.126s25.911-19.278,39.453-27.638a38.831,38.831,0,0,0,19.347-38c-1.175-17.136-1.658-34.548-2.556-51.476a21.282,21.282,0,0,0-10.019-17.9c-14.234-9.189-28.674-18.1-42.839-27.292-9.328-6.081-18.794-12.092-22.594-23.492ZM777.28,523.721A162.857,162.857,0,0,0,613.11,361C538,361,452.671,426.573,452.74,524.2A162.927,162.927,0,0,0,614.216,685.749c104.61.484,167.418-89.824,163-162.028Z" transform="translate(1052.634 2585.954)" fill="#00709d"/>
    <path id="Path_82" data-name="Path 82" d="M523.9,913.147a21.42,21.42,0,0,1-7.324-1.382l-19.9-7.393-52.3-19.554a49.72,49.72,0,0,1-8.637-4.836l-1.244-.829a23.769,23.769,0,0,1-11.677-24.805l3.524-21.765c1.52-9.051,2.971-18.1,4.422-27.154.691-4.284,1.105-8.982,1.451-14.648a22.525,22.525,0,0,0-6.91-19.346c-11.608-10.641-23.147-21.42-34.547-32.2l-4.491-4.215a25.152,25.152,0,0,0-25.22-6.149c-11.263,2.764-22.525,5.32-33.857,7.877l-14.51,3.317-2,.483c-23.078,4.215-31.093,0-40.766-20.245-8.775-18.587-17.55-38.9-28.4-65.779-6.08-14.924-3.386-24.183,9.812-34.548,14.925-11.4,27.638-20.314,39.661-28.122a35.446,35.446,0,0,0,17.757-34.547c-.76-10.641-1.175-21.35-1.658-32.06,0-6.495-.553-12.99-.9-19.416a17.827,17.827,0,0,0-8.43-15.2c-5.873-3.8-11.815-7.531-17.758-11.262l-25.15-16.03c-9.881-6.426-19.761-12.852-23.907-25.358a2.759,2.759,0,0,1,0-1.036v-6.288a2.83,2.83,0,0,1,0-1.106l5.113-14.994c4.077-12.161,8.222-24.391,12.576-36.551,3.247-9.19,6.909-18.172,10.364-26.463a28.813,28.813,0,0,1,30.747-18.794c9.328,1.036,18.587,2.695,27.638,4.284l13.819,2.418,5.528.967a85.126,85.126,0,0,0,16.237,1.935,21.973,21.973,0,0,0,13.128-4.077c16.928-16.1,32.751-32.751,46.017-46.846a20.039,20.039,0,0,0,3.869-18.932c-1.52-7.393-3.247-14.856-4.906-22.249-2.073-9.328-4.215-18.656-6.081-27.984a71.239,71.239,0,0,1-1.934-20.728,21.971,21.971,0,0,1,8.153-15.339,304.639,304.639,0,0,1,83.95-38.21,23.976,23.976,0,0,1,27.638,9.811q5.666,7.808,11.4,15.339c6.91,9.19,13.819,18.725,20.729,28.329a30.4,30.4,0,0,0,29.642,15.063c11.884-.9,24.045-1.382,35.791-1.8l19.416-.76a17.342,17.342,0,0,0,13.819-8.5c3.869-5.735,7.6-11.539,11.332-17.343l7.808-12.092,2.764-4.284c4.56-6.909,9.189-13.819,14.164-20.729a24.6,24.6,0,0,1,29.3-9.95c30.678,10.572,54.171,19.07,76,27.638a25.5,25.5,0,0,1,15.892,28.122c-.9,9.466-2.626,18.932-4.353,28.122-.829,4.7-1.727,9.466-2.487,14.164-.967,6.219-2,12.921-2.556,19.692a23.975,23.975,0,0,0,7.462,20.728l9.4,8.844c10.157,9.535,20.729,19.416,30.609,29.5a26.463,26.463,0,0,0,26.67,7.531c8.844-1.935,17.688-3.939,26.463-6.011s18.656-4.284,27.638-6.288A27.638,27.638,0,0,1,964.243,329.5c10.364,21.7,20.729,43.806,30.056,65.779,7.531,17.412,4.767,28.4-10.433,40.352-5.528,4.422-11.47,8.568-17.2,12.575-3.938,2.764-7.946,5.528-11.884,8.43-7.255,5.458-13.819,10.641-19.9,15.892a20.107,20.107,0,0,0-7.324,16.237V500.58c0,14.855.691,30.194,1.382,45.188a26.4,26.4,0,0,0,13.819,22.525l13.266,7.808c6.011,3.524,12.092,6.909,18.1,10.779a213.86,213.86,0,0,1,19.07,12.783,25.98,25.98,0,0,1,9.535,31.231c-7.808,21.558-16.237,44.014-25.7,69.1a46.45,46.45,0,0,1-5.389,9.6l-.622-.415a23.77,23.77,0,0,1-24.805,11.539c-11.263-1.8-22.525-3.731-33.788-5.6l-17-2.833-2.695-.415a32.2,32.2,0,0,0-34.548,12.092c-6.564,7.808-13.819,15.2-20.728,22.318-3.04,3.109-6.081,6.15-9.052,9.259a32.475,32.475,0,0,0-8.36,32.682c3.869,15.339,7.946,31.853,11.331,48.367,3.869,18.932-.414,27.638-17.412,35.861-20.728,9.811-42.77,19.83-68.2,30.678a26.187,26.187,0,0,1-34.2-8.914c-7.324-9.258-14.164-18.932-20.728-28.4l-4.422-6.219c-17.136-24.114-20.728-25.7-49.818-24.183L616.28,836.52l-15.477.9a29.365,29.365,0,0,0-25.219,14.717c-2.419,4.008-4.837,8.015-6.91,12.023-4.7,7.946-9.6,16.168-14.717,24.045a112.71,112.71,0,0,1-14.165,17.55A20.728,20.728,0,0,1,523.9,913.147ZM368.712,720.924a31.162,31.162,0,0,1,21.9,8.982l4.491,4.215c11.47,10.71,22.94,21.489,34.548,32.129a29.434,29.434,0,0,1,9.4,24.874,94.971,94.971,0,0,1-1.52,15.27c-1.451,9.12-2.971,18.172-4.422,27.223-1.175,6.91-2.419,14.51-3.524,21.765a16.721,16.721,0,0,0,8.637,17.9l1.244.829a37.234,37.234,0,0,0,7.255,4.146c17.412,6.909,34.893,13.059,52.305,19.554l19.9,7.393a13.4,13.4,0,0,0,15.2-4.007,110.085,110.085,0,0,0,13.335-16.514c5.044-7.808,9.881-15.961,14.51-23.838l7.255-12.091a36.343,36.343,0,0,1,30.816-18.034l15.408-.829,20.383-1.175c31.646-1.589,37.311,1.175,55.76,27.085l4.491,6.288c6.564,9.328,13.4,18.932,20.729,27.984a19.415,19.415,0,0,0,26.118,6.909c25.289-10.779,47.537-20.728,67.851-30.609,13.819-6.909,16.859-12.506,13.819-28.191s-7.393-32.889-11.262-48.366A39.315,39.315,0,0,1,823.427,750.7c2.971-3.109,6.08-6.218,9.121-9.328,6.91-6.91,14.165-14.3,20.729-21.9a38.97,38.97,0,0,1,41.457-14.441,10.835,10.835,0,0,0,2.072.345h1.451L914.08,708l33.719,5.666a17,17,0,0,0,17.965-8.568l.553-.9a41.471,41.471,0,0,0,4.7-8.153c9.4-24.736,17.826-47.192,25.634-68.681a19.07,19.07,0,0,0-7.324-23.423,199.414,199.414,0,0,0-18.379-12.368c-5.942-3.662-12.023-6.91-18.034-10.71l-13.266-7.808a33.373,33.373,0,0,1-16.928-28.122c-.691-15.132-1.037-30.54-1.382-45.4V487.728a27.085,27.085,0,0,1,9.673-21.558c6.288-5.389,12.921-10.71,20.314-16.237l12.092-8.568c5.666-3.938,11.47-8.015,16.859-12.3,12.783-10.088,14.717-17.619,8.36-32.2-9.535-21.9-19.623-43.945-29.918-65.571a20.728,20.728,0,0,0-26.67-12.644l-27.638,6.357c-8.844,2-17.688,4.077-26.6,6.011a33.234,33.234,0,0,1-33.027-9.466c-9.88-10.019-20.314-19.761-30.4-29.3l-9.466-8.844a30.747,30.747,0,0,1-9.535-26.118c.553-6.909,1.589-13.819,2.626-20.245q1.175-6.91,2.487-14.3c1.658-9.051,3.385-18.379,4.284-27.638a19.208,19.208,0,0,0-11.539-20.729c-21.9-8.43-45.326-16.859-76-27.638a17.757,17.757,0,0,0-21.42,7.531c-4.836,6.91-9.466,13.819-13.819,20.728l-2.833,4.284-7.739,12.023c-3.731,5.873-7.531,11.746-11.4,17.481A24.391,24.391,0,0,1,640.67,220.33l-19.485.76c-11.677.415-23.769.9-35.584,1.727a36.965,36.965,0,0,1-35.861-17.965c-6.495-9.535-13.819-19-20.383-28.122-3.8-5.113-7.67-10.226-11.4-15.408a17.274,17.274,0,0,0-20.037-6.909,298.628,298.628,0,0,0-82.085,37.449,15.407,15.407,0,0,0-4.906,10.157,63.435,63.435,0,0,0,1.8,18.863c1.866,9.259,3.938,18.587,6.081,27.638,1.658,7.462,3.316,14.924,4.906,22.387a26.947,26.947,0,0,1-5.6,25.012c-13.336,14.234-29.3,30.955-46.294,47.192a28.258,28.258,0,0,1-17.757,5.942,93.659,93.659,0,0,1-17.619-2l-5.389-.967c-4.7-.76-9.466-1.589-14.165-2.487-8.913-1.589-18.1-3.178-27.154-4.215a21.765,21.765,0,0,0-23.631,14.579c-3.455,8.222-6.909,17.066-10.226,26.118C251.6,392.238,247.45,404.4,243.3,416.56L238.4,431v5.113c3.524,9.881,11.884,15.27,20.729,20.728s16.928,10.848,25.358,16.168l17.757,11.332A24.666,24.666,0,0,1,313.85,505.07c.345,6.909.622,13.059.9,19.554.484,10.641.9,21.281,1.658,31.853a42.286,42.286,0,0,1-20.728,41.457c-11.954,7.739-24.46,16.583-39.246,27.638-10.641,8.084-12.437,14.234-7.6,26.118,10.848,26.809,19.623,46.985,28.329,65.5s13.266,19.969,33.3,16.306l16.168-3.731c11.263-2.556,22.525-5.044,33.719-7.808A40.43,40.43,0,0,1,368.712,720.924ZM616.971,692.18h-.346A166.158,166.158,0,1,1,614.9,359.87l.622.032A165.829,165.829,0,0,1,783.076,526.283a157.33,157.33,0,0,1-44.5,113.8,165.207,165.207,0,0,1-121.607,52.1ZM614.9,366.811a159.886,159.886,0,0,0-109.378,47.745,157.192,157.192,0,0,0-46.916,112A158.919,158.919,0,0,0,616.628,685.478h.343A158.919,158.919,0,0,0,733.535,635.73c29.02-30.817,44.912-71.514,42.631-108.894h0A158.918,158.918,0,0,0,615.52,367.226Z" transform="translate(1050.224 2583.252)" fill="#231f20"/>
    <path id="Path_83" data-name="Path 83" d="M252.94,226.38c2.9-8.568,5.735-17.136,8.775-25.7,1.589-4.422,3.316-8.775,5.182-13.128a12.645,12.645,0,0,1,13.819-8.361c6.909.76,13.819,2.211,20.729,3.386a68.144,68.144,0,0,0,11.124,1.451,12.782,12.782,0,0,0,7.738-2.487c7.946-7.6,15.547-15.546,23.078-23.562a11.609,11.609,0,0,0,2.349-10.986c-1.728-8.361-3.8-16.721-5.459-25.082a34.548,34.548,0,0,1-.967-9.95,9.812,9.812,0,0,1,3.247-6.357A153.6,153.6,0,0,1,384.013,86.67,10.433,10.433,0,0,1,395.9,90.954c5.251,6.91,10.848,14.372,15.892,21.765a16.859,16.859,0,0,0,16.375,8.291c9.19-.691,18.379-.829,27.638-1.313a10.3,10.3,0,0,0,8.292-4.975c3.317-4.837,6.357-9.811,9.6-14.717s5.458-8.43,8.43-12.506a10.433,10.433,0,0,1,12.644-4.353c12.714,4.353,25.427,8.913,38,13.819a11.193,11.193,0,0,1,6.909,12.3c-.691,6.909-2.28,13.819-3.455,21.074-.484,3.247-1.036,6.91-1.244,9.95a13.82,13.82,0,0,0,4.215,11.677c6.909,6.288,13.819,12.506,19.968,19.07a14.856,14.856,0,0,0,14.925,4.284c9.051-2,18.1-4.215,27.224-6.15a12.022,12.022,0,0,1,15.2,7.255c5.182,10.848,10.226,21.765,14.994,32.751a12.921,12.921,0,0,1-4.7,18.172c-4.629,3.731-9.673,6.91-14.51,10.5-3.385,2.557-6.909,5.182-10.019,8.015a11.4,11.4,0,0,0-4.215,9.4c0,9.535.345,19.07.76,28.605a15.2,15.2,0,0,0,7.67,12.645c5.182,3.109,10.433,6.08,15.616,9.259a96.743,96.743,0,0,1,9.4,6.288,11.263,11.263,0,0,1,4.215,13.819q-6.357,17.2-12.852,34.548a25.061,25.061,0,0,1-2.833,4.906,10.087,10.087,0,0,1-10.641,5.044l-24.736-4.146H582.8a17.689,17.689,0,0,0-18.932,6.909c-4.7,5.459-9.949,10.433-14.924,15.685a17.758,17.758,0,0,0-4.63,17.9c2,8.015,4.007,16.1,5.666,24.183a11.815,11.815,0,0,1-7.808,15.961q-16.79,8.084-33.995,15.339a11.331,11.331,0,0,1-15.063-3.939c-4.422-5.6-8.5-11.47-12.575-17.2-8.914-12.506-11.124-13.819-26.395-12.852l-17.9,1.036A16.445,16.445,0,0,0,422.43,437.4c-3.593,6.011-6.909,12.092-10.848,18.034a58.048,58.048,0,0,1-6.909,8.5,8.361,8.361,0,0,1-9.466,2.418l-36.068-13.819a25.709,25.709,0,0,1-4.629-2.626,10.226,10.226,0,0,1-5.044-10.71c1.313-8.153,2.695-16.306,3.939-24.46a68.329,68.329,0,0,0,.76-7.462,12.922,12.922,0,0,0-4.145-11.055c-6.564-6.011-12.99-12.091-19.485-18.172A14.441,14.441,0,0,0,316.3,374.52c-8.015,2-16.1,3.731-24.114,5.6h-.968c-10.5,1.935-13.819.553-18.448-9.121-5.113-10.779-9.743-21.765-14.234-32.82a10.917,10.917,0,0,1,4.353-15.063c6.426-4.837,12.99-9.6,19.761-13.819a19.278,19.278,0,0,0,9.6-19c-.553-8.568-.76-17.136-1.244-25.7a10.571,10.571,0,0,0-4.975-8.982c-6.91-4.56-14.372-9.052-21.42-13.819a23.563,23.563,0,0,1-11.263-11.746Zm272.718,47.883A81.255,81.255,0,0,0,443.643,192.8a82.914,82.914,0,0,0-80.15,81.532,81.463,81.463,0,0,0,80.7,81.325,80.426,80.426,0,0,0,81.463-81.394Z" transform="translate(1180.575 2245.824)" fill="#00709d"/>
    <path id="Path_84" data-name="Path 84" d="M401.018,471.738a12.085,12.085,0,0,1-4.284-.829l-9.466-3.524-26.671-9.95a24.6,24.6,0,0,1-4.629-2.626l-.622-.415a13.82,13.82,0,0,1-6.91-13.819l1.8-10.71c.76-4.629,1.52-9.19,2.211-13.819.345-2.418.553-4.768.691-6.909a9.465,9.465,0,0,0-2.971-8.291l-17.481-16.237-2.073-2a11.055,11.055,0,0,0-11.055-2.626c-5.6,1.382-11.263,2.626-16.859,3.938l-8.36,1.866c-12.368,2.28-17.136,0-22.318-11.055s-10.571-23.838-14.233-32.958a14.234,14.234,0,0,1,5.458-19.139,227.27,227.27,0,0,1,19.969-13.819,15.892,15.892,0,0,0,8.084-15.892c-.414-5.32-.622-10.641-.829-15.961a64.392,64.392,0,0,0-.484-9.812,7.326,7.326,0,0,0-3.386-6.219l-8.913-5.6-12.575-8.015A27.225,27.225,0,0,1,252.464,233.5a3.242,3.242,0,0,1,0-1.106v-3.178a3.047,3.047,0,0,1,0-1.106l2.557-7.462c2.073-6.08,4.146-12.23,6.288-18.31,1.589-4.491,3.386-8.913,5.251-13.266a16.1,16.1,0,0,1,17.55-10.641c4.7.553,9.4,1.382,13.819,2.211l6.91,1.175,2.764.484a45.551,45.551,0,0,0,7.739.967,9.12,9.12,0,0,0,5.459-1.589c8.36-8.015,16.306-16.307,22.94-23.354a8.431,8.431,0,0,0,1.52-7.877l-2.488-11.124c-1.036-4.7-2.142-9.328-3.04-13.819a35.451,35.451,0,0,1-.968-10.986A12.369,12.369,0,0,1,343.6,105.6a154.287,154.287,0,0,1,42.424-19.347,13.819,13.819,0,0,1,15.546,5.6l5.735,7.67c3.455,4.7,6.91,9.328,10.3,13.819a13.335,13.335,0,0,0,13.2,6.909c6.011-.414,12.023-.691,17.965-.9H458.5a6.909,6.909,0,0,0,5.6-3.524c1.935-2.833,3.8-5.735,5.6-8.637l3.939-6.011,1.382-2.142c2.349-3.524,4.63-6.91,6.91-10.5a13.819,13.819,0,0,1,16.583-5.6c15.063,5.182,27.154,9.535,38.14,13.819a14.511,14.511,0,0,1,9.051,15.823,129.086,129.086,0,0,1-2.142,13.819c-.484,2.349-.9,4.7-1.244,6.909s-1.036,6.426-1.313,9.673a10.364,10.364,0,0,0,3.178,8.844l4.629,4.353c5.251,4.906,10.434,9.812,15.408,14.855a11.678,11.678,0,0,0,11.746,3.317l13.335-3.04c4.629-1.036,9.259-2.142,13.819-3.109a15.478,15.478,0,0,1,19.554,8.982c5.251,10.848,10.295,21.972,15.062,32.889A16.236,16.236,0,0,1,632,232.324c-2.764,2.211-5.666,4.284-8.637,6.357s-4.007,2.764-5.942,4.215c-3.524,2.626-6.909,5.251-9.811,7.877a8.222,8.222,0,0,0-3.04,6.91v5.942c0,7.531,0,15.063.622,22.525a11.677,11.677,0,0,0,5.942,9.881l6.909,3.869,9.052,5.389a103.031,103.031,0,0,1,9.674,6.495,14.717,14.717,0,0,1,5.389,17.619q-6.288,17.2-12.852,34.547a28.193,28.193,0,0,1-2.9,5.182,13.818,13.818,0,0,1-14.372,6.909L587.229,371.9h-2.073a14.3,14.3,0,0,0-15.477,5.528q-5.079,5.907-10.572,11.193c-1.52,1.589-3.04,3.109-4.491,4.7a14.3,14.3,0,0,0-3.8,14.648c2,7.739,4.007,15.961,5.735,24.322a15.2,15.2,0,0,1-9.673,19.83c-10.226,4.906-21.419,9.95-34.133,15.339a14.717,14.717,0,0,1-19.139-4.975c-3.662-4.629-6.91-9.535-10.5-14.233l-2.211-3.109c-8.222-11.608-9.328-12.092-23.423-11.4l-9.95.553-7.877.484a13.128,13.128,0,0,0-11.263,6.495c-1.244,2-2.419,4.077-3.593,6.081-2.418,4.008-4.837,8.084-7.324,12.023a63.751,63.751,0,0,1-7.324,9.051A12.3,12.3,0,0,1,401.018,471.738ZM323.354,371.9a17.275,17.275,0,0,1,12.23,4.975l2.073,2c5.8,5.389,11.539,10.848,17.412,16.168a16.445,16.445,0,0,1,5.251,13.819,72.769,72.769,0,0,1-.76,7.808l-2.28,13.819-1.727,10.641a6.909,6.909,0,0,0,3.593,7.255l.622.414a16.453,16.453,0,0,0,3.317,1.866c8.844,3.386,17.688,6.909,26.6,9.95l9.466,3.524a4.767,4.767,0,0,0,5.735-1.589,54.236,54.236,0,0,0,6.495-8.015c2.488-3.8,4.837-7.808,6.91-11.746,1.175-2.073,2.419-4.076,3.662-6.149a19.761,19.761,0,0,1,16.721-9.812l7.877-.414,10.019-.622c16.514-.829,19.761.76,29.365,14.3l2.28,3.109c3.247,4.629,6.909,9.466,10.226,13.819a7.877,7.877,0,0,0,10.986,2.9c12.714-5.39,23.769-10.364,33.926-15.27,6.288-3.04,7.255-5.044,5.873-12.161-1.658-8.222-3.731-16.376-5.666-23.976A21.556,21.556,0,0,1,549.02,387.3l4.629-4.7c3.455-3.455,6.91-6.909,10.226-10.848a21.281,21.281,0,0,1,22.317-7.739h.83l25.565,4.215a6.91,6.91,0,0,0,7.255-3.524,23.792,23.792,0,0,0,2.418-4.146q6.5-17.067,12.851-34.548A7.877,7.877,0,0,0,632,316.274c-2.971-2.28-6.219-4.284-9.051-6.08l-8.913-5.32c-2.28-1.244-4.491-2.557-6.91-3.938a18.31,18.31,0,0,1-9.328-15.408c-.345-7.6-.484-15.132-.622-22.732v-5.942a14.926,14.926,0,0,1,5.39-12.092c3.178-2.695,6.909-5.458,10.295-8.222,2-1.451,4.007-2.9,6.081-4.284s5.6-3.938,8.291-6.08a9.673,9.673,0,0,0,3.662-13.819c-4.7-10.848-9.742-21.9-14.925-32.682a8.775,8.775,0,0,0-11.4-5.32c-4.629.967-9.189,2-13.819,3.109l-13.4,3.04a18.587,18.587,0,0,1-18.1-5.182c-4.906-5.044-10.088-9.881-15.2-14.717l-4.63-4.353a17,17,0,0,1-5.32-14.441,62.679,62.679,0,0,1,1.313-10.226l1.243-7.255c.829-4.422,1.658-9.051,2.142-13.819a7.877,7.877,0,0,0-4.7-8.706c-10.848-4.146-22.94-8.5-37.864-13.819a6.91,6.91,0,0,0-8.775,3.109c-2.418,3.386-4.629,6.91-6.91,10.3l-1.382,2.142c-1.313,1.935-2.626,3.938-3.869,5.942l-5.735,8.775a13.819,13.819,0,0,1-11.055,6.495,76.618,76.618,0,0,0-9.743.415c-5.873,0-11.815.415-17.688.9a20.729,20.729,0,0,1-19.485-9.742c-3.248-4.768-6.91-9.4-10.157-13.819l-5.389-6.979a6.909,6.909,0,0,0-8.153-2.9,145.514,145.514,0,0,0-40.559,18.448,6.493,6.493,0,0,0-1.658,3.8,29.631,29.631,0,0,0,.9,8.913c.9,4.629,1.935,9.259,3.04,13.819s1.658,7.462,2.418,11.193a15.062,15.062,0,0,1-3.178,13.819c-6.909,6.909-14.717,15.477-23.285,23.63a16.306,16.306,0,0,1-10.019,3.455,56.728,56.728,0,0,1-9.121-1.036l-2.626-.484-6.909-1.244c-4.353-.76-8.913-1.589-13.4-2.073a9.121,9.121,0,0,0-10.019,6.219c-1.8,4.284-3.524,8.568-5.113,12.99-2.142,6.011-4.215,12.092-6.219,18.172l-2.349,6.91v1.935a20.727,20.727,0,0,0,9.535,9.4l12.644,8.015,8.913,5.666a14.3,14.3,0,0,1,6.564,11.677c0,3.317.345,6.91.484,9.811,0,5.32.414,10.572.76,15.892a22.525,22.525,0,0,1-11.194,22.11c-5.942,3.8-12.161,8.222-19.485,13.819-4.768,3.593-5.389,5.735-3.247,11.055,3.662,8.982,8.5,20.728,13.819,32.613,3.731,8.015,5.527,8.844,14.717,6.909l1.589,3.178-.829-3.386,7.393-1.658c5.6-1.244,11.193-2.487,16.721-3.869a19.831,19.831,0,0,1,5.182-.415Zm124.371-10.917h0a84.78,84.78,0,1,1,84.918-84.641,80.357,80.357,0,0,1-22.663,58.178,84.366,84.366,0,0,1-62.462,26.74ZM446.689,198.4a78.147,78.147,0,0,0-53.48,23.354,76.9,76.9,0,0,0-22.94,54.723,77.939,77.939,0,0,0,134.459,53.272,73.1,73.1,0,0,0,20.729-53.134h0A77.663,77.663,0,0,0,446.9,198.605Z" transform="translate(1177.46 2243.402)" fill="#231f20"/>
    <path id="Path_85" data-name="Path 85" d="M1030.806,74.23a136.255,136.255,0,0,0-114.767,4.146c-60.251,30.747-45.327,97.77-68.266,111.105S390.225,372.79,347.041,385.227s-84.78,0-134.252-16.928-80.012.76-115.8,31.162S46.96,496.194,66.376,501.929s99.566-64.4,111.036-63.222c0,0,38.141,12.368,49.818,33.511s15.892,74.554,15.892,74.554-88.1,57.764-88.234,61.149,25.565,30.54,79.321,16.1,75.245-48.367,100.81-94.868S451.927,455.289,520.4,429.932,849.846,304.8,873.546,297.96s49.61,5.735,83.743,15.961a110.137,110.137,0,0,0,113.316-28.26c36.413-36.137,38.072-76.765,30.609-102.468,0,0-59.7,40.283-85.195,48.367s-39.246-4.629-54.032-24.943-18.517-52.581-7.67-69.1,80.5-45.534,80.288-49.956A57.554,57.554,0,0,0,1030.806,74.23Z" transform="translate(268.81 2493.341)" fill="#231f20"/>
    <path id="Path_86" data-name="Path 86" d="M207.188,634.5a71.86,71.86,0,0,1-45.465-13.819c-2.833-2.211-7.462-6.495-7.324-9.812,0-2.211,0-5.113,88.1-62.807-.9-9.881-5.389-53.134-15.339-71.1s-42.977-30.264-47.4-31.784c-4.353.553-22.525,13.335-37.1,23.7-35.86,25.289-62.186,42.908-74.277,39.453a15.477,15.477,0,0,1-10.3-13.266c-5.113-23.492,11.4-71.237,39.592-95.144,39.591-33.58,70.27-48.367,119.189-31.853,51.13,17.481,90.584,28.951,132.179,16.928S825.8,202.86,849.012,189.525c7.462-4.284,10.5-16.168,14.3-31.231,6.495-25.358,15.339-60.113,54.1-79.943A138.882,138.882,0,0,1,1035.293,74.2a3.248,3.248,0,0,1,1.658,1.8,55.891,55.891,0,0,1,4.077,14.579c0,3.662-3.109,5.6-25.98,17.412-19.416,10.019-48.781,25.22-54.862,34.548-9.95,15.063-6.288,46.086,7.6,65.157,15.132,20.729,27.638,30.816,50.163,23.631,24.736-7.808,83.743-47.537,84.3-47.952a3.317,3.317,0,0,1,3.109-.346,3.248,3.248,0,0,1,2.142,2.28c3.939,13.819,13.266,61.426-31.438,105.854a113.8,113.8,0,0,1-116.771,29.158c-7.393-2.211-14.372-4.56-20.729-6.909-24.183-7.946-43.254-14.3-60.8-9.19-15.477,4.422-135.772,49.956-232.505,86.576-52.029,19.692-96.733,36.689-120.364,45.326l-26.6,9.673c-63.36,22.732-135.15,48.367-156.984,87.958-26.947,48.919-48.367,82.016-102.952,96.733a119.476,119.476,0,0,1-31.162,4.007ZM162,611.281c4.837,5.942,28.467,24.46,74.277,12.23,51.614-13.819,72.55-45.879,98.737-93.209,23.009-41.457,96.18-67.99,160.646-91.206,9.121-3.247,17.965-6.426,26.533-9.6,23.354-8.637,68.335-25.634,120.364-45.326,101.846-38.21,217.3-82.223,232.989-86.576,19.623-5.666,40.628,1.244,64.88,9.259,6.909,2.211,13.819,4.491,20.729,6.91a107.166,107.166,0,0,0,109.93-27.638c37.933-37.657,34.547-77.663,30.885-94.384-13.819,9.259-59.905,39.039-82.016,46.086-29.089,9.19-44.5-7.877-57.833-26.187-15.616-21.419-19.278-55.276-7.808-73.034,6.91-10.848,35.031-25.289,57.487-36.9,9.121-4.7,19.278-9.95,22.18-12.161a60.315,60.315,0,0,0-2.971-9.811,134.6,134.6,0,0,0-110.552,4.629c-36,18.379-44.083,50.094-50.578,75.521-4.077,15.961-7.6,29.711-17.481,35.515-23.078,13.335-459,183.862-501.631,196.161s-83.951.829-136.256-17.066c-45.81-15.685-74.9-1.382-112.487,30.54-27.638,23.562-41.457,69.1-37.38,88.442.691,3.178,2.211,6.91,5.459,8.084,9.881,2.833,45.119-22.041,68.4-38.486,25.634-18.1,36.551-25.427,42.079-24.874h.691c1.658.553,39.591,13.059,51.752,35.169s16.237,73.725,16.376,76a3.455,3.455,0,0,1-1.52,3.178C218.174,572.035,170.774,603.75,162,611.281Z" transform="translate(265.844 2490.532)" fill="#231f20"/>
    <path id="Path_87" data-name="Path 87" d="M205.246,215.03,141.54,288.478l42.286,44.359,66.193-68.2Z" transform="translate(764.51 3388.621)" fill="#fff"/>
    <path id="Path_88" data-name="Path 88" d="M186.805,339.306a3.454,3.454,0,0,1-2.557-1.106l-42.286-44.359a3.386,3.386,0,0,1,0-4.629l63.706-73.448a3.8,3.8,0,0,1,2.626-1.244,3.455,3.455,0,0,1,2.557,1.175l44.773,49.541a3.524,3.524,0,0,1,0,4.768l-66.538,68.266a3.524,3.524,0,0,1-2.28,1.036Zm-37.657-47.883,37.657,39.453,61.357-63.291L208.225,223.3Z" transform="translate(761.6 3385.607)" fill="#231f20"/>
    <path id="Path_89" data-name="Path 89" d="M487.654,165.68s252.612,135.357,275.966,221.1S602.007,586.4,602.007,586.4l-52.374-61.564s69.095-92.8,40.144-121.124-165.828-84.5-165.828-84.5-13.335,166.519-83.605,242.524c-75.452,81.532-247.983,85.885-247.983,85.885L79.44,554.824s116.7-30.333,165.828-82.914,1.106-294.276,1.106-294.276Z" transform="translate(397.53 3096.988)" fill="#231f20"/>
    <path id="Path_90" data-name="Path 90" d="M94.994,654.518a3.385,3.385,0,0,1-3.386-2.971L79.033,558.407a3.385,3.385,0,0,1,2.556-3.8c1.175,0,116.287-30.609,164.308-81.671s.691-288.818,0-291.236a3.8,3.8,0,0,1,.691-2.833,3.593,3.593,0,0,1,2.557-1.313l241.073-12.368a3.388,3.388,0,0,1,1.866.414c10.364,5.528,254.132,137.016,277.624,223.039C793.477,475.769,614.244,587.5,606.575,592.195a3.455,3.455,0,0,1-4.422-.691L549.64,530.147a3.524,3.524,0,0,1,0-4.353c18.725-25.082,62.186-95.075,40.49-116.563-25.358-24.736-137.016-72.135-160.439-82.016-2.764,28.26-19.554,170.458-84.089,240.244-39.592,42.77-105.646,64.12-154.082,74.553a587.306,587.306,0,0,1-96.457,12.506ZM85.943,560.48l12.023,86.714c23.492-1.106,174.327-11.055,242.455-84.641s82.5-239.139,82.914-240.8a3.247,3.247,0,0,1,1.658-2.626,3.317,3.317,0,0,1,3.109,0c5.6,2.28,137.776,56.8,167,85.194S567.467,512.943,556.9,527.8l48.367,57.211c21.9-13.819,178.542-117.462,157.606-194.227-22.042-80.772-257.379-209.7-273.41-218.341L253.222,184.533c6.218,32.613,44.152,243.491-2.764,293.378C204.994,526.14,104.875,555.3,85.943,560.48Z" transform="translate(394.896 3094.027)" fill="#231f20"/>
    <path id="Path_91" data-name="Path 91" d="M156.76,180.533l15.961-25.842s-1.313-39.453,5.528-44.774,8.913,23.354,10.364,23.009,18.172-38.279,25.911-32.613,10.71,26.671,8.568,34.548-39.8,77.87-39.8,77.87Z" transform="translate(854.453 2707.292)" fill="#fff"/>
    <path id="Path_92" data-name="Path 92" d="M186.132,219.318a3.523,3.523,0,0,1-2.695-1.313L156.9,185.876a3.524,3.524,0,0,1,0-4.008l15.408-25.013c0-10.71-.484-40.766,6.909-46.57a5.8,5.8,0,0,1,5.666-1.036c4.353,1.658,6.218,8.36,8.084,17.757,7.462-13.819,14.786-26.118,21.489-27.638a6.011,6.011,0,0,1,5.251,1.244c9.121,6.909,12.092,29.711,9.743,38.14s-36.206,71.375-40.075,78.561a3.386,3.386,0,0,1-2.764,1.8Zm-22.318-35.929,21.7,26.256c14.925-27.638,35.653-67.368,37.1-72.619,1.935-6.91-1.382-26.118-7.393-30.886-2.349.484-8.153,8.913-17,25.22-3.662,6.909-4.146,7.67-6.011,8.084a3.869,3.869,0,0,1-2.764-.484c-1.658-1.106-2-2.764-3.04-8.291a69.1,69.1,0,0,0-3.731-14.164c-2.695,4.284-4.284,22.249-3.662,41.457a3.177,3.177,0,0,1-.553,1.935Z" transform="translate(851.614 2704.161)" fill="#231f20"/>
    <path id="Path_93" data-name="Path 93" d="M200.135,283.221a81.119,81.119,0,0,1-43.254,6.91,32.475,32.475,0,0,1-18.172-7.393,15.408,15.408,0,0,1-3.869-18.1,23.078,23.078,0,0,1-19.692-7.393,41.044,41.044,0,0,1-9.535-19.485,27.638,27.638,0,0,1,5.32-26.532c-7.393-3.386-15.546-7.6-17.827-15.408a26.257,26.257,0,0,1,0-12.023,131.273,131.273,0,0,1,6.91-22.94c1.589-4.008,4.215-8.43,8.5-8.775a41.457,41.457,0,0,1,5.6-43.254,34.548,34.548,0,0,1,18.794-12.368,137.152,137.152,0,0,1,24.114,0A41.457,41.457,0,0,1,190.047,78.63,28.675,28.675,0,0,1,213.539,95.9a63.22,63.22,0,0,1,26.947.415,30.54,30.54,0,0,1,20.729,16.721,20.729,20.729,0,0,1-6.288,24.321,21.972,21.972,0,0,1,19.485,21.212,26.6,26.6,0,0,1-17.343,24.183A9.328,9.328,0,0,0,253.2,184.9a11.262,11.262,0,0,0-1.727,5.113c-1.244,5.735-6.357,8.568-8.568,13.819a139.925,139.925,0,0,0-5.873,22.663,211.092,211.092,0,0,1-6.91,21.489,120.019,120.019,0,0,1-8.844,23.976c-4.076,6.288-9.12,6.91-15.615,9.328C203.521,281.908,201.931,282.6,200.135,283.221Z" transform="translate(474.17 2582.564)" fill="#fff"/>
    <path id="Path_94" data-name="Path 94" d="M169.194,297.418a69.1,69.1,0,0,1-9.811-.691,35.031,35.031,0,0,1-20.038-8.222,20.107,20.107,0,0,1-6.288-17,27.638,27.638,0,0,1-17.412-8.706,43.944,43.944,0,0,1-10.433-20.729,33.442,33.442,0,0,1,3.178-26.533,27.155,27.155,0,0,1-15.616-15.616,28.606,28.606,0,0,1,0-13.819,134.125,134.125,0,0,1,6.91-23.561,18.8,18.8,0,0,1,6.909-9.466,45.05,45.05,0,0,1,6.91-43.6A38.209,38.209,0,0,1,134.231,95.66a140.062,140.062,0,0,1,23.354,0,44.428,44.428,0,0,1,35.031-17.55,32.2,32.2,0,0,1,25.151,16.859,62.184,62.184,0,0,1,25.911.9,33.926,33.926,0,0,1,22.594,18.725,24.874,24.874,0,0,1-2.557,23.631,25.911,25.911,0,0,1,16.03,23.147,29.918,29.918,0,0,1-19.554,27.638,7.4,7.4,0,0,0-2.487,1.175,5.251,5.251,0,0,0-.691,2.349v1.244a21.211,21.211,0,0,1-5.459,9.466,21.564,21.564,0,0,0-3.386,4.768,70.408,70.408,0,0,0-3.731,14.441c-.553,2.626-1.106,5.182-1.727,7.6a217.789,217.789,0,0,1-6.91,21.765c-.967,2.626-1.8,5.32-2.557,8.084a60.39,60.39,0,0,1-6.909,16.583,21.351,21.351,0,0,1-12.852,8.982l-4.284,1.658-4.975,2.142h0A92.863,92.863,0,0,1,169.194,297.418Zm-31.369-33.027a3.317,3.317,0,0,1,2.833,1.52,3.524,3.524,0,0,1,0,3.662,12.161,12.161,0,0,0,3.178,13.819,28.951,28.951,0,0,0,16.306,6.426,78.283,78.283,0,0,0,41.457-6.909l4.837-2c1.658-.76,3.248-1.313,4.768-1.866a14.924,14.924,0,0,0,9.328-6.219,55.9,55.9,0,0,0,5.8-14.786c.829-2.9,1.658-5.8,2.695-8.568a215.223,215.223,0,0,0,6.91-20.729c.553-2.28,1.036-4.768,1.589-6.91a74.011,74.011,0,0,1,4.422-16.03,27.643,27.643,0,0,1,4.422-6.357,15.41,15.41,0,0,0,4.007-6.426v-1.036a11.814,11.814,0,0,1,2.349-5.735,11.607,11.607,0,0,1,4.768-2.833,23.492,23.492,0,0,0,15.546-21.143,18.31,18.31,0,0,0-16.237-17.758,3.524,3.524,0,0,1-1.727-6.357,17.2,17.2,0,0,0,5.044-20.107,27.085,27.085,0,0,0-18.1-14.648,57.418,57.418,0,0,0-25.5-.415,3.386,3.386,0,0,1-3.731-2.073A25.151,25.151,0,0,0,192.064,85.78a38.348,38.348,0,0,0-29.849,16.237h0a3.455,3.455,0,0,1-4.353,1.244,177.308,177.308,0,0,0-21.9,0,30.263,30.263,0,0,0-15.892,10.71,38.21,38.21,0,0,0-4.906,39.8,3.386,3.386,0,0,1,0,3.248,3.316,3.316,0,0,1-2.764,1.727c-2.418,0-4.284,3.662-5.459,6.91a122.713,122.713,0,0,0-6.91,22.387,22.871,22.871,0,0,0,0,10.364c1.866,6.357,9.19,10.157,15.961,13.2a3.455,3.455,0,0,1,.9,5.735c-6.909,6.495-5.389,18.448-4.284,23.216a36.9,36.9,0,0,0,8.637,17.827,19.416,19.416,0,0,0,16.652,6.426Zm65.295,21.9Z" transform="translate(471.324 2579.492)" fill="#231f20"/>
    <path id="Path_95" data-name="Path 95" d="M116.12,94.69s31.093,20.729,29.711,28.122-16.03,9.259-16.03,9.259" transform="translate(614.291 2677.47)" fill="#fff"/>
    <path id="Path_96" data-name="Path 96" d="M132.8,138.492a3.461,3.461,0,0,1-.415-6.91c4.906-.553,12.437-2.971,13.059-6.426s-13.335-14.786-28.26-24.6a3.469,3.469,0,1,1,3.8-5.8c12.368,8.153,32.82,23.078,31.3,31.646-1.8,9.881-17.343,11.884-19.07,12.092Z" transform="translate(611.294 2674.503)" fill="#231f20"/>
    <path id="Path_97" data-name="Path 97" d="M148.728,86a10.089,10.089,0,0,1,5.873,2.833,65.228,65.228,0,0,1,14.3,18.932A377.358,377.358,0,0,1,188.6,150.328c7.946,19.07,15.477,38.348,22.525,57.694,4.56,12.368-26.533,25.911-33.58,24.667l25.22,45.534s-13.2,10.5-43.392,9.6-32.889-6.909-32.889-6.909L105.06,225.089s20.729-8.637,22.387-38.417a85.41,85.41,0,0,1,0-15.685c1.451-5.459,6.08-8.43,6.219-14.786a19.07,19.07,0,0,0-7.877-14.925c-1.036-.829-2.28-1.727-2.142-3.04a3.592,3.592,0,0,1,1.175-1.866,16.1,16.1,0,0,0-2.418-22.8c7.877-3.386,9.742-13.819,10.5-22.041,0,2.695,12.575-4.7,12.782-4.768A8.914,8.914,0,0,1,148.728,86Z" transform="translate(548.931 2626.117)" fill="#fff"/>
    <path id="Path_98" data-name="Path 98" d="M165.965,294.434h-3.731c-29.158-.9-34.548-6.426-35.93-8.775l-21.489-56.036a3.386,3.386,0,0,1,1.866-4.422c.76,0,18.725-8.36,20.245-35.377a35.6,35.6,0,0,0,0-5.8,28.883,28.883,0,0,1,0-10.641,24.255,24.255,0,0,1,3.316-6.91,13.4,13.4,0,0,0,2.764-6.91,15.339,15.339,0,0,0-6.149-12.437,5.942,5.942,0,0,1-1.589-9.881,12.575,12.575,0,0,0-1.728-17.757,3.455,3.455,0,0,1-1.451-3.178,3.593,3.593,0,0,1,2.073-2.833c6.219-2.626,7.808-11.608,8.43-19.139a3.524,3.524,0,0,1,3.8-3.178h1.175a62.181,62.181,0,0,0,9.051-4.353l1.106-.553a13.823,13.823,0,0,1,4.146-.76,13.2,13.2,0,0,1,8.015,3.593,67.09,67.09,0,0,1,15.132,19.9,333.274,333.274,0,0,1,18.1,38.762l1.8,4.215c7.946,19,15.546,38.486,22.594,57.833a12.506,12.506,0,0,1-3.247,12.99,59.146,59.146,0,0,1-28.053,15.754l22.663,40.9a3.455,3.455,0,0,1-.829,4.422C207.284,284.484,194.363,294.434,165.965,294.434Zm-33.58-11.953c1.106.76,6.91,4.422,30.056,5.113a75.175,75.175,0,0,0,38.624-7.393l-23.63-42.631a3.523,3.523,0,0,1,0-3.662,3.662,3.662,0,0,1,3.455-1.382,50.026,50.026,0,0,0,27.638-13.819,6.426,6.426,0,0,0,2.073-6.149c-6.91-19.278-14.648-38.624-22.594-57.625l-1.727-4.146a327.056,327.056,0,0,0-17.757-38,60.531,60.531,0,0,0-13.4-17.965c-2-1.589-2.9-2.073-3.8-2.073h0a7.251,7.251,0,0,0-1.8,0,61.773,61.773,0,0,1-10.779,5.182,29.435,29.435,0,0,1-8.084,19,19.763,19.763,0,0,1,3.869,9.881,18.794,18.794,0,0,1-4.146,14.3h0a22.456,22.456,0,0,1,8.913,18.034,19.071,19.071,0,0,1-3.869,10.71,19,19,0,0,0-2.487,5.044,26.049,26.049,0,0,0,0,8.015,39.459,39.459,0,0,1,.415,6.91,47.469,47.469,0,0,1-21.489,39.8Z" transform="translate(545.997 2623.103)" fill="#231f20"/>
    <path id="Path_99" data-name="Path 99" d="M146.358,104.5a24.322,24.322,0,0,1-31.438-3.317" transform="translate(607.199 2715.823)" fill="#fff"/>
    <path id="Path_100" data-name="Path 100" d="M135.768,115.118a29.849,29.849,0,0,1-20.314-8.5,3.469,3.469,0,1,1,4.906-4.906,20.728,20.728,0,0,0,27.016,3.109,3.476,3.476,0,0,1,4.215,5.528A26.6,26.6,0,0,1,135.768,115.118Z" transform="translate(604.316 2712.939)" fill="#231f20"/>
    <path id="Path_101" data-name="Path 101" d="M144.258,113.4A28.259,28.259,0,0,0,133.2,102.618a37.239,37.239,0,0,0-10.572-5.666A13.819,13.819,0,0,0,111.092,98.2a12.782,12.782,0,0,0-4.975,9.051,24.529,24.529,0,0,0,1.658,10.433A44.428,44.428,0,0,0,142.323,145.8l-1.52-.691" transform="translate(554.922 2686.54)" fill="#fff"/>
    <path id="Path_102" data-name="Path 102" d="M145,152.268h-.484a48.367,48.367,0,0,1-37.035-30.4,26.463,26.463,0,0,1-1.8-11.954,15.685,15.685,0,0,1,6.357-11.539,16.79,16.79,0,0,1,14.579-1.727,44.152,44.152,0,0,1,11.47,6.08,31.785,31.785,0,0,1,12.161,12.23,3.455,3.455,0,0,1-1.8,4.56,3.386,3.386,0,0,1-4.56-1.728,25.22,25.22,0,0,0-9.673-9.328,35.1,35.1,0,0,0-9.6-5.182,10.157,10.157,0,0,0-8.637.76,9.19,9.19,0,0,0-3.455,6.91,20.106,20.106,0,0,0,1.451,8.913,41.042,41.042,0,0,0,28.536,25.289,3.455,3.455,0,0,1,2.349,0l1.52.691a3.523,3.523,0,0,1-1.382,6.91Z" transform="translate(552.107 2683.53)" fill="#231f20"/>
    <path id="Path_103" data-name="Path 103" d="M141.729,112.332a55.277,55.277,0,0,1-30.609-5.942s13.474,28.467,41.457,26.256Z" transform="translate(584.743 2746.611)" fill="#231f20"/>
    <path id="Path_104" data-name="Path 104" d="M152.43,139.038c-27.638,0-41.457-27.154-41.457-28.329a3.593,3.593,0,0,1,.829-4.076,3.316,3.316,0,0,1,4.146,0,51.822,51.822,0,0,0,28.4,5.389,3.731,3.731,0,0,1,3.386,1.8l11.193,20.245a3.524,3.524,0,0,1,0,3.316,3.386,3.386,0,0,1-2.764,1.8A29.435,29.435,0,0,1,152.43,139.038Zm-29.5-22.18a38.762,38.762,0,0,0,26.878,15.2l-7.324-13.266A65.225,65.225,0,0,1,122.927,116.858Z" transform="translate(582.057 2743.744)" fill="#231f20"/>
    <ellipse id="Ellipse_5" data-name="Ellipse 5" cx="2.902" cy="7.393" rx="2.902" ry="7.393" transform="translate(704.429 2756.375) rotate(-20.99)" fill="#231f20"/>
    <path id="Path_105" data-name="Path 105" d="M256.544,118.279C247.838,112.82,150.829,94.51,127.06,137.9S89.679,481.167,109.648,547.36l256.481-51.13S304.773,148.335,256.544,118.279Z" transform="translate(519.055 2766.575)" fill="#00709d"/>
    <path id="Path_106" data-name="Path 106" d="M129.708,250.387s66.815,56.382,128.862,37.933S398.764,159.389,398.764,159.389L357.307,108.88S314.745,185.714,263.2,186.2s-140.54-62.669-140.54-62.669Z" transform="translate(652.939 2761.326)" fill="#00709d"/>
    <path id="Path_107" data-name="Path 107" d="M253.326,233.358c-62.877,0-129.553-46.363-133.215-48.919a3.455,3.455,0,0,1,3.731-5.459c1.105.829,113.661,79.045,180.615,32.889,68.128-46.916,91.067-89.824,91.275-90.584a3.386,3.386,0,0,1,4.629-1.52,3.524,3.524,0,0,1,1.52,4.7c-.967,1.8-23.838,45.05-93.486,93.071a95.214,95.214,0,0,1-55.069,15.823Z" transform="translate(633.377 2823.335)" fill="#231f20"/>
    <path id="Path_108" data-name="Path 108" d="M264.306,181.771h-.76c-13.819-2.971-87.613-35.308-107.789-52.1a48.85,48.85,0,0,0-33.857-13.2,3.48,3.48,0,1,1-.829-6.91,55.276,55.276,0,0,1,39.108,14.786C179.664,140.521,252.7,172.719,265,175.069a3.386,3.386,0,0,1,2.695,4.077A3.455,3.455,0,0,1,264.306,181.771Z" transform="translate(625.438 2765.269)" fill="#231f20"/>
    <path id="Path_109" data-name="Path 109" d="M148.025,113.1a117.468,117.468,0,0,0-2.28,15.477,15.824,15.824,0,0,0,0,4.768,10.779,10.779,0,0,0,9.743,6.633,34.547,34.547,0,0,0,17.826-3.662c14.994-6.011,43.323-26.049,22.594-43.184C180.154,80.629,151.687,95.9,148.025,113.1Z" transform="translate(788.289 2641.23)" fill="#fff"/>
    <path id="Path_110" data-name="Path 110" d="M160.719,146.638h-3.247a13.819,13.819,0,0,1-12.092-9.4,15.892,15.892,0,0,1,0-5.942,122.252,122.252,0,0,1,2.28-15.892h0A38.209,38.209,0,0,1,172.81,90.326a28.329,28.329,0,0,1,27.984,3.386,19.623,19.623,0,0,1,8.43,18.587c-2.142,13.819-20.245,25.772-31.853,30.471A45.327,45.327,0,0,1,160.719,146.638Zm23.631-51.752a30.263,30.263,0,0,0-9.535,1.727,31.991,31.991,0,0,0-20.728,19.969h0a123.691,123.691,0,0,0-2.211,15.063,12.162,12.162,0,0,0,0,3.593,7.463,7.463,0,0,0,6.357,4.353,32.681,32.681,0,0,0,16.1-3.455c10.5-4.215,25.98-14.786,27.638-25.081a12.989,12.989,0,0,0-5.942-12.23A18.172,18.172,0,0,0,184.349,94.886Zm-33.58,20.729Z" transform="translate(785.545 2638.444)" fill="#231f20"/>
    <path id="Path_111" data-name="Path 111" d="M171.564,225.66s-36.966,33.58-35.031,37.933,76.35,97.769,85.609,88.027-8.222-81.6-8.222-81.6Z" transform="translate(734.486 3451.44)" fill="#231f20"/>
    <path id="Path_112" data-name="Path 112" d="M223.287,358.743h-1.382c-17.827-3.04-83.4-85.816-85.54-90.653-1.036-2.349-2.971-6.909,35.86-41.941a3.385,3.385,0,0,1,4.768,0l42.355,44.29a3.525,3.525,0,0,1,.829,1.589c4.215,17.274,17.2,74.553,7.393,84.849a5.805,5.805,0,0,1-4.284,1.865Zm-80.151-92.864c6.91,11.263,67.921,84.78,79.736,85.954,4.353-6.426-1.244-44.428-9.19-77.179L174.368,233.2a239.428,239.428,0,0,0-31.231,32.682Z" transform="translate(731.544 3448.531)" fill="#231f20"/>
    <path id="Path_113" data-name="Path 113" d="M117.427,225.83s-48.021,6.5-51.89,16.168S75.9,361.326,85.644,359.46s36.966-72,36.966-72Z" transform="translate(311.521 3452.446)" fill="#231f20"/>
    <path id="Path_114" data-name="Path 114" d="M88.289,365.892a5.736,5.736,0,0,1-4.422-2.419C73.849,351.52,60.859,254.787,65.281,243.732s42.839-16.79,54.585-18.379a3.524,3.524,0,0,1,3.939,3.178l5.182,61.564a6.3,6.3,0,0,1,0,1.589c-8.43,21.557-29.089,72-39.522,74.07Zm1.036-6.91Zm27.638-126.513c-21.281,3.178-43.806,9.121-45.6,13.819C66.525,259.347,82.624,348.273,88.428,358.43c6.011-5.044,21.558-38.417,33.3-68.543Z" transform="translate(308.599 3449.466)" fill="#231f20"/>
  </g>
</svg>
