<svg xmlns="http://www.w3.org/2000/svg" width="283.163" height="243.606" viewBox="0 0 283.163 243.606">
  <g id="Group_4" data-name="Group 4" transform="translate(-323 -2325.454)">
    <path id="Path_62" data-name="Path 62" d="M127.54,123.644S153.14,122.9,159,99.92L140.69,98.79l-26.56,20.99Z" transform="translate(273.235 2304.334)" fill="#00709d"/>
    <path id="Path_63" data-name="Path 63" d="M82.036,223.67l-9.546,2.44.847,10.066,11.456-1.265Z" transform="translate(267.833 2320.535)" fill="#fff"/>
    <path id="Path_64" data-name="Path 64" d="M73.4,236.806a.554.554,0,0,1-.565-.508L72,226.22a.576.576,0,0,1,.418-.6l9.546-2.429a.52.52,0,0,1,.429.056.542.542,0,0,1,.26.35L85.41,234.84a.531.531,0,0,1-.079.452.565.565,0,0,1-.407.237l-11.456,1.277Zm-.249-10.168.757,9.038,10.235-1.13-2.463-10.055Z" transform="translate(267.769 2320.471)" fill="#231f20"/>
    <path id="Path_81" data-name="Path 81" d="M231.313,187.1c.96-2.813,1.9-5.649,2.892-8.417.508-1.457,1.13-2.881,1.683-4.3a4.135,4.135,0,0,1,4.451-2.745c2.259.26,4.519.734,6.778,1.13a21.38,21.38,0,0,0,3.66.474,4.078,4.078,0,0,0,2.519-.813c2.6-2.485,5.1-5.073,7.558-7.693a3.909,3.909,0,0,0,.768-3.593c-.576-2.745-1.243-5.468-1.8-8.213a11,11,0,0,1-.305-3.254,3.028,3.028,0,0,1,1.062-2.079,49.708,49.708,0,0,1,13.557-6.191,3.389,3.389,0,0,1,3.875,1.4c1.728,2.372,3.559,4.688,5.219,7.129a5.479,5.479,0,0,0,5.344,2.689c3.005-.215,6.021-.271,9.038-.407a3.389,3.389,0,0,0,2.711-1.638c1.073-1.582,2.09-3.22,3.141-4.813.9-1.378,1.785-2.757,2.745-4.09a3.446,3.446,0,0,1,4.146-1.435c4.169,1.435,8.326,2.915,12.427,4.519a3.649,3.649,0,0,1,2.259,4.022c-.226,2.259-.746,4.587-1.13,6.88-.169,1.13-.339,2.169-.418,3.265a4.44,4.44,0,0,0,1.39,3.807c2.18,2.079,4.406,4.112,6.519,6.259a4.892,4.892,0,0,0,4.88,1.39c2.982-.644,5.931-1.367,8.914-2.011a3.965,3.965,0,0,1,4.982,2.372q2.542,5.321,4.9,10.732c1.13,2.621.734,4.135-1.536,5.931-1.525,1.209-3.175,2.259-4.745,3.389-1.13.836-2.259,1.717-3.288,2.632a3.83,3.83,0,0,0-1.39,3.084c.079,3.107.124,6.225.271,9.343a4.881,4.881,0,0,0,2.5,4.135c1.695,1.017,3.389,2,5.118,3.039a32.919,32.919,0,0,1,3.062,2.056,3.672,3.672,0,0,1,1.378,4.519q-2.056,5.649-4.191,11.23a8.436,8.436,0,0,1-.926,1.6,3.31,3.31,0,0,1-3.491,1.638l-8.078-1.435-.61-.1a5.807,5.807,0,0,0-6.191,2.169c-1.525,1.8-3.242,3.389-4.88,5.14a5.841,5.841,0,0,0-1.514,5.863c.667,2.621,1.31,5.242,1.853,7.908s0,4-2.542,5.242q-5.491,2.632-11.128,5a3.717,3.717,0,0,1-4.926-1.288c-1.446-1.83-2.768-3.751-4.124-5.649-2.9-4.078-3.626-4.451-8.631-4.191l-5.841.328a5.389,5.389,0,0,0-4.587,2.677c-1.186,1.966-2.327,3.965-3.57,5.886a19.007,19.007,0,0,1-2.259,2.79,2.734,2.734,0,0,1-3.084.791c-3.943-1.469-7.908-2.915-11.806-4.406a8.076,8.076,0,0,1-1.514-.87,3.31,3.31,0,0,1-1.661-3.491c.429-2.666.881-5.332,1.3-8,.124-.813.2-1.638.249-2.452a4.248,4.248,0,0,0-1.356-3.615c-2.146-1.966-4.27-3.965-6.383-5.954a4.711,4.711,0,0,0-4.655-1.13c-2.621.644-5.265,1.22-7.908,1.83a2.759,2.759,0,0,1-.294.068c-3.446.633-4.519.181-6.055-2.982-1.661-3.525-3.175-7.117-4.643-10.732-.892-2.259-.508-3.468,1.423-4.926s4.237-3.152,6.451-4.519a6.349,6.349,0,0,0,3.163-6.214c-.192-2.8-.271-5.649-.418-8.417a3.48,3.48,0,0,0-1.638-2.926c-2.327-1.5-4.688-2.96-7-4.462-1.525-.994-3.073-1.977-3.694-3.841Zm89.249,15.658a26.628,26.628,0,0,0-26.843-26.605c-12.28,0-26.232,10.721-26.221,26.684a26.639,26.639,0,0,0,26.4,26.413c17.1.079,27.374-14.687,26.65-26.492Z" transform="translate(248.825 2250.923)" fill="#00709d"/>
    <path id="Path_82" data-name="Path 82" d="M278.792,266.045a3.5,3.5,0,0,1-1.2-.226l-3.254-1.209-8.552-3.2a8.129,8.129,0,0,1-1.412-.791l-.2-.136a3.886,3.886,0,0,1-1.909-4.056l.576-3.559c.249-1.48.486-2.96.723-4.44.113-.7.181-1.469.237-2.4a3.683,3.683,0,0,0-1.13-3.163c-1.9-1.74-3.785-3.5-5.649-5.265l-.734-.689a4.112,4.112,0,0,0-4.124-1.005c-1.841.452-3.683.87-5.536,1.288l-2.372.542-.328.079c-3.773.689-5.084,0-6.665-3.31-1.435-3.039-2.87-6.36-4.643-10.755-.994-2.44-.554-3.954,1.6-5.649,2.44-1.864,4.519-3.321,6.485-4.6a5.8,5.8,0,0,0,2.9-5.649c-.124-1.74-.192-3.491-.271-5.242,0-1.062-.09-2.124-.147-3.175a2.915,2.915,0,0,0-1.378-2.485c-.96-.621-1.932-1.231-2.9-1.841L234.8,192.5c-1.616-1.051-3.231-2.1-3.909-4.146a.452.452,0,0,1,0-.169v-1.028a.463.463,0,0,1,0-.181l.836-2.452c.667-1.988,1.344-3.988,2.056-5.976.531-1.5,1.13-2.971,1.695-4.327a4.711,4.711,0,0,1,5.027-3.073c1.525.169,3.039.441,4.519.7l2.259.4.9.158a13.919,13.919,0,0,0,2.655.316,3.593,3.593,0,0,0,2.147-.667c2.768-2.632,5.355-5.355,7.524-7.66a3.276,3.276,0,0,0,.633-3.1c-.249-1.209-.531-2.429-.8-3.638-.339-1.525-.689-3.05-.994-4.575a11.649,11.649,0,0,1-.316-3.389,3.593,3.593,0,0,1,1.333-2.508,49.81,49.81,0,0,1,13.726-6.247,3.92,3.92,0,0,1,4.519,1.6q.926,1.277,1.864,2.508c1.13,1.5,2.259,3.062,3.389,4.632a4.971,4.971,0,0,0,4.847,2.463c1.943-.147,3.932-.226,5.852-.294l3.175-.124a2.836,2.836,0,0,0,2.259-1.39c.633-.938,1.243-1.887,1.853-2.836l1.277-1.977.452-.7c.746-1.13,1.5-2.259,2.316-3.389a4.022,4.022,0,0,1,4.79-1.627c5.016,1.728,8.857,3.118,12.427,4.519a4.169,4.169,0,0,1,2.6,4.6c-.147,1.548-.429,3.1-.712,4.6-.136.768-.282,1.548-.407,2.316-.158,1.017-.328,2.113-.418,3.22a3.92,3.92,0,0,0,1.22,3.389l1.536,1.446c1.661,1.559,3.389,3.175,5,4.824a4.327,4.327,0,0,0,4.361,1.231c1.446-.316,2.892-.644,4.327-.983s3.05-.7,4.519-1.028a4.519,4.519,0,0,1,5.649,2.677c1.695,3.547,3.389,7.163,4.914,10.755,1.231,2.847.779,4.643-1.706,6.6-.9.723-1.875,1.4-2.813,2.056-.644.452-1.3.9-1.943,1.378-1.186.892-2.259,1.74-3.254,2.6a3.288,3.288,0,0,0-1.2,2.655v1.932c0,2.429.113,4.937.226,7.388a4.316,4.316,0,0,0,2.259,3.683l2.169,1.277c.983.576,1.977,1.13,2.96,1.762a34.962,34.962,0,0,1,3.118,2.09,4.248,4.248,0,0,1,1.559,5.106c-1.277,3.525-2.655,7.2-4.2,11.3a7.593,7.593,0,0,1-.881,1.57l-.1-.068a3.886,3.886,0,0,1-4.056,1.887c-1.841-.294-3.683-.61-5.524-.915l-2.779-.463-.441-.068a5.265,5.265,0,0,0-5.649,1.977c-1.073,1.277-2.259,2.485-3.389,3.649-.5.508-.994,1.005-1.48,1.514a5.31,5.31,0,0,0-1.367,5.344c.633,2.508,1.3,5.208,1.853,7.908.633,3.1-.068,4.519-2.847,5.863-3.389,1.6-6.993,3.242-11.15,5.016a4.282,4.282,0,0,1-5.592-1.457c-1.2-1.514-2.316-3.1-3.389-4.643l-.723-1.017c-2.8-3.943-3.389-4.2-8.145-3.954l-3.321.181-2.531.147a4.8,4.8,0,0,0-4.123,2.406c-.4.655-.791,1.311-1.13,1.966-.768,1.3-1.57,2.644-2.406,3.931a18.428,18.428,0,0,1-2.316,2.87A3.389,3.389,0,0,1,278.792,266.045Zm-25.374-31.429A5.1,5.1,0,0,1,257,236.085l.734.689c1.875,1.751,3.751,3.513,5.649,5.253a4.813,4.813,0,0,1,1.536,4.067,15.529,15.529,0,0,1-.249,2.5c-.237,1.491-.486,2.971-.723,4.451-.192,1.13-.4,2.372-.576,3.559a2.734,2.734,0,0,0,1.412,2.926l.2.136a6.088,6.088,0,0,0,1.186.678c2.847,1.13,5.705,2.135,8.552,3.2l3.254,1.209a2.192,2.192,0,0,0,2.485-.655,18,18,0,0,0,2.18-2.7c.825-1.277,1.616-2.61,2.372-3.9l1.186-1.977a5.942,5.942,0,0,1,5.039-2.949l2.519-.136,3.333-.192c5.174-.26,6.1.192,9.117,4.429l.734,1.028c1.073,1.525,2.192,3.1,3.389,4.575a3.175,3.175,0,0,0,4.27,1.13c4.135-1.762,7.773-3.389,11.094-5,2.259-1.13,2.757-2.045,2.259-4.609s-1.209-5.378-1.841-7.908a6.428,6.428,0,0,1,1.649-6.394c.486-.508.994-1.017,1.491-1.525,1.13-1.13,2.316-2.339,3.389-3.581a6.372,6.372,0,0,1,6.778-2.361,1.773,1.773,0,0,0,.339.056H340l2.587.429,5.513.926a2.779,2.779,0,0,0,2.937-1.4l.09-.147a6.78,6.78,0,0,0,.768-1.333c1.536-4.044,2.915-7.716,4.191-11.23a3.118,3.118,0,0,0-1.2-3.83,32.6,32.6,0,0,0-3.005-2.022c-.972-.6-1.966-1.13-2.949-1.751l-2.169-1.277a5.457,5.457,0,0,1-2.768-4.6c-.113-2.474-.169-4.993-.226-7.422v-1.932a4.428,4.428,0,0,1,1.582-3.525c1.028-.881,2.113-1.751,3.321-2.655l1.977-1.4c.926-.644,1.875-1.311,2.757-2.011,2.09-1.649,2.406-2.881,1.367-5.265-1.559-3.581-3.208-7.185-4.892-10.721a3.389,3.389,0,0,0-4.361-2.067l-4.519,1.039c-1.446.328-2.892.667-4.349.983a5.434,5.434,0,0,1-5.4-1.548c-1.615-1.638-3.321-3.231-4.971-4.79l-1.548-1.446a5.027,5.027,0,0,1-1.559-4.27c.09-1.13.26-2.259.429-3.31q.192-1.13.407-2.339c.271-1.48.554-3.005.7-4.519a3.141,3.141,0,0,0-1.887-3.389c-3.581-1.378-7.411-2.757-12.427-4.519a2.9,2.9,0,0,0-3.5,1.231c-.791,1.13-1.548,2.259-2.259,3.389l-.463.7-1.265,1.966c-.61.96-1.231,1.921-1.864,2.858a3.988,3.988,0,0,1-3.163,1.887l-3.186.124c-1.909.068-3.886.147-5.818.282a6.044,6.044,0,0,1-5.863-2.937c-1.062-1.559-2.259-3.107-3.333-4.6-.621-.836-1.254-1.672-1.864-2.519a2.824,2.824,0,0,0-3.276-1.13,48.827,48.827,0,0,0-13.421,6.123,2.519,2.519,0,0,0-.8,1.661,10.371,10.371,0,0,0,.294,3.084c.305,1.514.644,3.039.994,4.519.271,1.22.542,2.44.8,3.66a4.406,4.406,0,0,1-.915,4.09c-2.18,2.327-4.79,5.061-7.569,7.716a4.62,4.62,0,0,1-2.9.972,15.314,15.314,0,0,1-2.881-.328l-.881-.158c-.768-.124-1.548-.26-2.316-.407-1.457-.26-2.96-.52-4.44-.689a3.559,3.559,0,0,0-3.864,2.384c-.565,1.344-1.13,2.79-1.672,4.27-.7,1.988-1.378,3.977-2.056,5.965l-.8,2.361v.836c.576,1.616,1.943,2.5,3.389,3.389s2.768,1.774,4.146,2.644l2.9,1.853a4.033,4.033,0,0,1,1.9,3.389c.056,1.13.1,2.135.147,3.2.079,1.74.147,3.48.271,5.208a6.914,6.914,0,0,1-3.389,6.778c-1.954,1.265-4,2.711-6.417,4.519-1.74,1.322-2.034,2.327-1.243,4.27,1.774,4.383,3.208,7.682,4.632,10.71s2.169,3.265,5.445,2.666l2.644-.61c1.841-.418,3.683-.825,5.513-1.277A6.611,6.611,0,0,1,253.418,234.616Zm40.591-4.7h-.056a27.167,27.167,0,1,1-.282-54.334l.1.005a27.114,27.114,0,0,1,27.4,27.2,25.724,25.724,0,0,1-7.276,18.607,27.012,27.012,0,0,1-19.883,8.518Zm-.339-53.2a26.142,26.142,0,0,0-17.884,7.806,25.7,25.7,0,0,0-7.671,18.313,25.984,25.984,0,0,0,25.837,25.984h.056a25.984,25.984,0,0,0,19.059-8.134c4.745-5.039,7.343-11.693,6.97-17.8h0a25.984,25.984,0,0,0-26.266-26.1Z" transform="translate(248.772 2250.863)" fill="#231f20"/>
    <path id="Path_83" data-name="Path 83" d="M252.94,105.992c.474-1.4.938-2.8,1.435-4.2.26-.723.542-1.435.847-2.147a2.067,2.067,0,0,1,2.259-1.367c1.13.124,2.259.362,3.389.554a11.141,11.141,0,0,0,1.819.237,2.09,2.09,0,0,0,1.265-.407c1.3-1.243,2.542-2.542,3.773-3.852a1.9,1.9,0,0,0,.384-1.8c-.282-1.367-.621-2.734-.892-4.1a5.649,5.649,0,0,1-.158-1.627,1.6,1.6,0,0,1,.531-1.039,25.114,25.114,0,0,1,6.778-3.1,1.706,1.706,0,0,1,1.943.7c.859,1.13,1.774,2.35,2.6,3.559a2.757,2.757,0,0,0,2.677,1.356c1.5-.113,3.005-.136,4.519-.215a1.683,1.683,0,0,0,1.356-.813c.542-.791,1.039-1.6,1.57-2.406s.892-1.378,1.378-2.045a1.706,1.706,0,0,1,2.067-.712c2.079.712,4.157,1.457,6.214,2.259a1.83,1.83,0,0,1,1.13,2.011c-.113,1.13-.373,2.259-.565,3.446-.079.531-.169,1.13-.2,1.627a2.26,2.26,0,0,0,.689,1.909c1.13,1.028,2.259,2.045,3.265,3.118a2.429,2.429,0,0,0,2.44.7c1.48-.328,2.96-.689,4.451-1.005a1.966,1.966,0,0,1,2.485,1.186c.847,1.774,1.672,3.559,2.452,5.355a2.113,2.113,0,0,1-.768,2.971c-.757.61-1.582,1.13-2.372,1.717-.554.418-1.13.847-1.638,1.311a1.864,1.864,0,0,0-.689,1.536c0,1.559.056,3.118.124,4.677a2.486,2.486,0,0,0,1.254,2.067c.847.508,1.706.994,2.553,1.514A15.814,15.814,0,0,1,314.838,120a1.841,1.841,0,0,1,.689,2.259q-1.039,2.813-2.1,5.649a4.1,4.1,0,0,1-.463.8,1.649,1.649,0,0,1-1.74.825l-4.044-.678h-.3a2.892,2.892,0,0,0-3.1,1.13c-.768.893-1.627,1.706-2.44,2.565a2.9,2.9,0,0,0-.757,2.926c.328,1.311.655,2.632.926,3.954a1.932,1.932,0,0,1-1.277,2.61q-2.745,1.322-5.558,2.508a1.853,1.853,0,0,1-2.463-.644c-.723-.915-1.39-1.875-2.056-2.813-1.457-2.045-1.819-2.259-4.316-2.1l-2.926.169a2.689,2.689,0,0,0-2.259,1.333c-.587.983-1.13,1.977-1.774,2.949a9.489,9.489,0,0,1-1.13,1.39,1.367,1.367,0,0,1-1.548.4l-5.9-2.259a4.2,4.2,0,0,1-.757-.429,1.672,1.672,0,0,1-.825-1.751c.215-1.333.441-2.666.644-4a11.173,11.173,0,0,0,.124-1.22,2.113,2.113,0,0,0-.678-1.808c-1.073-.983-2.124-1.977-3.186-2.971a2.361,2.361,0,0,0-2.327-.576c-1.31.328-2.632.61-3.943.915H259.2c-1.717.316-2.259.09-3.016-1.491-.836-1.762-1.593-3.559-2.327-5.366a1.785,1.785,0,0,1,.712-2.463c1.051-.791,2.124-1.57,3.231-2.259a3.152,3.152,0,0,0,1.57-3.107c-.09-1.4-.124-2.8-.2-4.2a1.728,1.728,0,0,0-.813-1.469c-1.13-.746-2.35-1.48-3.5-2.259a3.852,3.852,0,0,1-1.841-1.921Zm44.591,7.829a13.286,13.286,0,0,0-13.41-13.32,13.557,13.557,0,0,0-13.1,13.331,13.32,13.32,0,0,0,13.2,13.3,13.15,13.15,0,0,0,13.32-13.308Z" transform="translate(251.634 2243.456)" fill="#00709d"/>
    <path id="Path_84" data-name="Path 84" d="M276.71,145.767a1.976,1.976,0,0,1-.7-.136l-1.548-.576-4.361-1.627a4.021,4.021,0,0,1-.757-.429l-.1-.068a2.26,2.26,0,0,1-1.13-2.259l.294-1.751c.124-.757.249-1.5.362-2.259.056-.4.09-.78.113-1.13a1.548,1.548,0,0,0-.486-1.356l-2.858-2.655-.339-.328a1.808,1.808,0,0,0-1.808-.429c-.915.226-1.841.429-2.757.644l-1.367.305c-2.022.373-2.8,0-3.649-1.808s-1.728-3.9-2.327-5.389a2.327,2.327,0,0,1,.892-3.129,37.153,37.153,0,0,1,3.265-2.259,2.6,2.6,0,0,0,1.322-2.6c-.068-.87-.1-1.74-.136-2.61a10.527,10.527,0,0,0-.079-1.6A1.2,1.2,0,0,0,258,111.3l-1.457-.915-2.056-1.311a4.451,4.451,0,0,1-2.067-2.259.53.53,0,0,1,0-.181v-.52a.5.5,0,0,1,0-.181l.418-1.22c.339-.994.678-2,1.028-2.994.26-.734.554-1.457.859-2.169a2.632,2.632,0,0,1,2.869-1.74c.768.09,1.536.226,2.259.362l1.13.192.452.079a7.447,7.447,0,0,0,1.265.158,1.491,1.491,0,0,0,.893-.26c1.367-1.311,2.666-2.666,3.751-3.819a1.378,1.378,0,0,0,.249-1.288l-.407-1.819c-.169-.768-.35-1.525-.5-2.259a5.8,5.8,0,0,1-.158-1.8,2.022,2.022,0,0,1,.791-1.457,25.226,25.226,0,0,1,6.937-3.163,2.259,2.259,0,0,1,2.542.915l.938,1.254c.565.768,1.13,1.525,1.683,2.259a2.18,2.18,0,0,0,2.158,1.13c.983-.068,1.966-.113,2.937-.147h1.593a1.13,1.13,0,0,0,.915-.576c.316-.463.621-.938.915-1.412l.644-.983.226-.35c.384-.576.757-1.13,1.13-1.717a2.26,2.26,0,0,1,2.711-.915c2.463.847,4.44,1.559,6.236,2.259a2.373,2.373,0,0,1,1.48,2.587,21.114,21.114,0,0,1-.35,2.259c-.079.384-.147.768-.2,1.13s-.169,1.051-.215,1.582a1.7,1.7,0,0,0,.52,1.446l.757.712c.859.8,1.706,1.6,2.519,2.429a1.909,1.909,0,0,0,1.921.542l2.18-.5c.757-.169,1.514-.35,2.259-.508a2.531,2.531,0,0,1,3.2,1.469c.859,1.774,1.683,3.593,2.463,5.378a2.655,2.655,0,0,1-.938,3.638c-.452.362-.926.7-1.412,1.039s-.655.452-.972.689c-.576.429-1.13.859-1.6,1.288a1.344,1.344,0,0,0-.5,1.13v.972c0,1.231,0,2.463.1,3.683a1.909,1.909,0,0,0,.972,1.616l1.13.633,1.48.881a16.845,16.845,0,0,1,1.582,1.062,2.406,2.406,0,0,1,.881,2.881q-1.028,2.813-2.1,5.649a4.609,4.609,0,0,1-.474.847,2.259,2.259,0,0,1-2.35,1.13l-4.056-.678h-.339a2.339,2.339,0,0,0-2.531.9q-.83.966-1.729,1.83c-.249.26-.5.508-.734.768a2.339,2.339,0,0,0-.621,2.4c.328,1.265.655,2.61.938,3.977a2.485,2.485,0,0,1-1.582,3.242c-1.672.8-3.5,1.627-5.581,2.508a2.406,2.406,0,0,1-3.129-.813c-.6-.757-1.13-1.559-1.717-2.327l-.362-.508c-1.344-1.9-1.525-1.977-3.83-1.864l-1.627.09-1.288.079a2.146,2.146,0,0,0-1.841,1.062c-.2.328-.4.667-.587.994-.4.655-.791,1.322-1.2,1.966a10.424,10.424,0,0,1-1.2,1.48A2.011,2.011,0,0,1,276.71,145.767Zm-12.7-16.325a2.825,2.825,0,0,1,2,.813l.339.328c.949.881,1.887,1.774,2.847,2.644a2.689,2.689,0,0,1,.859,2.259,11.9,11.9,0,0,1-.124,1.277l-.373,2.259-.282,1.74a1.13,1.13,0,0,0,.587,1.186l.1.068a2.69,2.69,0,0,0,.542.305c1.446.554,2.892,1.13,4.349,1.627l1.548.576a.78.78,0,0,0,.938-.26,8.871,8.871,0,0,0,1.062-1.311c.407-.621.791-1.277,1.13-1.921.192-.339.4-.667.6-1.005a3.231,3.231,0,0,1,2.734-1.6l1.288-.068,1.638-.1c2.7-.136,3.231.124,4.8,2.339l.373.508c.531.757,1.13,1.548,1.672,2.259a1.288,1.288,0,0,0,1.8.475c2.079-.881,3.886-1.695,5.547-2.5,1.028-.5,1.186-.825.96-1.988-.271-1.344-.61-2.677-.926-3.92a3.525,3.525,0,0,1,.892-3.468l.757-.768c.565-.565,1.13-1.13,1.672-1.774a3.48,3.48,0,0,1,3.649-1.265h.136l4.18.689a1.13,1.13,0,0,0,1.186-.576,3.889,3.889,0,0,0,.4-.678q1.062-2.79,2.1-5.649a1.288,1.288,0,0,0-.508-1.593c-.486-.373-1.017-.7-1.48-.994l-1.457-.87c-.373-.2-.734-.418-1.13-.644a2.994,2.994,0,0,1-1.525-2.519c-.056-1.243-.079-2.474-.1-3.717v-.972a2.44,2.44,0,0,1,.881-1.977c.52-.441,1.13-.892,1.683-1.344.328-.237.655-.474.994-.7s.915-.644,1.356-.994a1.582,1.582,0,0,0,.6-2.259c-.768-1.774-1.593-3.581-2.44-5.344a1.435,1.435,0,0,0-1.864-.87c-.757.158-1.5.328-2.259.508l-2.192.5a3.039,3.039,0,0,1-2.96-.847c-.8-.825-1.649-1.616-2.485-2.406l-.757-.712a2.779,2.779,0,0,1-.87-2.361,10.25,10.25,0,0,1,.215-1.672l.2-1.186c.136-.723.271-1.48.35-2.259a1.288,1.288,0,0,0-.768-1.423c-1.774-.678-3.751-1.39-6.191-2.259a1.13,1.13,0,0,0-1.435.508c-.4.554-.757,1.13-1.13,1.683l-.226.35c-.215.316-.429.644-.633.972l-.938,1.435a2.259,2.259,0,0,1-1.808,1.062,12.527,12.527,0,0,0-1.593.068c-.96,0-1.932.068-2.892.147a3.389,3.389,0,0,1-3.186-1.593c-.531-.78-1.13-1.536-1.661-2.259l-.881-1.141a1.13,1.13,0,0,0-1.333-.474,23.793,23.793,0,0,0-6.632,3.016,1.062,1.062,0,0,0-.271.621,4.846,4.846,0,0,0,.147,1.457c.147.757.316,1.514.5,2.259s.271,1.22.4,1.83a2.463,2.463,0,0,1-.52,2.259c-1.13,1.13-2.406,2.531-3.807,3.864a2.666,2.666,0,0,1-1.638.565,9.276,9.276,0,0,1-1.491-.169l-.429-.079-1.13-.2c-.712-.124-1.457-.26-2.192-.339a1.491,1.491,0,0,0-1.638,1.017c-.294.7-.576,1.4-.836,2.124-.35.983-.689,1.977-1.017,2.971l-.384,1.13v.316a3.389,3.389,0,0,0,1.559,1.536l2.067,1.31,1.457.926a2.339,2.339,0,0,1,1.073,1.909c0,.542.056,1.13.079,1.6,0,.87.068,1.728.124,2.6a3.683,3.683,0,0,1-1.83,3.615c-.972.621-1.988,1.344-3.186,2.259-.78.587-.881.938-.531,1.808.6,1.469,1.39,3.389,2.259,5.332.61,1.311.9,1.446,2.406,1.13l.26.52-.136-.554,1.209-.271c.915-.2,1.83-.407,2.734-.633a3.243,3.243,0,0,1,.847-.068Zm20.335-1.785h0a13.862,13.862,0,1,1,13.885-13.839,13.139,13.139,0,0,1-3.706,9.512,13.794,13.794,0,0,1-10.213,4.372Zm-.169-26.583a12.777,12.777,0,0,0-8.744,3.819,12.574,12.574,0,0,0-3.751,8.947,12.743,12.743,0,0,0,21.985,8.71,11.953,11.953,0,0,0,3.389-8.688h0a12.7,12.7,0,0,0-12.845-12.755Z" transform="translate(251.566 2243.402)" fill="#231f20"/>
    <path id="Path_85" data-name="Path 85" d="M216.772,65.281a22.278,22.278,0,0,0-18.765.678c-9.851,5.027-7.411,15.986-11.162,18.166S112.034,114.1,104.974,116.13s-13.862,0-21.951-2.768-13.082.124-18.934,5.1-8.179,15.816-5,16.754,16.279-10.529,18.155-10.337c0,0,6.236,2.022,8.145,5.479s2.6,12.19,2.6,12.19-14.4,9.445-14.427,10,4.18,4.993,12.969,2.632,12.3-7.908,16.483-15.511,19.115-12.077,30.311-16.223,53.866-20.459,57.741-21.578,8.112.938,13.692,2.61a18.008,18.008,0,0,0,18.528-4.621c5.954-5.909,6.225-12.551,5-16.754,0,0-9.761,6.586-13.93,7.908s-6.417-.757-8.835-4.078-3.028-8.6-1.254-11.3,13.161-7.445,13.128-8.168A9.411,9.411,0,0,0,216.772,65.281Z" transform="translate(265.909 2299.76)" fill="#231f20"/>
    <path id="Path_86" data-name="Path 86" d="M81.687,156.49a11.749,11.749,0,0,1-7.434-2.259c-.463-.362-1.22-1.062-1.2-1.6,0-.362,0-.836,14.4-10.269-.147-1.616-.881-8.688-2.508-11.625s-7.027-4.948-7.75-5.2c-.712.09-3.683,2.18-6.067,3.875-5.863,4.135-10.168,7.016-12.145,6.451a2.531,2.531,0,0,1-1.683-2.169c-.836-3.841,1.864-11.648,6.473-15.556,6.473-5.491,11.489-7.908,19.488-5.208,8.36,2.858,14.811,4.734,21.612,2.768s77.952-29.78,81.748-31.96c1.22-.7,1.717-2.644,2.339-5.106,1.062-4.146,2.508-9.829,8.846-13.071a22.708,22.708,0,0,1,19.273-.678.531.531,0,0,1,.271.294,9.139,9.139,0,0,1,.667,2.384c0,.6-.508.915-4.248,2.847-3.175,1.638-7.976,4.124-8.97,5.649-1.627,2.463-1.028,7.535,1.243,10.653,2.474,3.389,4.519,5.039,8.2,3.864,4.044-1.277,13.692-7.773,13.783-7.84a.542.542,0,0,1,.508-.056.531.531,0,0,1,.35.373c.644,2.259,2.169,10.043-5.14,17.308a18.607,18.607,0,0,1-19.093,4.767c-1.209-.362-2.35-.746-3.389-1.13-3.954-1.3-7.072-2.339-9.942-1.5-2.531.723-22.2,8.168-38.016,14.156-8.507,3.22-15.816,6-19.68,7.411l-4.349,1.582c-10.36,3.717-22.1,7.908-25.668,14.382-4.406,8-7.908,13.41-16.833,15.816a19.535,19.535,0,0,1-5.1.655Zm-7.388-3.8c.791.972,4.655,4,12.145,2,8.439-2.259,11.862-7.5,16.144-15.24,3.762-6.778,15.726-11.117,26.266-14.913,1.491-.531,2.937-1.051,4.338-1.57,3.818-1.412,11.173-4.191,19.68-7.411,16.652-6.247,35.53-13.444,38.095-14.156,3.208-.926,6.643.2,10.608,1.514,1.13.362,2.259.734,3.389,1.13a17.522,17.522,0,0,0,17.974-4.519c6.2-6.157,5.649-12.7,5.05-15.432-2.259,1.514-9.795,6.383-13.41,7.535-4.756,1.5-7.276-1.288-9.456-4.282-2.553-3.5-3.152-9.038-1.277-11.941,1.13-1.774,5.728-4.135,9.4-6.033,1.491-.768,3.152-1.627,3.626-1.988a9.865,9.865,0,0,0-.486-1.6,22.007,22.007,0,0,0-18.076.757c-5.886,3.005-7.208,8.191-8.27,12.348-.667,2.61-1.243,4.858-2.858,5.807-3.773,2.18-75.048,30.062-82.019,32.073s-13.726.136-22.278-2.79c-7.49-2.564-12.246-.226-18.392,4.993-4.519,3.852-6.778,11.3-6.112,14.461a1.7,1.7,0,0,0,.892,1.322c1.616.463,7.377-3.6,11.184-6.293,4.191-2.96,5.976-4.157,6.88-4.067h.113c.271.09,6.473,2.135,8.462,5.75s2.655,12.054,2.677,12.427a.565.565,0,0,1-.249.52C83.483,146.277,75.733,151.462,74.3,152.694Z" transform="translate(265.844 2299.698)" fill="#231f20"/>
    <path id="Path_87" data-name="Path 87" d="M151.956,215.03,141.54,227.039l6.914,7.253,10.823-11.15Z" transform="translate(276.791 2319.415)" fill="#fff"/>
    <path id="Path_88" data-name="Path 88" d="M148.529,234.923a.565.565,0,0,1-.418-.181l-6.914-7.253a.554.554,0,0,1,0-.757l10.416-12.009a.621.621,0,0,1,.429-.2.565.565,0,0,1,.418.192l7.321,8.1a.576.576,0,0,1,0,.78L148.9,234.754a.576.576,0,0,1-.373.169Zm-6.157-7.829,6.157,6.451L158.561,223.2l-6.53-7.242Z" transform="translate(276.727 2319.348)" fill="#231f20"/>
    <path id="Path_89" data-name="Path 89" d="M146.185,165.68s41.3,22.132,45.122,36.152-26.425,32.638-26.425,32.638L156.319,224.4s11.3-15.172,6.564-19.8-27.114-13.817-27.114-13.817-2.18,27.227-13.67,39.654c-12.337,13.331-40.546,14.043-40.546,14.043L79.44,229.307s19.081-4.96,27.114-13.557.181-48.115.181-48.115Z" transform="translate(268.735 2313.012)" fill="#231f20"/>
    <path id="Path_90" data-name="Path 90" d="M81.61,245.188a.554.554,0,0,1-.554-.486L79,229.473a.554.554,0,0,1,.418-.621c.192,0,19.013-5,26.865-13.353s.113-47.223,0-47.618a.621.621,0,0,1,.113-.463.587.587,0,0,1,.418-.215l39.416-2.022a.554.554,0,0,1,.305.068c1.695.9,41.552,22.4,45.393,36.468,3.886,14.246-25.419,32.514-26.673,33.282a.565.565,0,0,1-.723-.113l-8.586-10.032a.576.576,0,0,1,0-.712c3.062-4.1,10.168-15.545,6.62-19.059-4.146-4.044-22.4-11.794-26.232-13.41-.452,4.621-3.2,27.871-13.749,39.281-6.473,6.993-17.274,10.484-25.193,12.19a96.026,96.026,0,0,1-15.771,2.045Zm-1.48-15.376L82.1,243.99c3.841-.181,28.5-1.808,39.642-13.839s13.489-39.1,13.557-39.371a.531.531,0,0,1,.271-.429.542.542,0,0,1,.508,0c.915.373,22.527,9.286,27.306,13.93s-4.519,17.759-6.247,20.188l7.908,9.354c3.581-2.259,29.192-19.206,25.769-31.757-3.6-13.207-42.083-34.288-44.7-35.7l-38.626,1.977c1.017,5.332,7.219,39.812-.452,47.969C99.6,224.2,83.226,228.965,80.13,229.812Z" transform="translate(268.677 2312.947)" fill="#231f20"/>
    <path id="Path_91" data-name="Path 91" d="M156.76,112.947l2.61-4.225s-.215-6.451.9-7.321,1.457,3.818,1.695,3.762,2.971-6.259,4.237-5.332,1.751,4.361,1.4,5.649-6.507,12.732-6.507,12.732Z" transform="translate(278.766 2304.457)" fill="#fff"/>
    <path id="Path_92" data-name="Path 92" d="M161.161,118.845a.576.576,0,0,1-.441-.215l-4.338-5.253a.576.576,0,0,1,0-.655l2.519-4.09c0-1.751-.079-6.665,1.13-7.614a.949.949,0,0,1,.926-.169c.712.271,1.017,1.367,1.322,2.9,1.22-2.259,2.418-4.27,3.513-4.519a.983.983,0,0,1,.859.2c1.491,1.13,1.977,4.858,1.593,6.236s-5.92,11.67-6.552,12.845a.554.554,0,0,1-.452.294Zm-3.649-5.875,3.547,4.293c2.44-4.519,5.829-11.015,6.067-11.874.316-1.13-.226-4.27-1.209-5.05-.384.079-1.333,1.457-2.779,4.124-.6,1.13-.678,1.254-.983,1.322a.633.633,0,0,1-.452-.079c-.271-.181-.328-.452-.5-1.356a11.3,11.3,0,0,0-.61-2.316c-.441.7-.7,3.638-.6,6.778a.519.519,0,0,1-.09.316Z" transform="translate(278.704 2304.388)" fill="#231f20"/>
    <path id="Path_93" data-name="Path 93" d="M110.023,112.081a13.263,13.263,0,0,1-7.072,1.13A5.31,5.31,0,0,1,99.979,112a2.519,2.519,0,0,1-.633-2.96,3.773,3.773,0,0,1-3.22-1.209,6.711,6.711,0,0,1-1.559-3.186,4.519,4.519,0,0,1,.87-4.338c-1.209-.554-2.542-1.243-2.915-2.519a4.293,4.293,0,0,1,0-1.966,21.464,21.464,0,0,1,1.13-3.751c.26-.655.689-1.378,1.39-1.435a6.778,6.778,0,0,1,.915-7.072,5.649,5.649,0,0,1,3.073-2.022,22.425,22.425,0,0,1,3.943,0,6.778,6.778,0,0,1,5.4-2.915,4.688,4.688,0,0,1,3.841,2.824,10.337,10.337,0,0,1,4.406.068,4.993,4.993,0,0,1,3.389,2.734,3.389,3.389,0,0,1-1.028,3.977,3.593,3.593,0,0,1,3.186,3.468,4.349,4.349,0,0,1-2.836,3.954,1.525,1.525,0,0,0-.633.35,1.842,1.842,0,0,0-.282.836c-.2.938-1.039,1.4-1.4,2.259a22.878,22.878,0,0,0-.96,3.706,34.515,34.515,0,0,1-1.13,3.513,19.624,19.624,0,0,1-1.446,3.92c-.667,1.028-1.491,1.13-2.553,1.525C110.576,111.867,110.316,111.98,110.023,112.081Z" transform="translate(270.417 2301.719)" fill="#fff"/>
    <path id="Path_94" data-name="Path 94" d="M104.561,113.968a11.3,11.3,0,0,1-1.6-.113,5.728,5.728,0,0,1-3.276-1.344,3.288,3.288,0,0,1-1.028-2.779,4.519,4.519,0,0,1-2.847-1.423,7.185,7.185,0,0,1-1.706-3.389,5.468,5.468,0,0,1,.52-4.338,4.44,4.44,0,0,1-2.553-2.553,4.677,4.677,0,0,1,0-2.259,21.93,21.93,0,0,1,1.13-3.852,3.073,3.073,0,0,1,1.13-1.548,7.366,7.366,0,0,1,1.13-7.129,6.247,6.247,0,0,1,3.389-2.259,22.9,22.9,0,0,1,3.819,0,7.264,7.264,0,0,1,5.728-2.87,5.265,5.265,0,0,1,4.112,2.757,10.168,10.168,0,0,1,4.237.147,5.547,5.547,0,0,1,3.694,3.062,4.067,4.067,0,0,1-.418,3.864,4.237,4.237,0,0,1,2.621,3.785,4.892,4.892,0,0,1-3.2,4.519,1.209,1.209,0,0,0-.407.192.859.859,0,0,0-.113.384v.2a3.468,3.468,0,0,1-.892,1.548,3.525,3.525,0,0,0-.554.78,11.512,11.512,0,0,0-.61,2.361c-.09.429-.181.847-.282,1.243a35.608,35.608,0,0,1-1.13,3.559c-.158.429-.294.87-.418,1.322a9.873,9.873,0,0,1-1.13,2.711,3.491,3.491,0,0,1-2.1,1.469l-.7.271-.813.35h0A15.184,15.184,0,0,1,104.561,113.968Zm-5.129-5.4a.542.542,0,0,1,.463.249.576.576,0,0,1,0,.6,1.988,1.988,0,0,0,.52,2.259,4.734,4.734,0,0,0,2.666,1.051,12.8,12.8,0,0,0,6.778-1.13l.791-.328c.271-.124.531-.215.78-.305a2.44,2.44,0,0,0,1.525-1.017,9.14,9.14,0,0,0,.949-2.418c.136-.474.271-.949.441-1.4a35.188,35.188,0,0,0,1.13-3.389c.09-.373.169-.78.26-1.13a12.1,12.1,0,0,1,.723-2.621,4.519,4.519,0,0,1,.723-1.039,2.519,2.519,0,0,0,.655-1.051v-.169a1.932,1.932,0,0,1,.384-.938,1.9,1.9,0,0,1,.78-.463,3.841,3.841,0,0,0,2.542-3.457,2.994,2.994,0,0,0-2.655-2.9.576.576,0,0,1-.282-1.039,2.813,2.813,0,0,0,.825-3.288,4.429,4.429,0,0,0-2.96-2.4,9.388,9.388,0,0,0-4.169-.068.554.554,0,0,1-.61-.339,4.112,4.112,0,0,0-3.389-2.474,6.27,6.27,0,0,0-4.88,2.655h0a.565.565,0,0,1-.712.2,28.989,28.989,0,0,0-3.581,0,4.948,4.948,0,0,0-2.6,1.751,6.247,6.247,0,0,0-.8,6.507.554.554,0,0,1,0,.531.542.542,0,0,1-.452.282c-.4,0-.7.6-.892,1.13a20.064,20.064,0,0,0-1.13,3.66,3.739,3.739,0,0,0,0,1.695c.305,1.039,1.5,1.661,2.61,2.158a.565.565,0,0,1,.147.938c-1.13,1.062-.881,3.016-.7,3.8a6.033,6.033,0,0,0,1.412,2.915,3.175,3.175,0,0,0,2.723,1.051Zm10.676,3.581Z" transform="translate(270.355 2301.651)" fill="#231f20"/>
    <path id="Path_95" data-name="Path 95" d="M116.12,94.69s5.084,3.389,4.858,4.6-2.621,1.514-2.621,1.514" transform="translate(273.493 2303.802)" fill="#fff"/>
    <path id="Path_96" data-name="Path 96" d="M118.423,101.432a.566.566,0,0,1-.068-1.13c.8-.09,2.034-.486,2.135-1.051s-2.18-2.418-4.621-4.022a.567.567,0,1,1,.621-.949c2.022,1.333,5.366,3.773,5.118,5.174-.294,1.616-2.836,1.943-3.118,1.977Z" transform="translate(273.428 2303.737)" fill="#231f20"/>
    <path id="Path_97" data-name="Path 97" d="M112.2,86a1.65,1.65,0,0,1,.96.463,10.665,10.665,0,0,1,2.339,3.1,61.7,61.7,0,0,1,3.22,6.959c1.3,3.118,2.531,6.27,3.683,9.433.746,2.022-4.338,4.236-5.491,4.033l4.124,7.445s-2.158,1.717-7.095,1.57-5.378-1.13-5.378-1.13l-3.5-9.128s3.389-1.412,3.66-6.281a13.964,13.964,0,0,1,0-2.564c.237-.893.994-1.378,1.017-2.418a3.118,3.118,0,0,0-1.288-2.44c-.169-.136-.373-.282-.35-.5a.587.587,0,0,1,.192-.305,2.632,2.632,0,0,0-.4-3.728c1.288-.554,1.593-2.259,1.717-3.6,0,.441,2.056-.768,2.09-.78A1.457,1.457,0,0,1,112.2,86Z" transform="translate(272.059 2302.675)" fill="#fff"/>
    <path id="Path_98" data-name="Path 98" d="M114.6,119.653h-.61c-4.767-.147-5.649-1.051-5.875-1.435l-3.513-9.162a.554.554,0,0,1,.305-.723c.124,0,3.062-1.367,3.31-5.784a5.821,5.821,0,0,0,0-.949,4.723,4.723,0,0,1,0-1.74,3.966,3.966,0,0,1,.542-1.13,2.192,2.192,0,0,0,.452-1.13,2.508,2.508,0,0,0-1.005-2.034.972.972,0,0,1-.26-1.616,2.056,2.056,0,0,0-.282-2.9.565.565,0,0,1-.237-.52.587.587,0,0,1,.339-.463c1.017-.429,1.277-1.9,1.378-3.129a.576.576,0,0,1,.621-.52h.192a10.167,10.167,0,0,0,1.48-.712l.181-.09a2.26,2.26,0,0,1,.678-.124,2.158,2.158,0,0,1,1.311.587,10.97,10.97,0,0,1,2.474,3.254,54.491,54.491,0,0,1,2.96,6.338l.294.689c1.3,3.107,2.542,6.293,3.694,9.456a2.045,2.045,0,0,1-.531,2.124,9.671,9.671,0,0,1-4.587,2.576l3.706,6.688a.565.565,0,0,1-.136.723C121.359,118.026,119.246,119.653,114.6,119.653Zm-5.491-1.954c.181.124,1.13.723,4.914.836a12.292,12.292,0,0,0,6.315-1.209l-3.864-6.97a.576.576,0,0,1,0-.6.6.6,0,0,1,.565-.226,8.179,8.179,0,0,0,4.519-2.259,1.051,1.051,0,0,0,.339-1.005c-1.13-3.152-2.4-6.315-3.694-9.422l-.282-.678a53.476,53.476,0,0,0-2.9-6.214,9.9,9.9,0,0,0-2.192-2.937c-.328-.26-.475-.339-.621-.339h0a1.185,1.185,0,0,0-.294,0,10.1,10.1,0,0,1-1.762.847,4.813,4.813,0,0,1-1.322,3.107,3.231,3.231,0,0,1,.633,1.616,3.073,3.073,0,0,1-.678,2.339h0a3.672,3.672,0,0,1,1.457,2.949,3.118,3.118,0,0,1-.633,1.751,3.107,3.107,0,0,0-.407.825,4.259,4.259,0,0,0,0,1.31,6.451,6.451,0,0,1,.068,1.13,7.761,7.761,0,0,1-3.513,6.507Z" transform="translate(271.994 2302.609)" fill="#231f20"/>
    <path id="Path_99" data-name="Path 99" d="M120.06,101.722a3.977,3.977,0,0,1-5.14-.542" transform="translate(273.338 2304.644)" fill="#fff"/>
    <path id="Path_100" data-name="Path 100" d="M117.921,103.051a4.88,4.88,0,0,1-3.321-1.39.567.567,0,1,1,.8-.8,3.389,3.389,0,0,0,4.417.508.568.568,0,0,1,.689.9A4.35,4.35,0,0,1,117.921,103.051Z" transform="translate(273.274 2304.581)" fill="#231f20"/>
    <path id="Path_101" data-name="Path 101" d="M112.317,99.032a4.62,4.62,0,0,0-1.808-1.762,6.089,6.089,0,0,0-1.729-.926,2.26,2.26,0,0,0-1.887.2,2.09,2.09,0,0,0-.813,1.48,4.011,4.011,0,0,0,.271,1.706,7.264,7.264,0,0,0,5.649,4.6l-.249-.113" transform="translate(272.19 2304.001)" fill="#fff"/>
    <path id="Path_102" data-name="Path 102" d="M112.04,104.962h-.079a7.908,7.908,0,0,1-6.055-4.971,4.327,4.327,0,0,1-.294-1.954,2.565,2.565,0,0,1,1.039-1.887,2.745,2.745,0,0,1,2.384-.282,7.219,7.219,0,0,1,1.875.994,5.2,5.2,0,0,1,1.988,2,.565.565,0,0,1-.294.746.554.554,0,0,1-.746-.282,4.124,4.124,0,0,0-1.582-1.525,5.739,5.739,0,0,0-1.57-.847,1.661,1.661,0,0,0-1.412.124,1.5,1.5,0,0,0-.565,1.13,3.287,3.287,0,0,0,.237,1.457,6.711,6.711,0,0,0,4.666,4.135.565.565,0,0,1,.384,0l.249.113a.576.576,0,0,1-.226,1.13Z" transform="translate(272.128 2303.935)" fill="#231f20"/>
    <path id="Path_103" data-name="Path 103" d="M116.125,107.362a9.038,9.038,0,0,1-5-.972s2.2,4.655,6.778,4.293Z" transform="translate(272.845 2305.32)" fill="#231f20"/>
    <path id="Path_104" data-name="Path 104" d="M117.494,111.322c-4.519,0-6.778-4.44-6.778-4.632a.587.587,0,0,1,.136-.667.542.542,0,0,1,.678,0,8.473,8.473,0,0,0,4.643.881.61.61,0,0,1,.554.294l1.83,3.31a.576.576,0,0,1,0,.542.554.554,0,0,1-.452.294A4.813,4.813,0,0,1,117.494,111.322ZM112.67,107.7a6.338,6.338,0,0,0,4.395,2.485l-1.2-2.169A10.665,10.665,0,0,1,112.67,107.7Z" transform="translate(272.786 2305.257)" fill="#231f20"/>
    <ellipse id="Ellipse_5" data-name="Ellipse 5" cx="0.474" cy="1.209" rx="0.474" ry="1.209" transform="translate(385.365 2395.911) rotate(-20.99)" fill="#231f20"/>
    <path id="Path_105" data-name="Path 105" d="M125.6,111.16c-1.423-.892-17.285-3.886-21.171,3.208s-6.112,56.125-2.847,66.948l41.936-8.36S133.485,116.074,125.6,111.16Z" transform="translate(271.403 2305.758)" fill="#00709d"/>
    <path id="Path_106" data-name="Path 106" d="M123.812,132.017s10.925,9.219,21.07,6.2S167.8,117.138,167.8,117.138l-6.778-8.258s-6.959,12.563-15.387,12.642-22.979-10.247-22.979-10.247Z" transform="translate(274.342 2305.643)" fill="#00709d"/>
    <path id="Path_107" data-name="Path 107" d="M141.256,138.01c-10.281,0-21.183-7.581-21.781-8a.565.565,0,0,1,.61-.892c.181.136,18.584,12.924,29.531,5.378,11.139-7.671,14.89-14.687,14.924-14.811a.554.554,0,0,1,.757-.249.576.576,0,0,1,.249.768c-.158.294-3.9,7.366-15.285,15.218a15.568,15.568,0,0,1-9,2.587Z" transform="translate(273.912 2307.004)" fill="#231f20"/>
    <path id="Path_108" data-name="Path 108" d="M141.927,121.356H141.8c-2.259-.486-14.325-5.773-17.624-8.518a7.987,7.987,0,0,0-5.536-2.158.569.569,0,0,1-.136-1.13,9.038,9.038,0,0,1,6.394,2.418c3.186,2.644,15.127,7.908,17.138,8.292a.554.554,0,0,1,.441.667A.565.565,0,0,1,141.927,121.356Z" transform="translate(273.738 2305.73)" fill="#231f20"/>
    <path id="Path_109" data-name="Path 109" d="M145.966,92.571a19.2,19.2,0,0,0-.373,2.531,2.587,2.587,0,0,0,0,.78,1.762,1.762,0,0,0,1.593,1.085,5.649,5.649,0,0,0,2.915-.6c2.452-.983,7.083-4.259,3.694-7.061C151.219,87.261,146.565,89.758,145.966,92.571Z" transform="translate(277.313 2303.007)" fill="#fff"/>
    <path id="Path_110" data-name="Path 110" d="M147.653,97.659h-.531a2.26,2.26,0,0,1-1.977-1.536,2.6,2.6,0,0,1,0-.972,19.987,19.987,0,0,1,.373-2.6h0a6.247,6.247,0,0,1,4.112-4.1,4.632,4.632,0,0,1,4.575.554,3.208,3.208,0,0,1,1.378,3.039c-.35,2.259-3.31,4.214-5.208,4.982A7.411,7.411,0,0,1,147.653,97.659Zm3.864-8.462a4.948,4.948,0,0,0-1.559.282,5.231,5.231,0,0,0-3.389,3.265h0a20.225,20.225,0,0,0-.362,2.463,1.989,1.989,0,0,0,0,.587,1.22,1.22,0,0,0,1.039.712,5.344,5.344,0,0,0,2.632-.565c1.717-.689,4.248-2.418,4.519-4.1a2.124,2.124,0,0,0-.972-2A2.971,2.971,0,0,0,151.517,89.2Zm-5.491,3.389Z" transform="translate(277.253 2302.946)" fill="#231f20"/>
    <path id="Path_111" data-name="Path 111" d="M142.2,225.66s-6.044,5.49-5.728,6.2,12.484,15.986,14,14.393-1.344-13.342-1.344-13.342Z" transform="translate(276.132 2320.794)" fill="#231f20"/>
    <path id="Path_112" data-name="Path 112" d="M150.24,247.008h-.226c-2.915-.5-13.636-14.031-13.986-14.822-.169-.384-.486-1.13,5.863-6.857a.554.554,0,0,1,.78,0l6.925,7.242a.576.576,0,0,1,.136.26c.689,2.824,2.813,12.19,1.209,13.873a.949.949,0,0,1-.7.305Zm-13.1-15.184c1.13,1.841,11.105,13.862,13.037,14.054.712-1.051-.2-7.264-1.5-12.619l-6.428-6.778a39.145,39.145,0,0,0-5.106,5.344Z" transform="translate(276.068 2320.73)" fill="#231f20"/>
    <path id="Path_113" data-name="Path 113" d="M73.477,225.83s-7.852,1.062-8.484,2.644,1.695,19.511,3.288,19.206,6.044-11.772,6.044-11.772Z" transform="translate(266.847 2320.816)" fill="#231f20"/>
    <path id="Path_114" data-name="Path 114" d="M68.3,248.309a.938.938,0,0,1-.723-.4c-1.638-1.954-3.762-17.771-3.039-19.578s7-2.745,8.925-3.005a.576.576,0,0,1,.644.52l.847,10.066a1.029,1.029,0,0,1,0,.26c-1.378,3.525-4.756,11.772-6.462,12.111Zm.169-1.13Zm4.519-20.685c-3.48.52-7.163,1.491-7.456,2.259-.791,2.135,1.841,16.675,2.79,18.336.983-.825,3.525-6.281,5.445-11.207Z" transform="translate(266.782 2320.75)" fill="#231f20"/>
  </g>
</svg>
